%TF.GenerationSoftware,KiCad,Pcbnew,(6.0.8)*%
%TF.CreationDate,2022-11-21T10:59:59-06:00*%
%TF.ProjectId,Receiver,52656365-6976-4657-922e-6b696361645f,rev?*%
%TF.SameCoordinates,Original*%
%TF.FileFunction,Legend,Top*%
%TF.FilePolarity,Positive*%
%FSLAX46Y46*%
G04 Gerber Fmt 4.6, Leading zero omitted, Abs format (unit mm)*
G04 Created by KiCad (PCBNEW (6.0.8)) date 2022-11-21 10:59:59*
%MOMM*%
%LPD*%
G01*
G04 APERTURE LIST*
%ADD10C,0.150000*%
%ADD11C,0.120000*%
%ADD12C,0.127000*%
G04 APERTURE END LIST*
D10*
%TO.C,D1*%
X165412380Y-83508095D02*
X164412380Y-83508095D01*
X164412380Y-83270000D01*
X164460000Y-83127142D01*
X164555238Y-83031904D01*
X164650476Y-82984285D01*
X164840952Y-82936666D01*
X164983809Y-82936666D01*
X165174285Y-82984285D01*
X165269523Y-83031904D01*
X165364761Y-83127142D01*
X165412380Y-83270000D01*
X165412380Y-83508095D01*
X165412380Y-81984285D02*
X165412380Y-82555714D01*
X165412380Y-82270000D02*
X164412380Y-82270000D01*
X164555238Y-82365238D01*
X164650476Y-82460476D01*
X164698095Y-82555714D01*
%TO.C,J6*%
X161166666Y-85922380D02*
X161166666Y-86636666D01*
X161119047Y-86779523D01*
X161023809Y-86874761D01*
X160880952Y-86922380D01*
X160785714Y-86922380D01*
X162071428Y-85922380D02*
X161880952Y-85922380D01*
X161785714Y-85970000D01*
X161738095Y-86017619D01*
X161642857Y-86160476D01*
X161595238Y-86350952D01*
X161595238Y-86731904D01*
X161642857Y-86827142D01*
X161690476Y-86874761D01*
X161785714Y-86922380D01*
X161976190Y-86922380D01*
X162071428Y-86874761D01*
X162119047Y-86827142D01*
X162166666Y-86731904D01*
X162166666Y-86493809D01*
X162119047Y-86398571D01*
X162071428Y-86350952D01*
X161976190Y-86303333D01*
X161785714Y-86303333D01*
X161690476Y-86350952D01*
X161642857Y-86398571D01*
X161595238Y-86493809D01*
%TO.C,U2*%
X153952380Y-109761904D02*
X154761904Y-109761904D01*
X154857142Y-109714285D01*
X154904761Y-109666666D01*
X154952380Y-109571428D01*
X154952380Y-109380952D01*
X154904761Y-109285714D01*
X154857142Y-109238095D01*
X154761904Y-109190476D01*
X153952380Y-109190476D01*
X154047619Y-108761904D02*
X154000000Y-108714285D01*
X153952380Y-108619047D01*
X153952380Y-108380952D01*
X154000000Y-108285714D01*
X154047619Y-108238095D01*
X154142857Y-108190476D01*
X154238095Y-108190476D01*
X154380952Y-108238095D01*
X154952380Y-108809523D01*
X154952380Y-108190476D01*
%TO.C,J4*%
X136166666Y-79082380D02*
X136166666Y-79796666D01*
X136119047Y-79939523D01*
X136023809Y-80034761D01*
X135880952Y-80082380D01*
X135785714Y-80082380D01*
X137071428Y-79415714D02*
X137071428Y-80082380D01*
X136833333Y-79034761D02*
X136595238Y-79749047D01*
X137214285Y-79749047D01*
%TO.C,H4*%
X165738095Y-78752380D02*
X165738095Y-77752380D01*
X165738095Y-78228571D02*
X166309523Y-78228571D01*
X166309523Y-78752380D02*
X166309523Y-77752380D01*
X167214285Y-78085714D02*
X167214285Y-78752380D01*
X166976190Y-77704761D02*
X166738095Y-78419047D01*
X167357142Y-78419047D01*
%TO.C,J2*%
X136456666Y-87962380D02*
X136456666Y-88676666D01*
X136409047Y-88819523D01*
X136313809Y-88914761D01*
X136170952Y-88962380D01*
X136075714Y-88962380D01*
X136885238Y-88057619D02*
X136932857Y-88010000D01*
X137028095Y-87962380D01*
X137266190Y-87962380D01*
X137361428Y-88010000D01*
X137409047Y-88057619D01*
X137456666Y-88152857D01*
X137456666Y-88248095D01*
X137409047Y-88390952D01*
X136837619Y-88962380D01*
X137456666Y-88962380D01*
%TO.C,H2*%
X130738095Y-78752380D02*
X130738095Y-77752380D01*
X130738095Y-78228571D02*
X131309523Y-78228571D01*
X131309523Y-78752380D02*
X131309523Y-77752380D01*
X131738095Y-77847619D02*
X131785714Y-77800000D01*
X131880952Y-77752380D01*
X132119047Y-77752380D01*
X132214285Y-77800000D01*
X132261904Y-77847619D01*
X132309523Y-77942857D01*
X132309523Y-78038095D01*
X132261904Y-78180952D01*
X131690476Y-78752380D01*
X132309523Y-78752380D01*
%TO.C,J1*%
X133916666Y-87962380D02*
X133916666Y-88676666D01*
X133869047Y-88819523D01*
X133773809Y-88914761D01*
X133630952Y-88962380D01*
X133535714Y-88962380D01*
X134916666Y-88962380D02*
X134345238Y-88962380D01*
X134630952Y-88962380D02*
X134630952Y-87962380D01*
X134535714Y-88105238D01*
X134440476Y-88200476D01*
X134345238Y-88248095D01*
%TO.C,U1*%
X166087380Y-123936904D02*
X166896904Y-123936904D01*
X166992142Y-123889285D01*
X167039761Y-123841666D01*
X167087380Y-123746428D01*
X167087380Y-123555952D01*
X167039761Y-123460714D01*
X166992142Y-123413095D01*
X166896904Y-123365476D01*
X166087380Y-123365476D01*
X167087380Y-122365476D02*
X167087380Y-122936904D01*
X167087380Y-122651190D02*
X166087380Y-122651190D01*
X166230238Y-122746428D01*
X166325476Y-122841666D01*
X166373095Y-122936904D01*
%TO.C,H1*%
X165738095Y-136252380D02*
X165738095Y-135252380D01*
X165738095Y-135728571D02*
X166309523Y-135728571D01*
X166309523Y-136252380D02*
X166309523Y-135252380D01*
X167309523Y-136252380D02*
X166738095Y-136252380D01*
X167023809Y-136252380D02*
X167023809Y-135252380D01*
X166928571Y-135395238D01*
X166833333Y-135490476D01*
X166738095Y-135538095D01*
%TO.C,C2*%
X134833333Y-108107142D02*
X134785714Y-108154761D01*
X134642857Y-108202380D01*
X134547619Y-108202380D01*
X134404761Y-108154761D01*
X134309523Y-108059523D01*
X134261904Y-107964285D01*
X134214285Y-107773809D01*
X134214285Y-107630952D01*
X134261904Y-107440476D01*
X134309523Y-107345238D01*
X134404761Y-107250000D01*
X134547619Y-107202380D01*
X134642857Y-107202380D01*
X134785714Y-107250000D01*
X134833333Y-107297619D01*
X135214285Y-107297619D02*
X135261904Y-107250000D01*
X135357142Y-107202380D01*
X135595238Y-107202380D01*
X135690476Y-107250000D01*
X135738095Y-107297619D01*
X135785714Y-107392857D01*
X135785714Y-107488095D01*
X135738095Y-107630952D01*
X135166666Y-108202380D01*
X135785714Y-108202380D01*
%TO.C,C1*%
X161333333Y-119207142D02*
X161285714Y-119254761D01*
X161142857Y-119302380D01*
X161047619Y-119302380D01*
X160904761Y-119254761D01*
X160809523Y-119159523D01*
X160761904Y-119064285D01*
X160714285Y-118873809D01*
X160714285Y-118730952D01*
X160761904Y-118540476D01*
X160809523Y-118445238D01*
X160904761Y-118350000D01*
X161047619Y-118302380D01*
X161142857Y-118302380D01*
X161285714Y-118350000D01*
X161333333Y-118397619D01*
X162285714Y-119302380D02*
X161714285Y-119302380D01*
X162000000Y-119302380D02*
X162000000Y-118302380D01*
X161904761Y-118445238D01*
X161809523Y-118540476D01*
X161714285Y-118588095D01*
%TO.C,J3*%
X138996666Y-87962380D02*
X138996666Y-88676666D01*
X138949047Y-88819523D01*
X138853809Y-88914761D01*
X138710952Y-88962380D01*
X138615714Y-88962380D01*
X139377619Y-87962380D02*
X139996666Y-87962380D01*
X139663333Y-88343333D01*
X139806190Y-88343333D01*
X139901428Y-88390952D01*
X139949047Y-88438571D01*
X139996666Y-88533809D01*
X139996666Y-88771904D01*
X139949047Y-88867142D01*
X139901428Y-88914761D01*
X139806190Y-88962380D01*
X139520476Y-88962380D01*
X139425238Y-88914761D01*
X139377619Y-88867142D01*
%TO.C,J5*%
X142312380Y-83063333D02*
X143026666Y-83063333D01*
X143169523Y-83110952D01*
X143264761Y-83206190D01*
X143312380Y-83349047D01*
X143312380Y-83444285D01*
X142312380Y-82110952D02*
X142312380Y-82587142D01*
X142788571Y-82634761D01*
X142740952Y-82587142D01*
X142693333Y-82491904D01*
X142693333Y-82253809D01*
X142740952Y-82158571D01*
X142788571Y-82110952D01*
X142883809Y-82063333D01*
X143121904Y-82063333D01*
X143217142Y-82110952D01*
X143264761Y-82158571D01*
X143312380Y-82253809D01*
X143312380Y-82491904D01*
X143264761Y-82587142D01*
X143217142Y-82634761D01*
%TO.C,H3*%
X130738095Y-136252380D02*
X130738095Y-135252380D01*
X130738095Y-135728571D02*
X131309523Y-135728571D01*
X131309523Y-136252380D02*
X131309523Y-135252380D01*
X131690476Y-135252380D02*
X132309523Y-135252380D01*
X131976190Y-135633333D01*
X132119047Y-135633333D01*
X132214285Y-135680952D01*
X132261904Y-135728571D01*
X132309523Y-135823809D01*
X132309523Y-136061904D01*
X132261904Y-136157142D01*
X132214285Y-136204761D01*
X132119047Y-136252380D01*
X131833333Y-136252380D01*
X131738095Y-136204761D01*
X131690476Y-136157142D01*
D11*
%TO.C,D1*%
X162545000Y-80210000D02*
X159455000Y-80210000D01*
X159455170Y-80210000D02*
G75*
G03*
X161000462Y-85760000I1544830J-2560000D01*
G01*
X160999538Y-85760000D02*
G75*
G03*
X162544830Y-80210000I462J2990000D01*
G01*
X163500000Y-82770000D02*
G75*
G03*
X163500000Y-82770000I-2500000J0D01*
G01*
%TO.C,J6*%
X160170000Y-90070000D02*
X160170000Y-102830000D01*
X160170000Y-88800000D02*
X160170000Y-87470000D01*
X160170000Y-102830000D02*
X162830000Y-102830000D01*
X162830000Y-90070000D02*
X162830000Y-102830000D01*
X160170000Y-87470000D02*
X161500000Y-87470000D01*
X160170000Y-90070000D02*
X162830000Y-90070000D01*
%TO.C,U2*%
X155590000Y-107090000D02*
X156850000Y-107090000D01*
X155590000Y-113100000D02*
X155590000Y-107090000D01*
X162410000Y-110850000D02*
X162410000Y-107090000D01*
X162410000Y-107090000D02*
X161150000Y-107090000D01*
%TO.C,J4*%
X135170000Y-81960000D02*
X135170000Y-80630000D01*
X135170000Y-80630000D02*
X136500000Y-80630000D01*
X135170000Y-85830000D02*
X137830000Y-85830000D01*
X135170000Y-83230000D02*
X135170000Y-85830000D01*
X135170000Y-83230000D02*
X137830000Y-83230000D01*
X137830000Y-83230000D02*
X137830000Y-85830000D01*
%TO.C,J2*%
X135460000Y-92110000D02*
X135460000Y-102330000D01*
X138120000Y-92110000D02*
X138120000Y-102330000D01*
X135460000Y-92110000D02*
X138120000Y-92110000D01*
X135460000Y-102330000D02*
X138120000Y-102330000D01*
X135460000Y-90840000D02*
X135460000Y-89510000D01*
X135460000Y-89510000D02*
X136790000Y-89510000D01*
%TO.C,J1*%
X132920000Y-102330000D02*
X135580000Y-102330000D01*
X132920000Y-92110000D02*
X135580000Y-92110000D01*
X132920000Y-92110000D02*
X132920000Y-102330000D01*
X135580000Y-92110000D02*
X135580000Y-102330000D01*
X132920000Y-90840000D02*
X132920000Y-89510000D01*
X132920000Y-89510000D02*
X134250000Y-89510000D01*
D12*
%TO.C,U1*%
X165510000Y-120110000D02*
X132490000Y-120110000D01*
X132490000Y-120110000D02*
X132490000Y-137890000D01*
X165510000Y-137890000D02*
X165510000Y-120110000D01*
X132490000Y-137890000D02*
X165510000Y-137890000D01*
D11*
%TO.C,C2*%
X136881000Y-109715000D02*
X136881000Y-110460000D01*
X136441000Y-109351000D02*
X136441000Y-110460000D01*
X136361000Y-109300000D02*
X136361000Y-110460000D01*
X135040000Y-108920000D02*
X135040000Y-110460000D01*
X136121000Y-112540000D02*
X136121000Y-113829000D01*
X136601000Y-112540000D02*
X136601000Y-113535000D01*
X136321000Y-112540000D02*
X136321000Y-113724000D01*
X137601000Y-111216000D02*
X137601000Y-111784000D01*
X137001000Y-109847000D02*
X137001000Y-110460000D01*
X137321000Y-110322000D02*
X137321000Y-112678000D01*
X135520000Y-108972000D02*
X135520000Y-110460000D01*
X136521000Y-112540000D02*
X136521000Y-113595000D01*
X135280000Y-108935000D02*
X135280000Y-110460000D01*
X136081000Y-112540000D02*
X136081000Y-113848000D01*
X136801000Y-112540000D02*
X136801000Y-113364000D01*
X135480000Y-108964000D02*
X135480000Y-110460000D01*
X135040000Y-112540000D02*
X135040000Y-114080000D01*
X137161000Y-110057000D02*
X137161000Y-112943000D01*
X136481000Y-109378000D02*
X136481000Y-110460000D01*
X137561000Y-110982000D02*
X137561000Y-112018000D01*
X135881000Y-109072000D02*
X135881000Y-110460000D01*
X136481000Y-112540000D02*
X136481000Y-113622000D01*
X137041000Y-109895000D02*
X137041000Y-113105000D01*
X135520000Y-112540000D02*
X135520000Y-114028000D01*
X137001000Y-112540000D02*
X137001000Y-113153000D01*
X135801000Y-112540000D02*
X135801000Y-113955000D01*
X135600000Y-112540000D02*
X135600000Y-114011000D01*
X135680000Y-109009000D02*
X135680000Y-110460000D01*
X135240000Y-108931000D02*
X135240000Y-110460000D01*
X135000000Y-112540000D02*
X135000000Y-114080000D01*
X136241000Y-112540000D02*
X136241000Y-113768000D01*
X136241000Y-109232000D02*
X136241000Y-110460000D01*
X137361000Y-110402000D02*
X137361000Y-112598000D01*
X136441000Y-112540000D02*
X136441000Y-113649000D01*
X135440000Y-112540000D02*
X135440000Y-114043000D01*
X135160000Y-112540000D02*
X135160000Y-114076000D01*
X135640000Y-108999000D02*
X135640000Y-110460000D01*
X135160000Y-108924000D02*
X135160000Y-110460000D01*
X136841000Y-109674000D02*
X136841000Y-110460000D01*
X137121000Y-110000000D02*
X137121000Y-113000000D01*
X136641000Y-109496000D02*
X136641000Y-110460000D01*
X135921000Y-109086000D02*
X135921000Y-110460000D01*
X136041000Y-109135000D02*
X136041000Y-110460000D01*
X136561000Y-109435000D02*
X136561000Y-110460000D01*
X137281000Y-110249000D02*
X137281000Y-112751000D01*
X135721000Y-112540000D02*
X135721000Y-113980000D01*
X135360000Y-112540000D02*
X135360000Y-114056000D01*
X135240000Y-112540000D02*
X135240000Y-114069000D01*
X136361000Y-112540000D02*
X136361000Y-113700000D01*
X135921000Y-112540000D02*
X135921000Y-113914000D01*
X135961000Y-109102000D02*
X135961000Y-110460000D01*
X135280000Y-112540000D02*
X135280000Y-114065000D01*
X135320000Y-112540000D02*
X135320000Y-114061000D01*
X135881000Y-112540000D02*
X135881000Y-113928000D01*
X135400000Y-108950000D02*
X135400000Y-110460000D01*
X135801000Y-109045000D02*
X135801000Y-110460000D01*
X136121000Y-109171000D02*
X136121000Y-110460000D01*
X132445225Y-109775000D02*
X132445225Y-110275000D01*
X136161000Y-109190000D02*
X136161000Y-110460000D01*
X135120000Y-108922000D02*
X135120000Y-110460000D01*
X135560000Y-112540000D02*
X135560000Y-114020000D01*
X136521000Y-109405000D02*
X136521000Y-110460000D01*
X136401000Y-112540000D02*
X136401000Y-113675000D01*
X137441000Y-110585000D02*
X137441000Y-112415000D01*
X135761000Y-112540000D02*
X135761000Y-113968000D01*
X137241000Y-110181000D02*
X137241000Y-112819000D01*
X135841000Y-109058000D02*
X135841000Y-110460000D01*
X136721000Y-109563000D02*
X136721000Y-110460000D01*
X136161000Y-112540000D02*
X136161000Y-113810000D01*
X136881000Y-112540000D02*
X136881000Y-113285000D01*
X135560000Y-108980000D02*
X135560000Y-110460000D01*
X136001000Y-109118000D02*
X136001000Y-110460000D01*
X135360000Y-108944000D02*
X135360000Y-110460000D01*
X136921000Y-109757000D02*
X136921000Y-110460000D01*
X136401000Y-109325000D02*
X136401000Y-110460000D01*
X135080000Y-108921000D02*
X135080000Y-110460000D01*
X136681000Y-109529000D02*
X136681000Y-110460000D01*
X135961000Y-112540000D02*
X135961000Y-113898000D01*
X135841000Y-112540000D02*
X135841000Y-113942000D01*
X136841000Y-112540000D02*
X136841000Y-113326000D01*
X135761000Y-109032000D02*
X135761000Y-110460000D01*
X135000000Y-108920000D02*
X135000000Y-110460000D01*
X137201000Y-110117000D02*
X137201000Y-112883000D01*
X137081000Y-109946000D02*
X137081000Y-113054000D01*
X135120000Y-112540000D02*
X135120000Y-114078000D01*
X135721000Y-109020000D02*
X135721000Y-110460000D01*
X135600000Y-108989000D02*
X135600000Y-110460000D01*
X136281000Y-109253000D02*
X136281000Y-110460000D01*
X136721000Y-112540000D02*
X136721000Y-113437000D01*
X136601000Y-109465000D02*
X136601000Y-110460000D01*
X135480000Y-112540000D02*
X135480000Y-114036000D01*
X135400000Y-112540000D02*
X135400000Y-114050000D01*
X136321000Y-109276000D02*
X136321000Y-110460000D01*
X132195225Y-110025000D02*
X132695225Y-110025000D01*
X136801000Y-109636000D02*
X136801000Y-110460000D01*
X136081000Y-109152000D02*
X136081000Y-110460000D01*
X135200000Y-108927000D02*
X135200000Y-110460000D01*
X136921000Y-112540000D02*
X136921000Y-113243000D01*
X135080000Y-112540000D02*
X135080000Y-114079000D01*
X135200000Y-112540000D02*
X135200000Y-114073000D01*
X136041000Y-112540000D02*
X136041000Y-113865000D01*
X137481000Y-110695000D02*
X137481000Y-112305000D01*
X136561000Y-112540000D02*
X136561000Y-113565000D01*
X137521000Y-110823000D02*
X137521000Y-112177000D01*
X136961000Y-112540000D02*
X136961000Y-113199000D01*
X136201000Y-112540000D02*
X136201000Y-113790000D01*
X136761000Y-109599000D02*
X136761000Y-110460000D01*
X136681000Y-112540000D02*
X136681000Y-113471000D01*
X136281000Y-112540000D02*
X136281000Y-113747000D01*
X136001000Y-112540000D02*
X136001000Y-113882000D01*
X135640000Y-112540000D02*
X135640000Y-114001000D01*
X136641000Y-112540000D02*
X136641000Y-113504000D01*
X137401000Y-110489000D02*
X137401000Y-112511000D01*
X135320000Y-108939000D02*
X135320000Y-110460000D01*
X135440000Y-108957000D02*
X135440000Y-110460000D01*
X136961000Y-109801000D02*
X136961000Y-110460000D01*
X136761000Y-112540000D02*
X136761000Y-113401000D01*
X135680000Y-112540000D02*
X135680000Y-113991000D01*
X136201000Y-109210000D02*
X136201000Y-110460000D01*
X137620000Y-111500000D02*
G75*
G03*
X137620000Y-111500000I-2620000J0D01*
G01*
%TO.C,C1*%
X164170000Y-114279000D02*
X158830000Y-114279000D01*
X158830000Y-117721000D02*
X158830000Y-117055000D01*
X164170000Y-117721000D02*
X158830000Y-117721000D01*
X164170000Y-117721000D02*
X164170000Y-117055000D01*
X158830000Y-114945000D02*
X158830000Y-114279000D01*
X164170000Y-114945000D02*
X164170000Y-114279000D01*
%TO.C,J3*%
X138000000Y-89510000D02*
X139330000Y-89510000D01*
X138000000Y-90840000D02*
X138000000Y-89510000D01*
X138000000Y-102330000D02*
X140660000Y-102330000D01*
X138000000Y-92110000D02*
X140660000Y-92110000D01*
X138000000Y-92110000D02*
X138000000Y-102330000D01*
X140660000Y-92110000D02*
X140660000Y-102330000D01*
%TO.C,J5*%
X146460000Y-85330000D02*
X146460000Y-82730000D01*
X154140000Y-85330000D02*
X154140000Y-80130000D01*
X146460000Y-85330000D02*
X154140000Y-85330000D01*
X143860000Y-82730000D02*
X143860000Y-80130000D01*
X145190000Y-85330000D02*
X143860000Y-85330000D01*
X143860000Y-80130000D02*
X154140000Y-80130000D01*
X143860000Y-85330000D02*
X143860000Y-84000000D01*
X146460000Y-82730000D02*
X143860000Y-82730000D01*
%TD*%
M02*
