%TF.GenerationSoftware,KiCad,Pcbnew,(6.0.8)*%
%TF.CreationDate,2022-11-21T10:59:59-06:00*%
%TF.ProjectId,Receiver,52656365-6976-4657-922e-6b696361645f,rev?*%
%TF.SameCoordinates,Original*%
%TF.FileFunction,Legend,Bot*%
%TF.FilePolarity,Positive*%
%FSLAX46Y46*%
G04 Gerber Fmt 4.6, Leading zero omitted, Abs format (unit mm)*
G04 Created by KiCad (PCBNEW (6.0.8)) date 2022-11-21 10:59:59*
%MOMM*%
%LPD*%
G01*
G04 APERTURE LIST*
%ADD10C,0.150000*%
G04 APERTURE END LIST*
D10*
X158719047Y-139952380D02*
X159052380Y-139476190D01*
X159290476Y-139952380D02*
X159290476Y-138952380D01*
X158909523Y-138952380D01*
X158814285Y-139000000D01*
X158766666Y-139047619D01*
X158719047Y-139142857D01*
X158719047Y-139285714D01*
X158766666Y-139380952D01*
X158814285Y-139428571D01*
X158909523Y-139476190D01*
X159290476Y-139476190D01*
X157909523Y-139904761D02*
X158004761Y-139952380D01*
X158195238Y-139952380D01*
X158290476Y-139904761D01*
X158338095Y-139809523D01*
X158338095Y-139428571D01*
X158290476Y-139333333D01*
X158195238Y-139285714D01*
X158004761Y-139285714D01*
X157909523Y-139333333D01*
X157861904Y-139428571D01*
X157861904Y-139523809D01*
X158338095Y-139619047D01*
X157004761Y-139904761D02*
X157100000Y-139952380D01*
X157290476Y-139952380D01*
X157385714Y-139904761D01*
X157433333Y-139857142D01*
X157480952Y-139761904D01*
X157480952Y-139476190D01*
X157433333Y-139380952D01*
X157385714Y-139333333D01*
X157290476Y-139285714D01*
X157100000Y-139285714D01*
X157004761Y-139333333D01*
X156195238Y-139904761D02*
X156290476Y-139952380D01*
X156480952Y-139952380D01*
X156576190Y-139904761D01*
X156623809Y-139809523D01*
X156623809Y-139428571D01*
X156576190Y-139333333D01*
X156480952Y-139285714D01*
X156290476Y-139285714D01*
X156195238Y-139333333D01*
X156147619Y-139428571D01*
X156147619Y-139523809D01*
X156623809Y-139619047D01*
X155719047Y-139952380D02*
X155719047Y-139285714D01*
X155719047Y-138952380D02*
X155766666Y-139000000D01*
X155719047Y-139047619D01*
X155671428Y-139000000D01*
X155719047Y-138952380D01*
X155719047Y-139047619D01*
X155338095Y-139285714D02*
X155100000Y-139952380D01*
X154861904Y-139285714D01*
X154100000Y-139904761D02*
X154195238Y-139952380D01*
X154385714Y-139952380D01*
X154480952Y-139904761D01*
X154528571Y-139809523D01*
X154528571Y-139428571D01*
X154480952Y-139333333D01*
X154385714Y-139285714D01*
X154195238Y-139285714D01*
X154100000Y-139333333D01*
X154052380Y-139428571D01*
X154052380Y-139523809D01*
X154528571Y-139619047D01*
X153623809Y-139952380D02*
X153623809Y-139285714D01*
X153623809Y-139476190D02*
X153576190Y-139380952D01*
X153528571Y-139333333D01*
X153433333Y-139285714D01*
X153338095Y-139285714D01*
X153242857Y-140047619D02*
X152480952Y-140047619D01*
X152242857Y-139952380D02*
X152242857Y-138952380D01*
X151861904Y-138952380D01*
X151766666Y-139000000D01*
X151719047Y-139047619D01*
X151671428Y-139142857D01*
X151671428Y-139285714D01*
X151719047Y-139380952D01*
X151766666Y-139428571D01*
X151861904Y-139476190D01*
X152242857Y-139476190D01*
X150671428Y-139857142D02*
X150719047Y-139904761D01*
X150861904Y-139952380D01*
X150957142Y-139952380D01*
X151100000Y-139904761D01*
X151195238Y-139809523D01*
X151242857Y-139714285D01*
X151290476Y-139523809D01*
X151290476Y-139380952D01*
X151242857Y-139190476D01*
X151195238Y-139095238D01*
X151100000Y-139000000D01*
X150957142Y-138952380D01*
X150861904Y-138952380D01*
X150719047Y-139000000D01*
X150671428Y-139047619D01*
X149909523Y-139428571D02*
X149766666Y-139476190D01*
X149719047Y-139523809D01*
X149671428Y-139619047D01*
X149671428Y-139761904D01*
X149719047Y-139857142D01*
X149766666Y-139904761D01*
X149861904Y-139952380D01*
X150242857Y-139952380D01*
X150242857Y-138952380D01*
X149909523Y-138952380D01*
X149814285Y-139000000D01*
X149766666Y-139047619D01*
X149719047Y-139142857D01*
X149719047Y-139238095D01*
X149766666Y-139333333D01*
X149814285Y-139380952D01*
X149909523Y-139428571D01*
X150242857Y-139428571D01*
X148480952Y-139571428D02*
X147719047Y-139571428D01*
X146004761Y-139952380D02*
X146480952Y-139952380D01*
X146480952Y-138952380D01*
X145671428Y-139952380D02*
X145671428Y-139285714D01*
X145671428Y-138952380D02*
X145719047Y-139000000D01*
X145671428Y-139047619D01*
X145623809Y-139000000D01*
X145671428Y-138952380D01*
X145671428Y-139047619D01*
X145338095Y-139285714D02*
X144957142Y-139285714D01*
X145195238Y-138952380D02*
X145195238Y-139809523D01*
X145147619Y-139904761D01*
X145052380Y-139952380D01*
X144957142Y-139952380D01*
X144766666Y-139285714D02*
X144385714Y-139285714D01*
X144623809Y-138952380D02*
X144623809Y-139809523D01*
X144576190Y-139904761D01*
X144480952Y-139952380D01*
X144385714Y-139952380D01*
X143909523Y-139952380D02*
X144004761Y-139904761D01*
X144052380Y-139809523D01*
X144052380Y-138952380D01*
X143147619Y-139904761D02*
X143242857Y-139952380D01*
X143433333Y-139952380D01*
X143528571Y-139904761D01*
X143576190Y-139809523D01*
X143576190Y-139428571D01*
X143528571Y-139333333D01*
X143433333Y-139285714D01*
X143242857Y-139285714D01*
X143147619Y-139333333D01*
X143100000Y-139428571D01*
X143100000Y-139523809D01*
X143576190Y-139619047D01*
X142671428Y-139952380D02*
X142671428Y-138952380D01*
X142242857Y-139952380D02*
X142242857Y-139428571D01*
X142290476Y-139333333D01*
X142385714Y-139285714D01*
X142528571Y-139285714D01*
X142623809Y-139333333D01*
X142671428Y-139380952D01*
X141338095Y-139952380D02*
X141338095Y-139428571D01*
X141385714Y-139333333D01*
X141480952Y-139285714D01*
X141671428Y-139285714D01*
X141766666Y-139333333D01*
X141338095Y-139904761D02*
X141433333Y-139952380D01*
X141671428Y-139952380D01*
X141766666Y-139904761D01*
X141814285Y-139809523D01*
X141814285Y-139714285D01*
X141766666Y-139619047D01*
X141671428Y-139571428D01*
X141433333Y-139571428D01*
X141338095Y-139523809D01*
X141004761Y-139285714D02*
X140623809Y-139285714D01*
X140861904Y-138952380D02*
X140861904Y-139809523D01*
X140814285Y-139904761D01*
X140719047Y-139952380D01*
X140623809Y-139952380D01*
X140338095Y-139047619D02*
X140290476Y-139000000D01*
X140195238Y-138952380D01*
X139957142Y-138952380D01*
X139861904Y-139000000D01*
X139814285Y-139047619D01*
X139766666Y-139142857D01*
X139766666Y-139238095D01*
X139814285Y-139380952D01*
X140385714Y-139952380D01*
X139766666Y-139952380D01*
X139385714Y-139047619D02*
X139338095Y-139000000D01*
X139242857Y-138952380D01*
X139004761Y-138952380D01*
X138909523Y-139000000D01*
X138861904Y-139047619D01*
X138814285Y-139142857D01*
X138814285Y-139238095D01*
X138861904Y-139380952D01*
X139433333Y-139952380D01*
X138814285Y-139952380D01*
X137861904Y-139952380D02*
X138433333Y-139952380D01*
X138147619Y-139952380D02*
X138147619Y-138952380D01*
X138242857Y-139095238D01*
X138338095Y-139190476D01*
X138433333Y-139238095D01*
%TO.C,G\u002A\u002A\u002A*%
G36*
X147301733Y-106316973D02*
G01*
X147305767Y-106462909D01*
X147295027Y-106634463D01*
X147269418Y-106795958D01*
X147230611Y-106932919D01*
X147220180Y-106959177D01*
X147158238Y-107083538D01*
X147073546Y-107219570D01*
X146973458Y-107356209D01*
X146865327Y-107482394D01*
X146836469Y-107512584D01*
X146780897Y-107566911D01*
X146737336Y-107604470D01*
X146713344Y-107618494D01*
X146687863Y-107612813D01*
X146634764Y-107595103D01*
X146568225Y-107569550D01*
X146474942Y-107534268D01*
X146335764Y-107487741D01*
X146184664Y-107442425D01*
X146034053Y-107401815D01*
X145896346Y-107369405D01*
X145783954Y-107348693D01*
X145608181Y-107323505D01*
X145697185Y-107171040D01*
X145714143Y-107141800D01*
X145751072Y-107076607D01*
X145776788Y-107028983D01*
X145786529Y-107007637D01*
X145770234Y-107007598D01*
X145721929Y-107015940D01*
X145649299Y-107031404D01*
X145560099Y-107052455D01*
X145544632Y-107056241D01*
X145218964Y-107126942D01*
X144909697Y-107175130D01*
X144601469Y-107202714D01*
X144278923Y-107211602D01*
X144246875Y-107211495D01*
X143921883Y-107195164D01*
X143624894Y-107151251D01*
X143356381Y-107080031D01*
X143116819Y-106981784D01*
X142906683Y-106856786D01*
X142726444Y-106705314D01*
X142576579Y-106527645D01*
X142457560Y-106324057D01*
X142369861Y-106094828D01*
X142309436Y-105904732D01*
X142207765Y-105633219D01*
X142145527Y-105496135D01*
X143247064Y-105496135D01*
X143253221Y-105558032D01*
X143269144Y-105642840D01*
X143295438Y-105758686D01*
X143319206Y-105852405D01*
X143366664Y-105999896D01*
X143422742Y-106121831D01*
X143492347Y-106228016D01*
X143580385Y-106328257D01*
X143584643Y-106332564D01*
X143719545Y-106446777D01*
X143870400Y-106530993D01*
X144047307Y-106590894D01*
X144050069Y-106591592D01*
X144139345Y-106607327D01*
X144252283Y-106617636D01*
X144372688Y-106621017D01*
X144389859Y-106620869D01*
X144528374Y-106613998D01*
X144660064Y-106595440D01*
X144792953Y-106562864D01*
X144935070Y-106513937D01*
X145094439Y-106446329D01*
X145279087Y-106357707D01*
X145382363Y-106305876D01*
X145476744Y-106258046D01*
X145552454Y-106219182D01*
X145603572Y-106192324D01*
X145624180Y-106180512D01*
X145625570Y-106172270D01*
X145603764Y-106144586D01*
X145554606Y-106104931D01*
X145484030Y-106057452D01*
X145397970Y-106006295D01*
X145302358Y-105955607D01*
X145223787Y-105917330D01*
X145153694Y-105887304D01*
X145095921Y-105870172D01*
X145037838Y-105862343D01*
X144966810Y-105860226D01*
X144911830Y-105860771D01*
X144841901Y-105867357D01*
X144785201Y-105884448D01*
X144724674Y-105915970D01*
X144687778Y-105939582D01*
X144636311Y-105979728D01*
X144607137Y-106012357D01*
X144601117Y-106022069D01*
X144551694Y-106067091D01*
X144482286Y-106100479D01*
X144410097Y-106113412D01*
X144403649Y-106113254D01*
X144323150Y-106095697D01*
X144232048Y-106054222D01*
X144143732Y-105996134D01*
X144071592Y-105928737D01*
X144007995Y-105833947D01*
X143952464Y-105697845D01*
X143926479Y-105623215D01*
X143881092Y-105536298D01*
X143816011Y-105455433D01*
X143777500Y-105418142D01*
X143702439Y-105359313D01*
X143621943Y-105308730D01*
X143547402Y-105273240D01*
X143490208Y-105259686D01*
X143479393Y-105260401D01*
X143422360Y-105277976D01*
X143357821Y-105312135D01*
X143301295Y-105353559D01*
X143268300Y-105392930D01*
X143261640Y-105408566D01*
X143250072Y-105449022D01*
X143247064Y-105496135D01*
X142145527Y-105496135D01*
X142096596Y-105388362D01*
X141977738Y-105173647D01*
X141852996Y-104992565D01*
X141724180Y-104848603D01*
X141716840Y-104841657D01*
X141650435Y-104782911D01*
X141586823Y-104732760D01*
X141538859Y-104701413D01*
X141535746Y-104699893D01*
X141486343Y-104683389D01*
X141407794Y-104664502D01*
X141310260Y-104645443D01*
X141203902Y-104628429D01*
X141060746Y-104606211D01*
X140933243Y-104581182D01*
X140843855Y-104556297D01*
X140791221Y-104531164D01*
X140773979Y-104505396D01*
X140792917Y-104473566D01*
X140849419Y-104436954D01*
X140940700Y-104397355D01*
X141063962Y-104355978D01*
X141216409Y-104314033D01*
X141367769Y-104278741D01*
X141702950Y-104220308D01*
X142054519Y-104185921D01*
X142431385Y-104174557D01*
X142611507Y-104176225D01*
X142770699Y-104182533D01*
X142915226Y-104195035D01*
X143053796Y-104215285D01*
X143195122Y-104244835D01*
X143347914Y-104285238D01*
X143520883Y-104338049D01*
X143722738Y-104404820D01*
X143909804Y-104468909D01*
X144148282Y-104553408D01*
X144356378Y-104631167D01*
X144539342Y-104704401D01*
X144702424Y-104775326D01*
X144850874Y-104846156D01*
X144989942Y-104919106D01*
X145124880Y-104996393D01*
X145255374Y-105077374D01*
X145370339Y-105158401D01*
X145468296Y-105241366D01*
X145559933Y-105335390D01*
X145655936Y-105449594D01*
X145736089Y-105545175D01*
X145865624Y-105677106D01*
X145995493Y-105779214D01*
X146132586Y-105857393D01*
X146175241Y-105877123D01*
X146234997Y-105900181D01*
X146292734Y-105913253D01*
X146362669Y-105919083D01*
X146459021Y-105920416D01*
X146546278Y-105919567D01*
X146615697Y-105914768D01*
X146672245Y-105902850D01*
X146730424Y-105880652D01*
X146804738Y-105845009D01*
X146807093Y-105843833D01*
X146898084Y-105793341D01*
X146991484Y-105733721D01*
X147067431Y-105677628D01*
X147072924Y-105673118D01*
X147128548Y-105631146D01*
X147171449Y-105605120D01*
X147192731Y-105600513D01*
X147195062Y-105604571D01*
X147205421Y-105641579D01*
X147218982Y-105708912D01*
X147234569Y-105798842D01*
X147251005Y-105903642D01*
X147267115Y-106015582D01*
X147281723Y-106126936D01*
X147286973Y-106172270D01*
X147293655Y-106229976D01*
X147301733Y-106316973D01*
G37*
G36*
X151507015Y-117052546D02*
G01*
X151439897Y-117156700D01*
X151370201Y-117251533D01*
X151294916Y-117342207D01*
X151211030Y-117433882D01*
X151198490Y-117447009D01*
X151054406Y-117585996D01*
X150907605Y-117703177D01*
X150745555Y-117807625D01*
X150555725Y-117908414D01*
X150435962Y-117964495D01*
X150240062Y-118042071D01*
X150053424Y-118095749D01*
X149864292Y-118129284D01*
X149861245Y-118129670D01*
X149788025Y-118137906D01*
X149730755Y-118142505D01*
X149701602Y-118142479D01*
X149690669Y-118139630D01*
X149645121Y-118127412D01*
X149571772Y-118107577D01*
X149477807Y-118082069D01*
X149370414Y-118052833D01*
X149059562Y-117968100D01*
X148718424Y-118057432D01*
X148638154Y-118078326D01*
X148531908Y-118104998D01*
X148452180Y-118122772D01*
X148391048Y-118132822D01*
X148340592Y-118136323D01*
X148292892Y-118134449D01*
X148240027Y-118128375D01*
X148027292Y-118086095D01*
X147792424Y-118012338D01*
X147557019Y-117913100D01*
X147331902Y-117792973D01*
X147127899Y-117656550D01*
X147055199Y-117599069D01*
X146894513Y-117455631D01*
X146734447Y-117292882D01*
X146586587Y-117122982D01*
X146462516Y-116958092D01*
X146435473Y-116916982D01*
X146426839Y-116903041D01*
X147606876Y-116903041D01*
X147633596Y-116958763D01*
X147692594Y-117015598D01*
X147780346Y-117068919D01*
X147865738Y-117106238D01*
X147981709Y-117143336D01*
X148118165Y-117173104D01*
X148281798Y-117196955D01*
X148479295Y-117216297D01*
X148570024Y-117222317D01*
X148711191Y-117228372D01*
X148867105Y-117232235D01*
X149026699Y-117233817D01*
X149178906Y-117233027D01*
X149312660Y-117229774D01*
X149416894Y-117223968D01*
X149534032Y-117213358D01*
X149760542Y-117186421D01*
X149947575Y-117154285D01*
X150094838Y-117117004D01*
X150202035Y-117074636D01*
X150224503Y-117062129D01*
X150295766Y-117007882D01*
X150344484Y-116947020D01*
X150362530Y-116888950D01*
X150362395Y-116874895D01*
X150358985Y-116854055D01*
X150346227Y-116838732D01*
X150317926Y-116826756D01*
X150267889Y-116815958D01*
X150189919Y-116804166D01*
X150077823Y-116789212D01*
X150046118Y-116785334D01*
X149922515Y-116774105D01*
X149775074Y-116765458D01*
X149608096Y-116759281D01*
X149425880Y-116755464D01*
X149232727Y-116753893D01*
X149032936Y-116754459D01*
X148830808Y-116757049D01*
X148630642Y-116761552D01*
X148436738Y-116767857D01*
X148253397Y-116775851D01*
X148084918Y-116785424D01*
X147935602Y-116796463D01*
X147809748Y-116808858D01*
X147711656Y-116822497D01*
X147645627Y-116837268D01*
X147615960Y-116853059D01*
X147615960Y-116853061D01*
X147606876Y-116903041D01*
X146426839Y-116903041D01*
X146379683Y-116826895D01*
X146312185Y-116713295D01*
X146237438Y-116583842D01*
X146159901Y-116446196D01*
X146084034Y-116308015D01*
X145888132Y-115951748D01*
X145588641Y-115429500D01*
X145293175Y-114941562D01*
X145002117Y-114488387D01*
X144715851Y-114070430D01*
X144434760Y-113688142D01*
X144159226Y-113341978D01*
X143889631Y-113032390D01*
X143626359Y-112759831D01*
X143369793Y-112524756D01*
X143120316Y-112327616D01*
X142878309Y-112168865D01*
X142644157Y-112048957D01*
X142418241Y-111968344D01*
X142367465Y-111955287D01*
X142275779Y-111938259D01*
X142180816Y-111931528D01*
X142064151Y-111933268D01*
X142027874Y-111934710D01*
X141950396Y-111937139D01*
X141904999Y-111936143D01*
X141885362Y-111930451D01*
X141885164Y-111918794D01*
X141898084Y-111899901D01*
X141905874Y-111890146D01*
X141965440Y-111830378D01*
X142046008Y-111764621D01*
X142134504Y-111702882D01*
X142217855Y-111655166D01*
X142274554Y-111629373D01*
X142470963Y-111568269D01*
X142675513Y-111546957D01*
X142888038Y-111565427D01*
X143108372Y-111623670D01*
X143336349Y-111721675D01*
X143394462Y-111752978D01*
X143570485Y-111866048D01*
X143755388Y-112008747D01*
X143943843Y-112175330D01*
X144130523Y-112360052D01*
X144310102Y-112557170D01*
X144477251Y-112760940D01*
X144626643Y-112965617D01*
X144752952Y-113165457D01*
X144850850Y-113354716D01*
X144983450Y-113636270D01*
X145185426Y-114026083D01*
X145402857Y-114405951D01*
X145627266Y-114760524D01*
X145822122Y-115036866D01*
X146026413Y-115293321D01*
X146227899Y-115511875D01*
X146426122Y-115692196D01*
X146620624Y-115833951D01*
X146810944Y-115936810D01*
X146996625Y-116000439D01*
X147177208Y-116024506D01*
X147352234Y-116008681D01*
X147505540Y-115965505D01*
X147696392Y-115876204D01*
X147867782Y-115752984D01*
X148017339Y-115597998D01*
X148142690Y-115413399D01*
X148241466Y-115201340D01*
X148274128Y-115107833D01*
X148318137Y-114945233D01*
X148347714Y-114772783D01*
X148364360Y-114580621D01*
X148369576Y-114358881D01*
X148369576Y-114047910D01*
X148293315Y-114023187D01*
X148240121Y-114004458D01*
X148069705Y-113927792D01*
X147893455Y-113826477D01*
X147723284Y-113707835D01*
X147571104Y-113579191D01*
X147513295Y-113522485D01*
X147372740Y-113358410D01*
X147264712Y-113184736D01*
X147186410Y-112995205D01*
X147147936Y-112836702D01*
X148857646Y-112836702D01*
X148866724Y-112862504D01*
X148913606Y-112898031D01*
X148999699Y-112929709D01*
X149124206Y-112957178D01*
X149153876Y-112962360D01*
X149228809Y-112975064D01*
X149284307Y-112983913D01*
X149310070Y-112987242D01*
X149320250Y-112991606D01*
X149354939Y-113016353D01*
X149401583Y-113055675D01*
X149424140Y-113074987D01*
X149487565Y-113122876D01*
X149543645Y-113157697D01*
X149630826Y-113188987D01*
X149754705Y-113201392D01*
X149881171Y-113182865D01*
X149953498Y-113158302D01*
X150006659Y-113123471D01*
X150034051Y-113073291D01*
X150043674Y-112998692D01*
X150044058Y-112986989D01*
X150041054Y-112927604D01*
X150022919Y-112886397D01*
X149982022Y-112844251D01*
X149948109Y-112817369D01*
X149877387Y-112779786D01*
X149788629Y-112755200D01*
X149674548Y-112741909D01*
X149527856Y-112738211D01*
X149453438Y-112739739D01*
X149337298Y-112746251D01*
X149219854Y-112756921D01*
X149108094Y-112770722D01*
X149009005Y-112786627D01*
X148929576Y-112803611D01*
X148876793Y-112820644D01*
X148857646Y-112836702D01*
X147147936Y-112836702D01*
X147135036Y-112783559D01*
X147107789Y-112543538D01*
X147106511Y-112522632D01*
X147101414Y-112422021D01*
X147098751Y-112336523D01*
X147098703Y-112274620D01*
X147101449Y-112244798D01*
X147135127Y-112203968D01*
X147209949Y-112161312D01*
X147324498Y-112119722D01*
X147326588Y-112119092D01*
X147413856Y-112101631D01*
X147534849Y-112089771D01*
X147683215Y-112083450D01*
X147852600Y-112082603D01*
X148036650Y-112087166D01*
X148229012Y-112097076D01*
X148423333Y-112112268D01*
X148613260Y-112132679D01*
X148711155Y-112144618D01*
X148827846Y-112157651D01*
X148922001Y-112165662D01*
X149004175Y-112168993D01*
X149084923Y-112167981D01*
X149174799Y-112162969D01*
X149284357Y-112154295D01*
X149571796Y-112133987D01*
X149841848Y-112123326D01*
X150084795Y-112122808D01*
X150298551Y-112132280D01*
X150481033Y-112151590D01*
X150630155Y-112180583D01*
X150743834Y-112219107D01*
X150819985Y-112267009D01*
X150835752Y-112282577D01*
X150854744Y-112309742D01*
X150865339Y-112346223D01*
X150869937Y-112402466D01*
X150870937Y-112488917D01*
X150866042Y-112618384D01*
X150828050Y-112861355D01*
X150786427Y-112986989D01*
X150752811Y-113088453D01*
X150640754Y-113298942D01*
X150492312Y-113492090D01*
X150307914Y-113667161D01*
X150087991Y-113823422D01*
X150070591Y-113833992D01*
X149970381Y-113890430D01*
X149863016Y-113945205D01*
X149768939Y-113987786D01*
X149612578Y-114051738D01*
X149597871Y-114185517D01*
X149596135Y-114203365D01*
X149592057Y-114323921D01*
X149596819Y-114469149D01*
X149609228Y-114626574D01*
X149628088Y-114783719D01*
X149652206Y-114928108D01*
X149680385Y-115047264D01*
X149716493Y-115159614D01*
X149813189Y-115383373D01*
X149933550Y-115574240D01*
X150077842Y-115732531D01*
X150246328Y-115858560D01*
X150439273Y-115952643D01*
X150554866Y-115992727D01*
X150674291Y-116021261D01*
X150782428Y-116029516D01*
X150891273Y-116019259D01*
X150973536Y-116002163D01*
X151161540Y-115937423D01*
X151349909Y-115836201D01*
X151540705Y-115697277D01*
X151735988Y-115519430D01*
X151788659Y-115465957D01*
X151964816Y-115272522D01*
X152136148Y-115060507D01*
X152304968Y-114826400D01*
X152473590Y-114566690D01*
X152644327Y-114277863D01*
X152819494Y-113956409D01*
X153001405Y-113598815D01*
X153005418Y-113590689D01*
X153087621Y-113425794D01*
X153156794Y-113290995D01*
X153216725Y-113179723D01*
X153271201Y-113085409D01*
X153324008Y-113001485D01*
X153378936Y-112921382D01*
X153439770Y-112838532D01*
X153521742Y-112732953D01*
X153686397Y-112537287D01*
X153861145Y-112348363D01*
X154040012Y-112171943D01*
X154217030Y-112013789D01*
X154386228Y-111879660D01*
X154541634Y-111775320D01*
X154628309Y-111726469D01*
X154846184Y-111629298D01*
X155060730Y-111569630D01*
X155269683Y-111547379D01*
X155470779Y-111562459D01*
X155661751Y-111614785D01*
X155840337Y-111704270D01*
X156004270Y-111830829D01*
X156122813Y-111941168D01*
X155910169Y-111933297D01*
X155810080Y-111931184D01*
X155715276Y-111934899D01*
X155630830Y-111946824D01*
X155540496Y-111968506D01*
X155433338Y-112001904D01*
X155196082Y-112102692D01*
X154950454Y-112242543D01*
X154696922Y-112421054D01*
X154435952Y-112637822D01*
X154168010Y-112892444D01*
X153893563Y-113184519D01*
X153613077Y-113513642D01*
X153327019Y-113879411D01*
X153256717Y-113973992D01*
X153054535Y-114257400D01*
X152852647Y-114556318D01*
X152654950Y-114864259D01*
X152465339Y-115174736D01*
X152287713Y-115481261D01*
X152125968Y-115777346D01*
X151984000Y-116056505D01*
X151865706Y-116312249D01*
X151809955Y-116439525D01*
X151723026Y-116632562D01*
X151645568Y-116795637D01*
X151597655Y-116888950D01*
X151574568Y-116933912D01*
X151507015Y-117052546D01*
G37*
G36*
X165235861Y-112530958D02*
G01*
X165232662Y-112665595D01*
X165227308Y-112793519D01*
X165219265Y-112917801D01*
X165208000Y-113041516D01*
X165192981Y-113167737D01*
X165173672Y-113299536D01*
X165149543Y-113439987D01*
X165120058Y-113592164D01*
X165084685Y-113759139D01*
X165042891Y-113943987D01*
X164994142Y-114149779D01*
X164937905Y-114379589D01*
X164873647Y-114636491D01*
X164800835Y-114923558D01*
X164718934Y-115243864D01*
X164627413Y-115600480D01*
X164582473Y-115775595D01*
X164527971Y-115988192D01*
X164469698Y-116215692D01*
X164410886Y-116445467D01*
X164354768Y-116664888D01*
X164304579Y-116861329D01*
X164277199Y-116967522D01*
X164238328Y-117114632D01*
X164202714Y-117245188D01*
X164171670Y-117354608D01*
X164146504Y-117438307D01*
X164128528Y-117491702D01*
X164119052Y-117510209D01*
X164111624Y-117502817D01*
X164082461Y-117465859D01*
X164033631Y-117400529D01*
X163967299Y-117309832D01*
X163885632Y-117196769D01*
X163790795Y-117064344D01*
X163684953Y-116915561D01*
X163570273Y-116753422D01*
X163448919Y-116580930D01*
X163367531Y-116465052D01*
X163250792Y-116299242D01*
X163142428Y-116145792D01*
X163044571Y-116007699D01*
X162959356Y-115887957D01*
X162888915Y-115789564D01*
X162835384Y-115715514D01*
X162800895Y-115668803D01*
X162787581Y-115652426D01*
X162786384Y-115653076D01*
X162770794Y-115676382D01*
X162741813Y-115728170D01*
X162703098Y-115801711D01*
X162658308Y-115890272D01*
X162571627Y-116062083D01*
X162329551Y-116515892D01*
X162076376Y-116954816D01*
X161814174Y-117376067D01*
X161545021Y-117776858D01*
X161270989Y-118154405D01*
X160994153Y-118505920D01*
X160716587Y-118828617D01*
X160440363Y-119119711D01*
X160167556Y-119376414D01*
X159900240Y-119595940D01*
X159858236Y-119627079D01*
X159782317Y-119682014D01*
X159681437Y-119754103D01*
X159558368Y-119841414D01*
X159415885Y-119942020D01*
X159256761Y-120053989D01*
X159083772Y-120175394D01*
X158899689Y-120304303D01*
X158707288Y-120438789D01*
X158509343Y-120576920D01*
X158308626Y-120716768D01*
X158107913Y-120856403D01*
X157909977Y-120993896D01*
X157717592Y-121127316D01*
X157533531Y-121254735D01*
X157360569Y-121374223D01*
X157201480Y-121483851D01*
X157059037Y-121581688D01*
X156936015Y-121665805D01*
X156835187Y-121734273D01*
X156759327Y-121785163D01*
X156711209Y-121816544D01*
X156693608Y-121826487D01*
X156693551Y-121826422D01*
X156693025Y-121810903D01*
X156695965Y-121769309D01*
X156702524Y-121700344D01*
X156712853Y-121602708D01*
X156727103Y-121475106D01*
X156745426Y-121316238D01*
X156767972Y-121124808D01*
X156794894Y-120899518D01*
X156826343Y-120639071D01*
X156862469Y-120342169D01*
X156903425Y-120007514D01*
X156949361Y-119633810D01*
X156983590Y-119355850D01*
X156931947Y-119393090D01*
X156914149Y-119406782D01*
X156855104Y-119457047D01*
X156769358Y-119534285D01*
X156658260Y-119637205D01*
X156523157Y-119764521D01*
X156365396Y-119914944D01*
X156186326Y-120087185D01*
X155987294Y-120279955D01*
X155769649Y-120491967D01*
X155534737Y-120721932D01*
X155283907Y-120968561D01*
X154951549Y-121295812D01*
X154616237Y-121625472D01*
X154308918Y-121927044D01*
X154029209Y-122200898D01*
X153776730Y-122447403D01*
X153551099Y-122666928D01*
X153351934Y-122859843D01*
X153178854Y-123026517D01*
X153031478Y-123167321D01*
X152909423Y-123282622D01*
X152812309Y-123372791D01*
X152739753Y-123438196D01*
X152691375Y-123479209D01*
X152625553Y-123530134D01*
X152332493Y-123728513D01*
X152007584Y-123907083D01*
X151654404Y-124064669D01*
X151276534Y-124200097D01*
X150877554Y-124312193D01*
X150461043Y-124399781D01*
X150030583Y-124461688D01*
X149589752Y-124496739D01*
X149555993Y-124498246D01*
X149386638Y-124503413D01*
X149195214Y-124506041D01*
X148990677Y-124506256D01*
X148781988Y-124504185D01*
X148578104Y-124499953D01*
X148387984Y-124493686D01*
X148220586Y-124485511D01*
X148084868Y-124475554D01*
X147849722Y-124449761D01*
X147410555Y-124379234D01*
X146987447Y-124281809D01*
X146584178Y-124158714D01*
X146204534Y-124011174D01*
X145852295Y-123840415D01*
X145531246Y-123647665D01*
X145490658Y-123620379D01*
X145446693Y-123590157D01*
X145403507Y-123559310D01*
X145359350Y-123526195D01*
X145312468Y-123489174D01*
X145261110Y-123446606D01*
X145203524Y-123396850D01*
X145137957Y-123338267D01*
X145062658Y-123269215D01*
X144975874Y-123188055D01*
X144875853Y-123093147D01*
X144760842Y-122982849D01*
X144629091Y-122855523D01*
X144478846Y-122709527D01*
X144308355Y-122543221D01*
X144115866Y-122354966D01*
X143899628Y-122143120D01*
X143657888Y-121906043D01*
X143388893Y-121642096D01*
X143250766Y-121506563D01*
X142950019Y-121211643D01*
X142676458Y-120943682D01*
X142428872Y-120701530D01*
X142206050Y-120484041D01*
X142006781Y-120290067D01*
X141829854Y-120118458D01*
X141674058Y-119968069D01*
X141538181Y-119837750D01*
X141421014Y-119726354D01*
X141321343Y-119632733D01*
X141237960Y-119555739D01*
X141169652Y-119494224D01*
X141115208Y-119447040D01*
X141073417Y-119413039D01*
X141043069Y-119391073D01*
X141022952Y-119379995D01*
X141011855Y-119378657D01*
X141008566Y-119385909D01*
X141010855Y-119410050D01*
X141017704Y-119471427D01*
X141028678Y-119566078D01*
X141043342Y-119690359D01*
X141061263Y-119840624D01*
X141082004Y-120013228D01*
X141105131Y-120204525D01*
X141130210Y-120410872D01*
X141156805Y-120628622D01*
X141182503Y-120840439D01*
X141206808Y-121044648D01*
X141228751Y-121232971D01*
X141247945Y-121401913D01*
X141264009Y-121547978D01*
X141276556Y-121667670D01*
X141285204Y-121757493D01*
X141289567Y-121813950D01*
X141289261Y-121833546D01*
X141284431Y-121830931D01*
X141251056Y-121809112D01*
X141188497Y-121766776D01*
X141099531Y-121705860D01*
X140986935Y-121628303D01*
X140853483Y-121536045D01*
X140701952Y-121431023D01*
X140535119Y-121315176D01*
X140355759Y-121190443D01*
X140166648Y-121058763D01*
X139970563Y-120922074D01*
X139770279Y-120782315D01*
X139568573Y-120641424D01*
X139368220Y-120501340D01*
X139171998Y-120364001D01*
X138982681Y-120231347D01*
X138803047Y-120105316D01*
X138635870Y-119987847D01*
X138483928Y-119880878D01*
X138349996Y-119786347D01*
X138236850Y-119706194D01*
X138147267Y-119642358D01*
X138084022Y-119596776D01*
X138049892Y-119571387D01*
X137925410Y-119470532D01*
X137607643Y-119184850D01*
X137291438Y-118859773D01*
X136976658Y-118495116D01*
X136663167Y-118090700D01*
X136350828Y-117646343D01*
X136039504Y-117161862D01*
X135729059Y-116637077D01*
X135419357Y-116071805D01*
X135195625Y-115648334D01*
X135054558Y-115848106D01*
X135037416Y-115872401D01*
X134985282Y-115946390D01*
X134914623Y-116046761D01*
X134828742Y-116168818D01*
X134730943Y-116307865D01*
X134624528Y-116459206D01*
X134512801Y-116618144D01*
X134399065Y-116779984D01*
X134323588Y-116887376D01*
X134220951Y-117033339D01*
X134127264Y-117166484D01*
X134044933Y-117283402D01*
X133976359Y-117380680D01*
X133923948Y-117454907D01*
X133890103Y-117502672D01*
X133877227Y-117520563D01*
X133874811Y-117523487D01*
X133871021Y-117527407D01*
X133866994Y-117527825D01*
X133862026Y-117522176D01*
X133855413Y-117507897D01*
X133846451Y-117482422D01*
X133834434Y-117443188D01*
X133818659Y-117387632D01*
X133798421Y-117313189D01*
X133773015Y-117217295D01*
X133741738Y-117097386D01*
X133703884Y-116950898D01*
X133658750Y-116775267D01*
X133605630Y-116567930D01*
X133543820Y-116326321D01*
X133472617Y-116047878D01*
X133451191Y-115964101D01*
X133395156Y-115745064D01*
X133334630Y-115508546D01*
X133272527Y-115265924D01*
X133211759Y-115028575D01*
X133155238Y-114807878D01*
X133105877Y-114615208D01*
X133047103Y-114383584D01*
X132981053Y-114115123D01*
X132925193Y-113875786D01*
X132878627Y-113660049D01*
X132840457Y-113462388D01*
X132809786Y-113277278D01*
X132785718Y-113099197D01*
X132767355Y-112922620D01*
X132753801Y-112742023D01*
X132744159Y-112551884D01*
X132737531Y-112346677D01*
X132735906Y-112270447D01*
X132737160Y-112112810D01*
X133434836Y-112112810D01*
X133435933Y-112327782D01*
X133441355Y-112569801D01*
X133452317Y-112790066D01*
X133469930Y-112997174D01*
X133495309Y-113199723D01*
X133529565Y-113406310D01*
X133573811Y-113625531D01*
X133629160Y-113865985D01*
X133696725Y-114136269D01*
X133725994Y-114250311D01*
X133763974Y-114398588D01*
X133807182Y-114567501D01*
X133853171Y-114747469D01*
X133899488Y-114928909D01*
X133943686Y-115102241D01*
X133983551Y-115258438D01*
X134029897Y-115439094D01*
X134067820Y-115585483D01*
X134098136Y-115700605D01*
X134121663Y-115787456D01*
X134139215Y-115849035D01*
X134151609Y-115888340D01*
X134159661Y-115908367D01*
X134164188Y-115912116D01*
X134174716Y-115897476D01*
X134206525Y-115852580D01*
X134257266Y-115780723D01*
X134324611Y-115685213D01*
X134406231Y-115569354D01*
X134499794Y-115436452D01*
X134602972Y-115289814D01*
X134713434Y-115132746D01*
X134811942Y-114992810D01*
X134917626Y-114843070D01*
X135014644Y-114706016D01*
X135100551Y-114585084D01*
X135172898Y-114483711D01*
X135229239Y-114405334D01*
X135267127Y-114353387D01*
X135284115Y-114331309D01*
X135287668Y-114328645D01*
X135298861Y-114330297D01*
X135314929Y-114346246D01*
X135337663Y-114379701D01*
X135368855Y-114433870D01*
X135410299Y-114511960D01*
X135463786Y-114617178D01*
X135531109Y-114752735D01*
X135614059Y-114921836D01*
X135620328Y-114934658D01*
X135794867Y-115287693D01*
X135957596Y-115608389D01*
X136111473Y-115902081D01*
X136259458Y-116174102D01*
X136404511Y-116429785D01*
X136549592Y-116674464D01*
X136697660Y-116913471D01*
X136851674Y-117152142D01*
X136993980Y-117364589D01*
X137240537Y-117712242D01*
X137483053Y-118026510D01*
X137725119Y-118311310D01*
X137970326Y-118570557D01*
X138222263Y-118808166D01*
X138484520Y-119028053D01*
X138760689Y-119234134D01*
X138918302Y-119345094D01*
X139094970Y-119469092D01*
X139272800Y-119593549D01*
X139448662Y-119716301D01*
X139619424Y-119835178D01*
X139781955Y-119948015D01*
X139933123Y-120052644D01*
X140069796Y-120146899D01*
X140188844Y-120228611D01*
X140287134Y-120295614D01*
X140361536Y-120345741D01*
X140408918Y-120376825D01*
X140426148Y-120386698D01*
X140425224Y-120365587D01*
X140419803Y-120309414D01*
X140410474Y-120223509D01*
X140397833Y-120113190D01*
X140382476Y-119983778D01*
X140364998Y-119840592D01*
X140325856Y-119523732D01*
X140289366Y-119227437D01*
X140257493Y-118967493D01*
X140229997Y-118741848D01*
X140206638Y-118548447D01*
X140187176Y-118385239D01*
X140171370Y-118250169D01*
X140158982Y-118141186D01*
X140149769Y-118056236D01*
X140143493Y-117993266D01*
X140139914Y-117950223D01*
X140138790Y-117925055D01*
X140139883Y-117915708D01*
X140140205Y-117915491D01*
X140162133Y-117923894D01*
X140212359Y-117952697D01*
X140286375Y-117998826D01*
X140379674Y-118059206D01*
X140487749Y-118130764D01*
X140606092Y-118210424D01*
X140730196Y-118295112D01*
X140855554Y-118381753D01*
X140977659Y-118467273D01*
X141092002Y-118548597D01*
X141194078Y-118622651D01*
X141279378Y-118686360D01*
X141343395Y-118736650D01*
X141397246Y-118781267D01*
X141505916Y-118873829D01*
X141623750Y-118977525D01*
X141753147Y-119094609D01*
X141896508Y-119227331D01*
X142056231Y-119377946D01*
X142234715Y-119548706D01*
X142434361Y-119741863D01*
X142657567Y-119959670D01*
X142906733Y-120204379D01*
X143126364Y-120420535D01*
X143367136Y-120657261D01*
X143605573Y-120891456D01*
X143839625Y-121121118D01*
X144067245Y-121344247D01*
X144286383Y-121558841D01*
X144494991Y-121762897D01*
X144691020Y-121954416D01*
X144872422Y-122131395D01*
X145037147Y-122291833D01*
X145183147Y-122433728D01*
X145308373Y-122555080D01*
X145410777Y-122653886D01*
X145488310Y-122728145D01*
X145538924Y-122775856D01*
X145636873Y-122863225D01*
X145891263Y-123059777D01*
X146163091Y-123226841D01*
X146303927Y-123299871D01*
X146661798Y-123455377D01*
X147049067Y-123583655D01*
X147465997Y-123684774D01*
X147912857Y-123758805D01*
X148389912Y-123805815D01*
X148553814Y-123815070D01*
X148902597Y-123823893D01*
X149261783Y-123819814D01*
X149614940Y-123803166D01*
X149945637Y-123774282D01*
X150009246Y-123766934D01*
X150452825Y-123698830D01*
X150866385Y-123604397D01*
X151251090Y-123483277D01*
X151608104Y-123335110D01*
X151938591Y-123159538D01*
X152004987Y-123118757D01*
X152108920Y-123049341D01*
X152213837Y-122971456D01*
X152324986Y-122880749D01*
X152447612Y-122772871D01*
X152586964Y-122643471D01*
X152748287Y-122488198D01*
X153042645Y-122201142D01*
X153316976Y-121933302D01*
X153572048Y-121683901D01*
X153812899Y-121448000D01*
X154044565Y-121220661D01*
X154272084Y-120996947D01*
X154500493Y-120771917D01*
X154734828Y-120540636D01*
X154861439Y-120415685D01*
X155141189Y-120140527D01*
X155394888Y-119892439D01*
X155624126Y-119669927D01*
X155830496Y-119471496D01*
X156015589Y-119295652D01*
X156180997Y-119140902D01*
X156328311Y-119005750D01*
X156459122Y-118888703D01*
X156575022Y-118788266D01*
X156677603Y-118702945D01*
X156768455Y-118631246D01*
X156793452Y-118612625D01*
X156856435Y-118567457D01*
X156940225Y-118508716D01*
X157039887Y-118439737D01*
X157150489Y-118363856D01*
X157267098Y-118284409D01*
X157384778Y-118204732D01*
X157498598Y-118128161D01*
X157603624Y-118058032D01*
X157694922Y-117997679D01*
X157767558Y-117950441D01*
X157816600Y-117919651D01*
X157837114Y-117908646D01*
X157839758Y-117909741D01*
X157843758Y-117922126D01*
X157844454Y-117951430D01*
X157841504Y-118001552D01*
X157834567Y-118076393D01*
X157823303Y-118179853D01*
X157807369Y-118315832D01*
X157786425Y-118488230D01*
X157760272Y-118701371D01*
X157723168Y-119004329D01*
X157690692Y-119270369D01*
X157662595Y-119501596D01*
X157638630Y-119700113D01*
X157618550Y-119868022D01*
X157602108Y-120007428D01*
X157589056Y-120120434D01*
X157579147Y-120209144D01*
X157572133Y-120275660D01*
X157567768Y-120322085D01*
X157565805Y-120350525D01*
X157565994Y-120363081D01*
X157576514Y-120359652D01*
X157616912Y-120336125D01*
X157684351Y-120293293D01*
X157775385Y-120233544D01*
X157886567Y-120159262D01*
X158014450Y-120072834D01*
X158155587Y-119976646D01*
X158306534Y-119873085D01*
X158463842Y-119764535D01*
X158624066Y-119653383D01*
X158783758Y-119542016D01*
X158939473Y-119432819D01*
X159087764Y-119328178D01*
X159225185Y-119230480D01*
X159348288Y-119142110D01*
X159453628Y-119065455D01*
X159537758Y-119002899D01*
X159597232Y-118956831D01*
X159672652Y-118893136D01*
X159788393Y-118787893D01*
X159916753Y-118664625D01*
X160050221Y-118530892D01*
X160181287Y-118394256D01*
X160302440Y-118262276D01*
X160406170Y-118142514D01*
X160489064Y-118041581D01*
X160692539Y-117781759D01*
X160893245Y-117507485D01*
X161092801Y-117216040D01*
X161292826Y-116904706D01*
X161494936Y-116570762D01*
X161700751Y-116211490D01*
X161911888Y-115824171D01*
X162129966Y-115406084D01*
X162356602Y-114954511D01*
X162593414Y-114466733D01*
X162607769Y-114437252D01*
X162641690Y-114371873D01*
X162668245Y-114326632D01*
X162682644Y-114309947D01*
X162682801Y-114309991D01*
X162697870Y-114327798D01*
X162733715Y-114375632D01*
X162788026Y-114450261D01*
X162858494Y-114548450D01*
X162942808Y-114666965D01*
X163038658Y-114802574D01*
X163143733Y-114952042D01*
X163255725Y-115112135D01*
X163261072Y-115119797D01*
X163372769Y-115279467D01*
X163477410Y-115428373D01*
X163572688Y-115563278D01*
X163656296Y-115680948D01*
X163725930Y-115778150D01*
X163779282Y-115851648D01*
X163814046Y-115898209D01*
X163827916Y-115914598D01*
X163839382Y-115899898D01*
X163850108Y-115859767D01*
X163856073Y-115832385D01*
X163871683Y-115767396D01*
X163895886Y-115669476D01*
X163927816Y-115542028D01*
X163966609Y-115388457D01*
X164011399Y-115212166D01*
X164061321Y-115016561D01*
X164115510Y-114805045D01*
X164173101Y-114581022D01*
X164233228Y-114347898D01*
X164295027Y-114109075D01*
X164312708Y-114040369D01*
X164361819Y-113841911D01*
X164402208Y-113663504D01*
X164436778Y-113490961D01*
X164468430Y-113310095D01*
X164500068Y-113106717D01*
X164509423Y-113042080D01*
X164520468Y-112957432D01*
X164529080Y-112875939D01*
X164535539Y-112791341D01*
X164540130Y-112697376D01*
X164543136Y-112587785D01*
X164544839Y-112456306D01*
X164545523Y-112296678D01*
X164545471Y-112102642D01*
X164545446Y-112086720D01*
X164544746Y-111888810D01*
X164543198Y-111724378D01*
X164540504Y-111586721D01*
X164536367Y-111469138D01*
X164530489Y-111364926D01*
X164522573Y-111267383D01*
X164512321Y-111169805D01*
X164499436Y-111065492D01*
X164486526Y-110968482D01*
X164416626Y-110507858D01*
X164333670Y-110062192D01*
X164235024Y-109619463D01*
X164118054Y-109167648D01*
X163980128Y-108694723D01*
X163959678Y-108628247D01*
X163920010Y-108501306D01*
X163879839Y-108375836D01*
X163837890Y-108248248D01*
X163792891Y-108114955D01*
X163743567Y-107972368D01*
X163688646Y-107816900D01*
X163626854Y-107644964D01*
X163556919Y-107452970D01*
X163477567Y-107237332D01*
X163387524Y-106994461D01*
X163285518Y-106720769D01*
X163170274Y-106412669D01*
X163140291Y-106330684D01*
X163115075Y-106257631D01*
X163099333Y-106206986D01*
X163095630Y-106186526D01*
X163101533Y-106188066D01*
X163138297Y-106203627D01*
X163204806Y-106234002D01*
X163296641Y-106277106D01*
X163409382Y-106330857D01*
X163538611Y-106393172D01*
X163679909Y-106461966D01*
X163754921Y-106498629D01*
X163890410Y-106564718D01*
X164011436Y-106623579D01*
X164113586Y-106673076D01*
X164192450Y-106711074D01*
X164243616Y-106735439D01*
X164262674Y-106744035D01*
X164263208Y-106743678D01*
X164261378Y-106722274D01*
X164251180Y-106677942D01*
X164248145Y-106666349D01*
X164240278Y-106634994D01*
X164230142Y-106592731D01*
X164216801Y-106535447D01*
X164199316Y-106459029D01*
X164176749Y-106359363D01*
X164148161Y-106232336D01*
X164112616Y-106073834D01*
X164069176Y-105879743D01*
X164048022Y-105785344D01*
X164018103Y-105652324D01*
X163989734Y-105526726D01*
X163965349Y-105419309D01*
X163947378Y-105340832D01*
X163935075Y-105287452D01*
X163911992Y-105187044D01*
X163884095Y-105065493D01*
X163853848Y-104933539D01*
X163823716Y-104801921D01*
X163793977Y-104674363D01*
X163605344Y-103956205D01*
X163384857Y-103254661D01*
X163133569Y-102572237D01*
X162852534Y-101911442D01*
X162542806Y-101274783D01*
X162205438Y-100664769D01*
X161841484Y-100083907D01*
X161702469Y-99879597D01*
X161522011Y-99628986D01*
X161346310Y-99403278D01*
X161169500Y-99195020D01*
X160985714Y-98996758D01*
X160950439Y-98960185D01*
X160869010Y-98874445D01*
X160810720Y-98809793D01*
X160771357Y-98760637D01*
X160746706Y-98721383D01*
X160732555Y-98686435D01*
X160724689Y-98650200D01*
X160626417Y-98085639D01*
X160467727Y-97338350D01*
X160279914Y-96610604D01*
X160063605Y-95903724D01*
X159819430Y-95219029D01*
X159548018Y-94557842D01*
X159249999Y-93921483D01*
X158926000Y-93311274D01*
X158576653Y-92728536D01*
X158202585Y-92174591D01*
X157804426Y-91650758D01*
X157382804Y-91158360D01*
X156938350Y-90698719D01*
X156782688Y-90549197D01*
X156632118Y-90409372D01*
X156490321Y-90283912D01*
X156347716Y-90164587D01*
X156194724Y-90043171D01*
X156021765Y-89911434D01*
X155973336Y-89875957D01*
X155880307Y-89810806D01*
X155772907Y-89738319D01*
X155656480Y-89661840D01*
X155536367Y-89584711D01*
X155417911Y-89510276D01*
X155306456Y-89441877D01*
X155207343Y-89382859D01*
X155125915Y-89336564D01*
X155067515Y-89306335D01*
X155037485Y-89295516D01*
X155017696Y-89301277D01*
X154965679Y-89324022D01*
X154889874Y-89360815D01*
X154796782Y-89408194D01*
X154692901Y-89462695D01*
X154584730Y-89520857D01*
X154478770Y-89579217D01*
X154381520Y-89634311D01*
X154299478Y-89682678D01*
X154239144Y-89720854D01*
X154175135Y-89765110D01*
X153888862Y-89990737D01*
X153617046Y-90252017D01*
X153359556Y-90549211D01*
X153116261Y-90882582D01*
X152887030Y-91252390D01*
X152671734Y-91658898D01*
X152470242Y-92102367D01*
X152282423Y-92583059D01*
X152108147Y-93101237D01*
X151947283Y-93657161D01*
X151799700Y-94251094D01*
X151665269Y-94883297D01*
X151644469Y-94988179D01*
X151618756Y-95114799D01*
X151595965Y-95223655D01*
X151577284Y-95309204D01*
X151563902Y-95365901D01*
X151557009Y-95388200D01*
X151548458Y-95390296D01*
X151506699Y-95390302D01*
X151439287Y-95385751D01*
X151355732Y-95377165D01*
X151323851Y-95373513D01*
X151211123Y-95362219D01*
X151087408Y-95352366D01*
X150949738Y-95343877D01*
X150795145Y-95336674D01*
X150620660Y-95330682D01*
X150423317Y-95325823D01*
X150200146Y-95322020D01*
X149948180Y-95319195D01*
X149664451Y-95317273D01*
X149345991Y-95316177D01*
X148989832Y-95315828D01*
X148879670Y-95315858D01*
X148535046Y-95316422D01*
X148227238Y-95317756D01*
X147953276Y-95319938D01*
X147710194Y-95323046D01*
X147495024Y-95327156D01*
X147304797Y-95332344D01*
X147136545Y-95338689D01*
X146987301Y-95346266D01*
X146854096Y-95355153D01*
X146733963Y-95365427D01*
X146623933Y-95377165D01*
X146576872Y-95382430D01*
X146501699Y-95389484D01*
X146448236Y-95392677D01*
X146425797Y-95391342D01*
X146420953Y-95377445D01*
X146409429Y-95330481D01*
X146393804Y-95258833D01*
X146376033Y-95171146D01*
X146358746Y-95082934D01*
X146333680Y-94954995D01*
X146307178Y-94819697D01*
X146282716Y-94694795D01*
X146268619Y-94625043D01*
X146241013Y-94495146D01*
X146208493Y-94347845D01*
X146174008Y-94196433D01*
X146140511Y-94054203D01*
X146012667Y-93558187D01*
X145849995Y-93013023D01*
X145672575Y-92502649D01*
X145480646Y-92027498D01*
X145274445Y-91588000D01*
X145054209Y-91184586D01*
X144820178Y-90817687D01*
X144572588Y-90487734D01*
X144311677Y-90195157D01*
X144037683Y-89940388D01*
X143750844Y-89723857D01*
X143708169Y-89696459D01*
X143628811Y-89648943D01*
X143532891Y-89594155D01*
X143426892Y-89535529D01*
X143317297Y-89476501D01*
X143210590Y-89420505D01*
X143113251Y-89370973D01*
X143031765Y-89331342D01*
X142972614Y-89305045D01*
X142942280Y-89295516D01*
X142925143Y-89301550D01*
X142876635Y-89326520D01*
X142803952Y-89367658D01*
X142712734Y-89421500D01*
X142608622Y-89484583D01*
X142497259Y-89553445D01*
X142384285Y-89624622D01*
X142275343Y-89694650D01*
X142176073Y-89760067D01*
X142092118Y-89817410D01*
X141854929Y-89993063D01*
X141596355Y-90202781D01*
X141331108Y-90434614D01*
X141066243Y-90681966D01*
X140808818Y-90938239D01*
X140565890Y-91196836D01*
X140344513Y-91451161D01*
X140083643Y-91775120D01*
X139665354Y-92345059D01*
X139277618Y-92940714D01*
X138920263Y-93562432D01*
X138593121Y-94210561D01*
X138296019Y-94885448D01*
X138028786Y-95587442D01*
X137791253Y-96316890D01*
X137583249Y-97074139D01*
X137569699Y-97128500D01*
X137517254Y-97345564D01*
X137468614Y-97559166D01*
X137421958Y-97778064D01*
X137375468Y-98011016D01*
X137327323Y-98266779D01*
X137275703Y-98554111D01*
X137240651Y-98752897D01*
X137004193Y-98991632D01*
X136942951Y-99054726D01*
X136720483Y-99303993D01*
X136493767Y-99587852D01*
X136265420Y-99902111D01*
X136038055Y-100242580D01*
X135814287Y-100605068D01*
X135596734Y-100985383D01*
X135388008Y-101379336D01*
X135190726Y-101782734D01*
X135007502Y-102191388D01*
X134890931Y-102470508D01*
X134733188Y-102874063D01*
X134589779Y-103275918D01*
X134458019Y-103684546D01*
X134335221Y-104108418D01*
X134218700Y-104556008D01*
X134105769Y-105035788D01*
X134092037Y-105096866D01*
X134058997Y-105243560D01*
X134022265Y-105406366D01*
X133985412Y-105569470D01*
X133952007Y-105717053D01*
X133930000Y-105814196D01*
X133881506Y-106028569D01*
X133841145Y-106207588D01*
X133808252Y-106354315D01*
X133782163Y-106471811D01*
X133762215Y-106563136D01*
X133747744Y-106631353D01*
X133738085Y-106679522D01*
X133732574Y-106710705D01*
X133730548Y-106727963D01*
X133731342Y-106734357D01*
X133736427Y-106733170D01*
X133771801Y-106718318D01*
X133837016Y-106688498D01*
X133927634Y-106645809D01*
X134039219Y-106592355D01*
X134167331Y-106530234D01*
X134307533Y-106461550D01*
X134377314Y-106427331D01*
X134511985Y-106362075D01*
X134632355Y-106304783D01*
X134734005Y-106257493D01*
X134812518Y-106222247D01*
X134863476Y-106201085D01*
X134882460Y-106196046D01*
X134881182Y-106203624D01*
X134868626Y-106244396D01*
X134844260Y-106316019D01*
X134809736Y-106413840D01*
X134766706Y-106533206D01*
X134716822Y-106669462D01*
X134661734Y-106817956D01*
X134585353Y-107023346D01*
X134442050Y-107413920D01*
X134313269Y-107773107D01*
X134197839Y-108104850D01*
X134094590Y-108413093D01*
X134002351Y-108701778D01*
X133919949Y-108974850D01*
X133846216Y-109236253D01*
X133779979Y-109489929D01*
X133720068Y-109739823D01*
X133665311Y-109989877D01*
X133614538Y-110244037D01*
X133566578Y-110506245D01*
X133554682Y-110575101D01*
X133514501Y-110829946D01*
X133483589Y-111070890D01*
X133461058Y-111308792D01*
X133446015Y-111554507D01*
X133437571Y-111818894D01*
X133434836Y-112112810D01*
X132737160Y-112112810D01*
X132739808Y-111779985D01*
X132768863Y-111283303D01*
X132823632Y-110777224D01*
X132904671Y-110258572D01*
X133012539Y-109724171D01*
X133147796Y-109170846D01*
X133310998Y-108595419D01*
X133502706Y-107994715D01*
X133522394Y-107935995D01*
X133561973Y-107817693D01*
X133595976Y-107715710D01*
X133622555Y-107635604D01*
X133639864Y-107582933D01*
X133646056Y-107563256D01*
X133635363Y-107567602D01*
X133592963Y-107587481D01*
X133522865Y-107621230D01*
X133429970Y-107666472D01*
X133319177Y-107720830D01*
X133195386Y-107781927D01*
X133098364Y-107829678D01*
X132983368Y-107885526D01*
X132884739Y-107932574D01*
X132807479Y-107968472D01*
X132756589Y-107990867D01*
X132737069Y-107997410D01*
X132736593Y-107996917D01*
X132735277Y-107994456D01*
X132734881Y-107988956D01*
X132735945Y-107977977D01*
X132739004Y-107959076D01*
X132744597Y-107929811D01*
X132753260Y-107887740D01*
X132765532Y-107830422D01*
X132781950Y-107755413D01*
X132803051Y-107660272D01*
X132829372Y-107542557D01*
X132861452Y-107399826D01*
X132899826Y-107229637D01*
X132945034Y-107029548D01*
X132997612Y-106797117D01*
X133058098Y-106529902D01*
X133127029Y-106225460D01*
X133138478Y-106174898D01*
X133219328Y-105818138D01*
X133292122Y-105497759D01*
X133357611Y-105210845D01*
X133416549Y-104954484D01*
X133469688Y-104725758D01*
X133517782Y-104521756D01*
X133561583Y-104339561D01*
X133601845Y-104176259D01*
X133639320Y-104028935D01*
X133674760Y-103894676D01*
X133708919Y-103770566D01*
X133742550Y-103653690D01*
X133776406Y-103541135D01*
X133811239Y-103429986D01*
X133847802Y-103317327D01*
X133886849Y-103200245D01*
X133929131Y-103075825D01*
X133975402Y-102941153D01*
X134060914Y-102700579D01*
X134245591Y-102223289D01*
X134448337Y-101749350D01*
X134666816Y-101282895D01*
X134898694Y-100828061D01*
X135141636Y-100388982D01*
X135393308Y-99969794D01*
X135651376Y-99574631D01*
X135913504Y-99207629D01*
X136177359Y-98872923D01*
X136440605Y-98574647D01*
X136596655Y-98408766D01*
X136657555Y-98078425D01*
X136724057Y-97735819D01*
X136889505Y-97001082D01*
X137082942Y-96280926D01*
X137303066Y-95579343D01*
X137548572Y-94900325D01*
X137818160Y-94247863D01*
X138110525Y-93625950D01*
X138428937Y-93026481D01*
X138771913Y-92449482D01*
X139137132Y-91898386D01*
X139523056Y-91375068D01*
X139928149Y-90881401D01*
X140350872Y-90419259D01*
X140789688Y-89990514D01*
X141243059Y-89597042D01*
X141709448Y-89240715D01*
X141711659Y-89239139D01*
X141795223Y-89182043D01*
X141907188Y-89108999D01*
X142040878Y-89024129D01*
X142189617Y-88931553D01*
X142346730Y-88835392D01*
X142505540Y-88739767D01*
X142659372Y-88648799D01*
X142801549Y-88566608D01*
X142917510Y-88500531D01*
X143402682Y-88744420D01*
X143496074Y-88791737D01*
X143731126Y-88914921D01*
X143932770Y-89027455D01*
X144104631Y-89131497D01*
X144250332Y-89229208D01*
X144373499Y-89322745D01*
X144497526Y-89426915D01*
X144779199Y-89689603D01*
X145041232Y-89973743D01*
X145286490Y-90283112D01*
X145517835Y-90621481D01*
X145738134Y-90992626D01*
X145950249Y-91400320D01*
X145995031Y-91493202D01*
X146215377Y-91993045D01*
X146417411Y-92526830D01*
X146601365Y-93095265D01*
X146767472Y-93699056D01*
X146915964Y-94338911D01*
X146918142Y-94349156D01*
X146939142Y-94446835D01*
X146957540Y-94530540D01*
X146971418Y-94591660D01*
X146978861Y-94621584D01*
X146981798Y-94627058D01*
X146997846Y-94636096D01*
X147031747Y-94641285D01*
X147089180Y-94642888D01*
X147175827Y-94641170D01*
X147297370Y-94636394D01*
X147376667Y-94633791D01*
X147496888Y-94631314D01*
X147649048Y-94629166D01*
X147828624Y-94627348D01*
X148031097Y-94625858D01*
X148251945Y-94624698D01*
X148486647Y-94623866D01*
X148730682Y-94623363D01*
X148979530Y-94623189D01*
X149228669Y-94623344D01*
X149473579Y-94623828D01*
X149709738Y-94624641D01*
X149932626Y-94625782D01*
X150137722Y-94627252D01*
X150320504Y-94629051D01*
X150476452Y-94631178D01*
X150601045Y-94633634D01*
X150689762Y-94636419D01*
X151006826Y-94649916D01*
X151031625Y-94519834D01*
X151040124Y-94477397D01*
X151058345Y-94391204D01*
X151082112Y-94282083D01*
X151109305Y-94159736D01*
X151137804Y-94033867D01*
X151141329Y-94018486D01*
X151292492Y-93414588D01*
X151461088Y-92842824D01*
X151646794Y-92303845D01*
X151849283Y-91798304D01*
X152068232Y-91326851D01*
X152303314Y-90890139D01*
X152554205Y-90488817D01*
X152820580Y-90123538D01*
X153102113Y-89794953D01*
X153398480Y-89503714D01*
X153456342Y-89452460D01*
X153575083Y-89352063D01*
X153693239Y-89259816D01*
X153816243Y-89172287D01*
X153949529Y-89086045D01*
X154098531Y-88997658D01*
X154268680Y-88903694D01*
X154465411Y-88800721D01*
X154694156Y-88685308D01*
X155070377Y-88497967D01*
X155507606Y-88757445D01*
X155548556Y-88781794D01*
X155783965Y-88924028D01*
X155990206Y-89053151D01*
X156173570Y-89173381D01*
X156340349Y-89288935D01*
X156496834Y-89404031D01*
X156649316Y-89522888D01*
X156719602Y-89579665D01*
X157206662Y-90002488D01*
X157672067Y-90458845D01*
X158115176Y-90947556D01*
X158535345Y-91467441D01*
X158931932Y-92017319D01*
X159304293Y-92596012D01*
X159651787Y-93202340D01*
X159973770Y-93835122D01*
X160269599Y-94493179D01*
X160538632Y-95175331D01*
X160780226Y-95880398D01*
X160993738Y-96607201D01*
X161178526Y-97354559D01*
X161333945Y-98121293D01*
X161387311Y-98416005D01*
X161534499Y-98568691D01*
X161764180Y-98821872D01*
X162019464Y-99136951D01*
X162274190Y-99485389D01*
X162526242Y-99863427D01*
X162773508Y-100267301D01*
X163013872Y-100693252D01*
X163245220Y-101137517D01*
X163465437Y-101596336D01*
X163672410Y-102065946D01*
X163864024Y-102542587D01*
X164038164Y-103022498D01*
X164065827Y-103103527D01*
X164111717Y-103240114D01*
X164154429Y-103370866D01*
X164194878Y-103499288D01*
X164233975Y-103628886D01*
X164272634Y-103763164D01*
X164311769Y-103905628D01*
X164352292Y-104059783D01*
X164395117Y-104229134D01*
X164441157Y-104417186D01*
X164491325Y-104627445D01*
X164546534Y-104863415D01*
X164607699Y-105128602D01*
X164675731Y-105426512D01*
X164751544Y-105760648D01*
X164793076Y-105944084D01*
X164844662Y-106171849D01*
X164894960Y-106393860D01*
X164942874Y-106605274D01*
X164987304Y-106801244D01*
X165027152Y-106976926D01*
X165061319Y-107127473D01*
X165088708Y-107248042D01*
X165108218Y-107333787D01*
X165147519Y-107506921D01*
X165184793Y-107673062D01*
X165213225Y-107802407D01*
X165233136Y-107896441D01*
X165244847Y-107956653D01*
X165248679Y-107984531D01*
X165237753Y-107983082D01*
X165195048Y-107966816D01*
X165124641Y-107936446D01*
X165031430Y-107894159D01*
X164920315Y-107842142D01*
X164796197Y-107782582D01*
X164698653Y-107735330D01*
X164583706Y-107679902D01*
X164485463Y-107632819D01*
X164408887Y-107596448D01*
X164358946Y-107573157D01*
X164340602Y-107565312D01*
X164343575Y-107577004D01*
X164357565Y-107621460D01*
X164381075Y-107693165D01*
X164412027Y-107785797D01*
X164448343Y-107893034D01*
X164527071Y-108128594D01*
X164719353Y-108749673D01*
X164881872Y-109348237D01*
X165014282Y-109922938D01*
X165116233Y-110472431D01*
X165118097Y-110483986D01*
X165149640Y-110684503D01*
X165175181Y-110860187D01*
X165195339Y-111019224D01*
X165210732Y-111169800D01*
X165221980Y-111320103D01*
X165229700Y-111478318D01*
X165234512Y-111652632D01*
X165237033Y-111851233D01*
X165237883Y-112082305D01*
X165237927Y-112229247D01*
X165237717Y-112296678D01*
X165237438Y-112386533D01*
X165235861Y-112530958D01*
G37*
G36*
X155648411Y-105995021D02*
G01*
X155635665Y-106033844D01*
X155578397Y-106196709D01*
X155523247Y-106329501D01*
X155465538Y-106440359D01*
X155400594Y-106537423D01*
X155323740Y-106628830D01*
X155230298Y-106722719D01*
X155068234Y-106857762D01*
X154887518Y-106970389D01*
X154685530Y-107060332D01*
X154456814Y-107130011D01*
X154195917Y-107181847D01*
X154170804Y-107185608D01*
X153958781Y-107206097D01*
X153718892Y-107212226D01*
X153459900Y-107204639D01*
X153190569Y-107183983D01*
X152919659Y-107150904D01*
X152655934Y-107106047D01*
X152408156Y-107050059D01*
X152386728Y-107044569D01*
X152311112Y-107026154D01*
X152252239Y-107013262D01*
X152221380Y-107008406D01*
X152217916Y-107010343D01*
X152221790Y-107036913D01*
X152244989Y-107090551D01*
X152285385Y-107166012D01*
X152375307Y-107323618D01*
X152264886Y-107337993D01*
X152134798Y-107359844D01*
X151952889Y-107401934D01*
X151755078Y-107458372D01*
X151552202Y-107526293D01*
X151543226Y-107529521D01*
X151448595Y-107562723D01*
X151366547Y-107590105D01*
X151305603Y-107608904D01*
X151274285Y-107616358D01*
X151271183Y-107616181D01*
X151237887Y-107597777D01*
X151187340Y-107553970D01*
X151125539Y-107491147D01*
X151058481Y-107415693D01*
X150992163Y-107333995D01*
X150932582Y-107252442D01*
X150891254Y-107189315D01*
X150809663Y-107045856D01*
X150747821Y-106908819D01*
X150710794Y-106788790D01*
X150698686Y-106711587D01*
X150689342Y-106572721D01*
X150689140Y-106408747D01*
X150697625Y-106228126D01*
X150702629Y-106171623D01*
X152355485Y-106171623D01*
X152365760Y-106183268D01*
X152407869Y-106210104D01*
X152476769Y-106247340D01*
X152566264Y-106292145D01*
X152670160Y-106341688D01*
X152782263Y-106393139D01*
X152896378Y-106443667D01*
X153006311Y-106490441D01*
X153105866Y-106530632D01*
X153188850Y-106561408D01*
X153249068Y-106579940D01*
X153289338Y-106588779D01*
X153415778Y-106607497D01*
X153556732Y-106618244D01*
X153698683Y-106620646D01*
X153828113Y-106614325D01*
X153931507Y-106598908D01*
X154040517Y-106563679D01*
X154178278Y-106497088D01*
X154308611Y-106412587D01*
X154415769Y-106319270D01*
X154454364Y-106277081D01*
X154530892Y-106177346D01*
X154591158Y-106068898D01*
X154640498Y-105941086D01*
X154684248Y-105783255D01*
X154699888Y-105716417D01*
X154724702Y-105588060D01*
X154733252Y-105489816D01*
X154724415Y-105416232D01*
X154697067Y-105361856D01*
X154650083Y-105321237D01*
X154582340Y-105288924D01*
X154550569Y-105277173D01*
X154501865Y-105264749D01*
X154459059Y-105268473D01*
X154400962Y-105288268D01*
X154395516Y-105290406D01*
X154306556Y-105338493D01*
X154216643Y-105407382D01*
X154138890Y-105485662D01*
X154086414Y-105561924D01*
X154077208Y-105581669D01*
X154047940Y-105655991D01*
X154023555Y-105732510D01*
X153991506Y-105811461D01*
X153922324Y-105912358D01*
X153831399Y-106000892D01*
X153728958Y-106065503D01*
X153662546Y-106093684D01*
X153586806Y-106112275D01*
X153520780Y-106104692D01*
X153452956Y-106068920D01*
X153371824Y-106002941D01*
X153344516Y-105979053D01*
X153272485Y-105923509D01*
X153207956Y-105888975D01*
X153137188Y-105867519D01*
X153068815Y-105857118D01*
X152938775Y-105862596D01*
X152798180Y-105900311D01*
X152643803Y-105971278D01*
X152472418Y-106076511D01*
X152469803Y-106078288D01*
X152412112Y-106119684D01*
X152371096Y-106153162D01*
X152355485Y-106171623D01*
X150702629Y-106171623D01*
X150714345Y-106039322D01*
X150738846Y-105850795D01*
X150770674Y-105671008D01*
X150792595Y-105563955D01*
X150908027Y-105667126D01*
X150908458Y-105667510D01*
X150987337Y-105729675D01*
X151083033Y-105793547D01*
X151174926Y-105845357D01*
X151185066Y-105850372D01*
X151254638Y-105883251D01*
X151310373Y-105903821D01*
X151365897Y-105914955D01*
X151434834Y-105919528D01*
X151530811Y-105920412D01*
X151605307Y-105919852D01*
X151682471Y-105916094D01*
X151741066Y-105906776D01*
X151793913Y-105889588D01*
X151853828Y-105862222D01*
X151894734Y-105840830D01*
X152048220Y-105738129D01*
X152194970Y-105606144D01*
X152325016Y-105453519D01*
X152394467Y-105365774D01*
X152495386Y-105258791D01*
X152610911Y-105159724D01*
X152747203Y-105063925D01*
X152910420Y-104966744D01*
X153106724Y-104863533D01*
X153145988Y-104844091D01*
X153333617Y-104756718D01*
X153541066Y-104667801D01*
X153761316Y-104579819D01*
X153987348Y-104495247D01*
X154212141Y-104416561D01*
X154428675Y-104346239D01*
X154629931Y-104286756D01*
X154808888Y-104240591D01*
X154958527Y-104210219D01*
X155044997Y-104197743D01*
X155266557Y-104177794D01*
X155506789Y-104170598D01*
X155758350Y-104175443D01*
X156013900Y-104191618D01*
X156266098Y-104218409D01*
X156507604Y-104255104D01*
X156731076Y-104300991D01*
X156929174Y-104355358D01*
X157094557Y-104417493D01*
X157132661Y-104435650D01*
X157187678Y-104469731D01*
X157210051Y-104500122D01*
X157198447Y-104527732D01*
X157151535Y-104553471D01*
X157067984Y-104578249D01*
X156946462Y-104602975D01*
X156785637Y-104628560D01*
X156784339Y-104628749D01*
X156678843Y-104646076D01*
X156581303Y-104665571D01*
X156502523Y-104684861D01*
X156453308Y-104701572D01*
X156432613Y-104711990D01*
X156312779Y-104795134D01*
X156192901Y-104915911D01*
X156074567Y-105071771D01*
X155959363Y-105260163D01*
X155848878Y-105478536D01*
X155844097Y-105489816D01*
X155744698Y-105724339D01*
X155648411Y-105995021D01*
G37*
G36*
X159788255Y-98822583D02*
G01*
X159860177Y-99249169D01*
X159997142Y-99369637D01*
X160139778Y-99500395D01*
X160344243Y-99705190D01*
X160537473Y-99918442D01*
X160706925Y-100126771D01*
X160991361Y-100522063D01*
X161288149Y-100983356D01*
X161570911Y-101474288D01*
X161837118Y-101989668D01*
X162084244Y-102524304D01*
X162309760Y-103073004D01*
X162511141Y-103630578D01*
X162685858Y-104191833D01*
X162695535Y-104225769D01*
X162742636Y-104393925D01*
X162784990Y-104550010D01*
X162821472Y-104689533D01*
X162850958Y-104808002D01*
X162872323Y-104900928D01*
X162884445Y-104963820D01*
X162886199Y-104992188D01*
X162878996Y-104991225D01*
X162840040Y-104976194D01*
X162770673Y-104945868D01*
X162674664Y-104902002D01*
X162555782Y-104846348D01*
X162417796Y-104780660D01*
X162264474Y-104706693D01*
X162099587Y-104626199D01*
X161939196Y-104547816D01*
X161752942Y-104457978D01*
X161600103Y-104385808D01*
X161481203Y-104331546D01*
X161396766Y-104295428D01*
X161347316Y-104277692D01*
X161333378Y-104278577D01*
X161338580Y-104292106D01*
X161357389Y-104341249D01*
X161387698Y-104420548D01*
X161427693Y-104525252D01*
X161475560Y-104650609D01*
X161529482Y-104791867D01*
X161587645Y-104944275D01*
X161632818Y-105062649D01*
X161700139Y-105239033D01*
X161777022Y-105440451D01*
X161860721Y-105659707D01*
X161948489Y-105889604D01*
X162037578Y-106122946D01*
X162125240Y-106352536D01*
X162208728Y-106571177D01*
X162301420Y-106814096D01*
X162398002Y-107067792D01*
X162482512Y-107290613D01*
X162556353Y-107486375D01*
X162620928Y-107658894D01*
X162677641Y-107811984D01*
X162727895Y-107949462D01*
X162773093Y-108075142D01*
X162814639Y-108192841D01*
X162853935Y-108306375D01*
X162892385Y-108419557D01*
X162931391Y-108536205D01*
X163049200Y-108903674D01*
X163210365Y-109459476D01*
X163339854Y-109976325D01*
X163344618Y-109995341D01*
X163451475Y-110509084D01*
X163530450Y-110998523D01*
X163581059Y-111461477D01*
X163589837Y-111595363D01*
X163597501Y-111786023D01*
X163601542Y-111992694D01*
X163601956Y-112204071D01*
X163598740Y-112408851D01*
X163591892Y-112595729D01*
X163581407Y-112753402D01*
X163570697Y-112860126D01*
X163554054Y-112995946D01*
X163534383Y-113133824D01*
X163512792Y-113267693D01*
X163490391Y-113391491D01*
X163468286Y-113499151D01*
X163447587Y-113584609D01*
X163429403Y-113641801D01*
X163414842Y-113664660D01*
X163401300Y-113650381D01*
X163367053Y-113606349D01*
X163314875Y-113536218D01*
X163247457Y-113443684D01*
X163167490Y-113332442D01*
X163077665Y-113206187D01*
X162980676Y-113068614D01*
X162888648Y-112937721D01*
X162797242Y-112808158D01*
X162715203Y-112692327D01*
X162645321Y-112594146D01*
X162590385Y-112517536D01*
X162553184Y-112466415D01*
X162536510Y-112444700D01*
X162535059Y-112443747D01*
X162523143Y-112451024D01*
X162502407Y-112479788D01*
X162471697Y-112532255D01*
X162429855Y-112610639D01*
X162375728Y-112717155D01*
X162308160Y-112854019D01*
X162225994Y-113023444D01*
X162128077Y-113227647D01*
X162083041Y-113321925D01*
X161922259Y-113658021D01*
X161776975Y-113960779D01*
X161645790Y-114232960D01*
X161527303Y-114477324D01*
X161420113Y-114696633D01*
X161322821Y-114893647D01*
X161234025Y-115071127D01*
X161152326Y-115231834D01*
X161076322Y-115378529D01*
X161004615Y-115513973D01*
X160935802Y-115640927D01*
X160868485Y-115762151D01*
X160801262Y-115880406D01*
X160732734Y-115998454D01*
X160661499Y-116119055D01*
X160601198Y-116219516D01*
X160343421Y-116628206D01*
X160085043Y-117003402D01*
X159822046Y-117350736D01*
X159550407Y-117675844D01*
X159496734Y-117735666D01*
X159399117Y-117839163D01*
X159295849Y-117943135D01*
X159191143Y-118043842D01*
X159089211Y-118137544D01*
X158994266Y-118220498D01*
X158910521Y-118288965D01*
X158842190Y-118339203D01*
X158793484Y-118367472D01*
X158768617Y-118370031D01*
X158767340Y-118366596D01*
X158766606Y-118331837D01*
X158770604Y-118266848D01*
X158778760Y-118179316D01*
X158790501Y-118076932D01*
X158793259Y-118054737D01*
X158809766Y-117921371D01*
X158828633Y-117768209D01*
X158847743Y-117612482D01*
X158864975Y-117471417D01*
X158867106Y-117453926D01*
X158885381Y-117304322D01*
X158905780Y-117137891D01*
X158925962Y-116973703D01*
X158943587Y-116830824D01*
X158948272Y-116792881D01*
X158968260Y-116628927D01*
X158983333Y-116500692D01*
X158993853Y-116404350D01*
X159000185Y-116336075D01*
X159002691Y-116292044D01*
X159001735Y-116268430D01*
X158997681Y-116261409D01*
X158987277Y-116266031D01*
X158957024Y-116281772D01*
X158905732Y-116309386D01*
X158832088Y-116349602D01*
X158734779Y-116403147D01*
X158612493Y-116470749D01*
X158463916Y-116553137D01*
X158287735Y-116651038D01*
X158082637Y-116765181D01*
X157847309Y-116896294D01*
X157580439Y-117045105D01*
X157280713Y-117212342D01*
X156946819Y-117398734D01*
X156943667Y-117400493D01*
X156751385Y-117509545D01*
X156587428Y-117606771D01*
X156443558Y-117697818D01*
X156311535Y-117788329D01*
X156183122Y-117883951D01*
X156050077Y-117990328D01*
X155904164Y-118113105D01*
X155887556Y-118127334D01*
X155825988Y-118180202D01*
X155768356Y-118230024D01*
X155712722Y-118278656D01*
X155657145Y-118327954D01*
X155599689Y-118379771D01*
X155538412Y-118435963D01*
X155471377Y-118498385D01*
X155396644Y-118568892D01*
X155312275Y-118649339D01*
X155216329Y-118741581D01*
X155106869Y-118847473D01*
X154981956Y-118968870D01*
X154839649Y-119107628D01*
X154678011Y-119265600D01*
X154495102Y-119444643D01*
X154288983Y-119646612D01*
X154057715Y-119873360D01*
X153799360Y-120126744D01*
X153689996Y-120234003D01*
X153409051Y-120509453D01*
X153155095Y-120758284D01*
X152926670Y-120981899D01*
X152722318Y-121181703D01*
X152540578Y-121359101D01*
X152379992Y-121515498D01*
X152239100Y-121652299D01*
X152116444Y-121770908D01*
X152010564Y-121872730D01*
X151920001Y-121959170D01*
X151843296Y-122031632D01*
X151778990Y-122091522D01*
X151725624Y-122140245D01*
X151681739Y-122179204D01*
X151645875Y-122209806D01*
X151616574Y-122233454D01*
X151592376Y-122251553D01*
X151572566Y-122265329D01*
X151463482Y-122333273D01*
X151330878Y-122406359D01*
X151187103Y-122478340D01*
X151044504Y-122542971D01*
X150915429Y-122594004D01*
X150824813Y-122624512D01*
X150611382Y-122685858D01*
X150375782Y-122741804D01*
X150130510Y-122789785D01*
X149888061Y-122827235D01*
X149660929Y-122851587D01*
X149657020Y-122851886D01*
X149580130Y-122855760D01*
X149470642Y-122858738D01*
X149336104Y-122860740D01*
X149184061Y-122861685D01*
X149022059Y-122861494D01*
X148857646Y-122860087D01*
X148673976Y-122856742D01*
X148407799Y-122846939D01*
X148169806Y-122830733D01*
X147952472Y-122807057D01*
X147748273Y-122774844D01*
X147549683Y-122733025D01*
X147349178Y-122680533D01*
X147139232Y-122616300D01*
X147092028Y-122600186D01*
X146947093Y-122543173D01*
X146791724Y-122473004D01*
X146638300Y-122395791D01*
X146499197Y-122317646D01*
X146386790Y-122244682D01*
X146362195Y-122226174D01*
X146331210Y-122201107D01*
X146293407Y-122168831D01*
X146247400Y-122128014D01*
X146191806Y-122077320D01*
X146125240Y-122015417D01*
X146046318Y-121940970D01*
X145953655Y-121852645D01*
X145845868Y-121749109D01*
X145721572Y-121629027D01*
X145579383Y-121491066D01*
X145417917Y-121333891D01*
X145235789Y-121156169D01*
X145031615Y-120956566D01*
X144804010Y-120733748D01*
X144551592Y-120486380D01*
X144272974Y-120213129D01*
X143966774Y-119912662D01*
X143934744Y-119881226D01*
X143688400Y-119639529D01*
X143468656Y-119424124D01*
X143273395Y-119232999D01*
X143100506Y-119064144D01*
X142947873Y-118915548D01*
X142813384Y-118785200D01*
X142694924Y-118671091D01*
X142590380Y-118571208D01*
X142497638Y-118483542D01*
X142414585Y-118406081D01*
X142339106Y-118336815D01*
X142269088Y-118273733D01*
X142202417Y-118214825D01*
X142136980Y-118158079D01*
X142070662Y-118101485D01*
X142001350Y-118043033D01*
X141938580Y-117991048D01*
X141861132Y-117929290D01*
X141781305Y-117868802D01*
X141696063Y-117807710D01*
X141602370Y-117744140D01*
X141497189Y-117676217D01*
X141377485Y-117602068D01*
X141240220Y-117519819D01*
X141082359Y-117427595D01*
X140900866Y-117323523D01*
X140692704Y-117205728D01*
X140454836Y-117072337D01*
X140184228Y-116921475D01*
X140111907Y-116881226D01*
X139914786Y-116771388D01*
X139728877Y-116667600D01*
X139557222Y-116571574D01*
X139402866Y-116485021D01*
X139268852Y-116409651D01*
X139158224Y-116347176D01*
X139074027Y-116299307D01*
X139019304Y-116267754D01*
X138997099Y-116254228D01*
X138991933Y-116250414D01*
X138978912Y-116249203D01*
X138975807Y-116274502D01*
X138981259Y-116333071D01*
X138987095Y-116381499D01*
X138999399Y-116482825D01*
X139016115Y-116619884D01*
X139036909Y-116789955D01*
X139061449Y-116990318D01*
X139089402Y-117218252D01*
X139120434Y-117471038D01*
X139154213Y-117745956D01*
X139162507Y-117814313D01*
X139179764Y-117962999D01*
X139194140Y-118096061D01*
X139205169Y-118208557D01*
X139212383Y-118295544D01*
X139215315Y-118352079D01*
X139213498Y-118373221D01*
X139209445Y-118373854D01*
X139175253Y-118359719D01*
X139117240Y-118320267D01*
X139039159Y-118258572D01*
X138944764Y-118177709D01*
X138837810Y-118080751D01*
X138722050Y-117970773D01*
X138563870Y-117811398D01*
X138308034Y-117527782D01*
X138056057Y-117215187D01*
X137804946Y-116869825D01*
X137551711Y-116487904D01*
X137531884Y-116456638D01*
X137397430Y-116239767D01*
X137263993Y-116015610D01*
X137129551Y-115780361D01*
X136992081Y-115530211D01*
X136849560Y-115261355D01*
X136699965Y-114969987D01*
X136541273Y-114652299D01*
X136371461Y-114304485D01*
X136188507Y-113922738D01*
X136173976Y-113892185D01*
X136057655Y-113647957D01*
X135941310Y-113404352D01*
X135820489Y-113152074D01*
X135690743Y-112881828D01*
X135547621Y-112584320D01*
X135466213Y-112415237D01*
X135274823Y-112686001D01*
X135204860Y-112785066D01*
X135115606Y-112911594D01*
X135018030Y-113050036D01*
X134919862Y-113189425D01*
X134828828Y-113318797D01*
X134735932Y-113449045D01*
X134662121Y-113548244D01*
X134608468Y-113614739D01*
X134574252Y-113649422D01*
X134558753Y-113653184D01*
X134547055Y-113619360D01*
X134530269Y-113552548D01*
X134510172Y-113460883D01*
X134488319Y-113352115D01*
X134466266Y-113233997D01*
X134445570Y-113114280D01*
X134427785Y-113000715D01*
X134423159Y-112966579D01*
X134409491Y-112830679D01*
X134398395Y-112665676D01*
X134390063Y-112480396D01*
X134384685Y-112283666D01*
X134382453Y-112084309D01*
X134383557Y-111891154D01*
X134388190Y-111713024D01*
X134396542Y-111558746D01*
X134427847Y-111218563D01*
X134484102Y-110794669D01*
X134560890Y-110359692D01*
X134659137Y-109909460D01*
X134659942Y-109906325D01*
X137135144Y-109906325D01*
X137135266Y-110046723D01*
X137137779Y-110276397D01*
X137143914Y-110481315D01*
X137154452Y-110671706D01*
X137170173Y-110857798D01*
X137191860Y-111049818D01*
X137220291Y-111257994D01*
X137256249Y-111492554D01*
X137281755Y-111644810D01*
X137318323Y-111843883D01*
X137359367Y-112050407D01*
X137403808Y-112260068D01*
X137450565Y-112468555D01*
X137498557Y-112671553D01*
X137546704Y-112864750D01*
X137593926Y-113043832D01*
X137639141Y-113204488D01*
X137681270Y-113342403D01*
X137719232Y-113453266D01*
X137751946Y-113532762D01*
X137778332Y-113576579D01*
X137811072Y-113605559D01*
X137881690Y-113633571D01*
X137957991Y-113622681D01*
X138037923Y-113573431D01*
X138119435Y-113486365D01*
X138162754Y-113433516D01*
X138251853Y-113335676D01*
X138357780Y-113228554D01*
X138471928Y-113120225D01*
X138585689Y-113018767D01*
X138690454Y-112932256D01*
X138777618Y-112868769D01*
X138928427Y-112779157D01*
X139159370Y-112675613D01*
X139394342Y-112610700D01*
X139634050Y-112584525D01*
X139879198Y-112597200D01*
X140130491Y-112648833D01*
X140388633Y-112739534D01*
X140654331Y-112869412D01*
X140928288Y-113038578D01*
X141211209Y-113247141D01*
X141224077Y-113257439D01*
X141342338Y-113358158D01*
X141479777Y-113484173D01*
X141630784Y-113629771D01*
X141789752Y-113789237D01*
X141951072Y-113956855D01*
X142109137Y-114126912D01*
X142258339Y-114293692D01*
X142393070Y-114451481D01*
X142395133Y-114453967D01*
X142497892Y-114578441D01*
X142596686Y-114699556D01*
X142693626Y-114820125D01*
X142790823Y-114942962D01*
X142890387Y-115070879D01*
X142994429Y-115206690D01*
X143105059Y-115353210D01*
X143224389Y-115513250D01*
X143354529Y-115689625D01*
X143497589Y-115885148D01*
X143655681Y-116102632D01*
X143830915Y-116344890D01*
X144025401Y-116614737D01*
X144241251Y-116914985D01*
X144407927Y-117145943D01*
X144668480Y-117501817D01*
X144910754Y-117825589D01*
X145136310Y-118119041D01*
X145346710Y-118383955D01*
X145543515Y-118622115D01*
X145728288Y-118835305D01*
X145902590Y-119025306D01*
X146067982Y-119193902D01*
X146226027Y-119342876D01*
X146378286Y-119474011D01*
X146526320Y-119589090D01*
X146671691Y-119689895D01*
X146684408Y-119698146D01*
X146865194Y-119805002D01*
X147032583Y-119881997D01*
X147195515Y-119932632D01*
X147362931Y-119960404D01*
X147391617Y-119963316D01*
X147442913Y-119971117D01*
X147471657Y-119986524D01*
X147481970Y-120017689D01*
X147477976Y-120072765D01*
X147463796Y-120159907D01*
X147462138Y-120169982D01*
X147458112Y-120224204D01*
X147472307Y-120263150D01*
X147511342Y-120307345D01*
X147517872Y-120313656D01*
X147573882Y-120353863D01*
X147624677Y-120369335D01*
X147639742Y-120368062D01*
X147694319Y-120359214D01*
X147775902Y-120343326D01*
X147876272Y-120322036D01*
X147987211Y-120296986D01*
X148043934Y-120284036D01*
X148153104Y-120260442D01*
X148248946Y-120241408D01*
X148322731Y-120228623D01*
X148365728Y-120223775D01*
X148428914Y-120234412D01*
X148490572Y-120279982D01*
X148532973Y-120361308D01*
X148536880Y-120372153D01*
X148581058Y-120443353D01*
X148644341Y-120493025D01*
X148715239Y-120511689D01*
X148731898Y-120509735D01*
X148788324Y-120488433D01*
X148847478Y-120450680D01*
X148915584Y-120407996D01*
X148989832Y-120389671D01*
X149052567Y-120403062D01*
X149132186Y-120450680D01*
X149186547Y-120485989D01*
X149267586Y-120507953D01*
X149342482Y-120490537D01*
X149408995Y-120434485D01*
X149464884Y-120340538D01*
X149477378Y-120313655D01*
X149502002Y-120272859D01*
X149532323Y-120245505D01*
X149573958Y-120231037D01*
X149632524Y-120228899D01*
X149713637Y-120238533D01*
X149822915Y-120259384D01*
X149965973Y-120290895D01*
X150057423Y-120311243D01*
X150165783Y-120334353D01*
X150257205Y-120352733D01*
X150324133Y-120364874D01*
X150359011Y-120369271D01*
X150370744Y-120367808D01*
X150418717Y-120346330D01*
X150468311Y-120307355D01*
X150485699Y-120289518D01*
X150514140Y-120251519D01*
X150522514Y-120211161D01*
X150516541Y-120149749D01*
X150509352Y-120100859D01*
X150500993Y-120034006D01*
X150503970Y-119994840D01*
X150523379Y-119974943D01*
X150564320Y-119965897D01*
X150631891Y-119959282D01*
X150654250Y-119956826D01*
X150820544Y-119924139D01*
X150992341Y-119864886D01*
X151170686Y-119778123D01*
X151356626Y-119662905D01*
X151551206Y-119518291D01*
X151755473Y-119343335D01*
X151970472Y-119137095D01*
X152197249Y-118898627D01*
X152436850Y-118626987D01*
X152690322Y-118321232D01*
X152958709Y-117980418D01*
X153243057Y-117603602D01*
X153247230Y-117597966D01*
X153321259Y-117497366D01*
X153414096Y-117370309D01*
X153521224Y-117223028D01*
X153638125Y-117061753D01*
X153760282Y-116892716D01*
X153883176Y-116722150D01*
X154002292Y-116556285D01*
X154022189Y-116528532D01*
X154240508Y-116224900D01*
X154438553Y-115951295D01*
X154618805Y-115704458D01*
X154783745Y-115481130D01*
X154935853Y-115278054D01*
X155077609Y-115091969D01*
X155211494Y-114919619D01*
X155339988Y-114757743D01*
X155465571Y-114603084D01*
X155590725Y-114452383D01*
X155717929Y-114302381D01*
X155928774Y-114062623D01*
X156230096Y-113743947D01*
X156522321Y-113464386D01*
X156805898Y-113223734D01*
X157081275Y-113021785D01*
X157348901Y-112858334D01*
X157609224Y-112733174D01*
X157862692Y-112646099D01*
X158109755Y-112596903D01*
X158350859Y-112585381D01*
X158586454Y-112611326D01*
X158816987Y-112674533D01*
X159042908Y-112774795D01*
X159126598Y-112821560D01*
X159359337Y-112979012D01*
X159579453Y-113170926D01*
X159790418Y-113400208D01*
X159806880Y-113419839D01*
X159890789Y-113514770D01*
X159958338Y-113579729D01*
X160014468Y-113618244D01*
X160064121Y-113633846D01*
X160112239Y-113630064D01*
X160155357Y-113614006D01*
X160197117Y-113581200D01*
X160233690Y-113527224D01*
X160269184Y-113445785D01*
X160307704Y-113330594D01*
X160343993Y-113210162D01*
X160454869Y-112805249D01*
X160557691Y-112373205D01*
X160650340Y-111924067D01*
X160730697Y-111467871D01*
X160796644Y-111014651D01*
X160813078Y-110866033D01*
X160829148Y-110664432D01*
X160841403Y-110443235D01*
X160849701Y-110211009D01*
X160853901Y-109976325D01*
X160853860Y-109747752D01*
X160849437Y-109533858D01*
X160840491Y-109343213D01*
X160826881Y-109184387D01*
X160776594Y-108831941D01*
X160690754Y-108428137D01*
X160578119Y-108054910D01*
X160438588Y-107712161D01*
X160272061Y-107399790D01*
X160078436Y-107117697D01*
X159857613Y-106865783D01*
X159609490Y-106643947D01*
X159333966Y-106452091D01*
X159030942Y-106290114D01*
X158700315Y-106157917D01*
X158341986Y-106055400D01*
X157955852Y-105982464D01*
X157541814Y-105939009D01*
X157522991Y-105937732D01*
X157432189Y-105930579D01*
X157370951Y-105922356D01*
X157329805Y-105910511D01*
X157299280Y-105892491D01*
X157269902Y-105865744D01*
X157268462Y-105864302D01*
X157245455Y-105839121D01*
X157229914Y-105813236D01*
X157222417Y-105781174D01*
X157223544Y-105737465D01*
X157233873Y-105676635D01*
X157253983Y-105593213D01*
X157284454Y-105481728D01*
X157325863Y-105336707D01*
X157398837Y-105101907D01*
X157502654Y-104815084D01*
X157617783Y-104541191D01*
X157741051Y-104287158D01*
X157869284Y-104059914D01*
X157999307Y-103866389D01*
X158140698Y-103692597D01*
X158331784Y-103502446D01*
X158533378Y-103348699D01*
X158743703Y-103232668D01*
X158960983Y-103155665D01*
X158998696Y-103147357D01*
X159113756Y-103132499D01*
X159248416Y-103125732D01*
X159388245Y-103127085D01*
X159518817Y-103136590D01*
X159625701Y-103154277D01*
X159646484Y-103159195D01*
X159750216Y-103178925D01*
X159826801Y-103182128D01*
X159885026Y-103168312D01*
X159933678Y-103136982D01*
X159962968Y-103106742D01*
X159989334Y-103050368D01*
X159986242Y-102982964D01*
X159953046Y-102899586D01*
X159889102Y-102795291D01*
X159737262Y-102587053D01*
X159510506Y-102317820D01*
X159265146Y-102068972D01*
X159005899Y-101844506D01*
X158737480Y-101648419D01*
X158464606Y-101484705D01*
X158191994Y-101357362D01*
X157898431Y-101255249D01*
X157582367Y-101180131D01*
X157262584Y-101141374D01*
X156931145Y-101137596D01*
X156857962Y-101140805D01*
X156723217Y-101149372D01*
X156598411Y-101161996D01*
X156475464Y-101180162D01*
X156346292Y-101205352D01*
X156202815Y-101239053D01*
X156036951Y-101282749D01*
X155840617Y-101337925D01*
X155828801Y-101341199D01*
X155770154Y-101351909D01*
X155720425Y-101346689D01*
X155674155Y-101321468D01*
X155625885Y-101272177D01*
X155570155Y-101194743D01*
X155501505Y-101085097D01*
X155268427Y-100720509D01*
X154962403Y-100294929D01*
X154637646Y-99897364D01*
X154298595Y-99533536D01*
X154199579Y-99435942D01*
X154030337Y-99277977D01*
X153873851Y-99145282D01*
X153723326Y-99032581D01*
X153571965Y-98934598D01*
X153412971Y-98846057D01*
X153307509Y-98793020D01*
X153167890Y-98730656D01*
X153042554Y-98687300D01*
X152920297Y-98659988D01*
X152789911Y-98645756D01*
X152640192Y-98641640D01*
X152628945Y-98641643D01*
X152518335Y-98642825D01*
X152435585Y-98647215D01*
X152368930Y-98656378D01*
X152306600Y-98671880D01*
X152236831Y-98695286D01*
X152034122Y-98785733D01*
X151833232Y-98914048D01*
X151641593Y-99078440D01*
X151457510Y-99280368D01*
X151279292Y-99521293D01*
X151229451Y-99602111D01*
X151154366Y-99744391D01*
X151072015Y-99921285D01*
X150983599Y-100129927D01*
X150890318Y-100367452D01*
X150793374Y-100630996D01*
X150693968Y-100917694D01*
X150575401Y-101282655D01*
X150347631Y-102073761D01*
X150151716Y-102888593D01*
X149987910Y-103725773D01*
X149856467Y-104583926D01*
X149757639Y-105461676D01*
X149691681Y-106357646D01*
X149685317Y-106488399D01*
X149675508Y-106783906D01*
X149670078Y-107106682D01*
X149668884Y-107448248D01*
X149671786Y-107800130D01*
X149678642Y-108153851D01*
X149689310Y-108500934D01*
X149703648Y-108832903D01*
X149721516Y-109141282D01*
X149742772Y-109417595D01*
X149747126Y-109466970D01*
X149756701Y-109588350D01*
X149760028Y-109677846D01*
X149755435Y-109741876D01*
X149741248Y-109786862D01*
X149715793Y-109819221D01*
X149677398Y-109845375D01*
X149624388Y-109871743D01*
X149501960Y-109916716D01*
X149326291Y-109953037D01*
X149117618Y-109971510D01*
X148877983Y-109971864D01*
X148825213Y-109969731D01*
X148635774Y-109955562D01*
X148484151Y-109932299D01*
X148368814Y-109899646D01*
X148288231Y-109857305D01*
X148286709Y-109856175D01*
X148268977Y-109842004D01*
X148255687Y-109825938D01*
X148246813Y-109803158D01*
X148242324Y-109768844D01*
X148242193Y-109718176D01*
X148246392Y-109646333D01*
X148254890Y-109548497D01*
X148267661Y-109419847D01*
X148284676Y-109255564D01*
X148294528Y-109159894D01*
X148315845Y-108942313D01*
X148333353Y-108743466D01*
X148347400Y-108555927D01*
X148358332Y-108372274D01*
X148366497Y-108185082D01*
X148372242Y-107986927D01*
X148375916Y-107770385D01*
X148377866Y-107528031D01*
X148378438Y-107252442D01*
X148378345Y-107174747D01*
X148372644Y-106670455D01*
X148357508Y-106195727D01*
X148332096Y-105741665D01*
X148295570Y-105299371D01*
X148247090Y-104859945D01*
X148185815Y-104414490D01*
X148110906Y-103954106D01*
X148021525Y-103469895D01*
X147952582Y-103135887D01*
X147857263Y-102724241D01*
X147750220Y-102307653D01*
X147633276Y-101891814D01*
X147508248Y-101482413D01*
X147376958Y-101085140D01*
X147241225Y-100705682D01*
X147102869Y-100349730D01*
X146963710Y-100022974D01*
X146825568Y-99731101D01*
X146731943Y-99565776D01*
X146603668Y-99379604D01*
X146458767Y-99202152D01*
X146305742Y-99043744D01*
X146153099Y-98914702D01*
X146082480Y-98865166D01*
X145872691Y-98748974D01*
X145654434Y-98672236D01*
X145429150Y-98635234D01*
X145198275Y-98638250D01*
X144963251Y-98681566D01*
X144901019Y-98699758D01*
X144676836Y-98788074D01*
X144444110Y-98913540D01*
X144204710Y-99074585D01*
X143960501Y-99269636D01*
X143713350Y-99497121D01*
X143465123Y-99755465D01*
X143217688Y-100043098D01*
X142972910Y-100358446D01*
X142931468Y-100415673D01*
X142857003Y-100521899D01*
X142771932Y-100646205D01*
X142681943Y-100780046D01*
X142592719Y-100914877D01*
X142509946Y-101042152D01*
X142439309Y-101153326D01*
X142386495Y-101239854D01*
X142362801Y-101276174D01*
X142304341Y-101332838D01*
X142235157Y-101353264D01*
X142147906Y-101340551D01*
X142135552Y-101336996D01*
X142073449Y-101318883D01*
X141991015Y-101294619D01*
X141902642Y-101268434D01*
X141817333Y-101243954D01*
X141652689Y-101203140D01*
X141493803Y-101174138D01*
X141329172Y-101155456D01*
X141147295Y-101145602D01*
X140936670Y-101143082D01*
X140841477Y-101143646D01*
X140709808Y-101146113D01*
X140603616Y-101151121D01*
X140513420Y-101159398D01*
X140429737Y-101171672D01*
X140343086Y-101188672D01*
X140134660Y-101241016D01*
X139798201Y-101358904D01*
X139472930Y-101515220D01*
X139159936Y-101709259D01*
X138860307Y-101940314D01*
X138575131Y-102207680D01*
X138305496Y-102510652D01*
X138204490Y-102638146D01*
X138113149Y-102764664D01*
X138049606Y-102869607D01*
X138012590Y-102956055D01*
X138000831Y-103027093D01*
X138013056Y-103085804D01*
X138047995Y-103135271D01*
X138058114Y-103144748D01*
X138104212Y-103172721D01*
X138163497Y-103183298D01*
X138244052Y-103176983D01*
X138353963Y-103154277D01*
X138389002Y-103147283D01*
X138478613Y-103135677D01*
X138584299Y-103127605D01*
X138689921Y-103124497D01*
X138807970Y-103128265D01*
X139018989Y-103158458D01*
X139216469Y-103220980D01*
X139407445Y-103318375D01*
X139598955Y-103453187D01*
X139664234Y-103508026D01*
X139840383Y-103686362D01*
X140008864Y-103901927D01*
X140168478Y-104152522D01*
X140318025Y-104435949D01*
X140456307Y-104750009D01*
X140582123Y-105092503D01*
X140694275Y-105461232D01*
X140696684Y-105470012D01*
X140722842Y-105569345D01*
X140744176Y-105657434D01*
X140758546Y-105724998D01*
X140763811Y-105762757D01*
X140763160Y-105770788D01*
X140744094Y-105819426D01*
X140706850Y-105868656D01*
X140703881Y-105871609D01*
X140675263Y-105896628D01*
X140643737Y-105913475D01*
X140599870Y-105924645D01*
X140534233Y-105932630D01*
X140437395Y-105939927D01*
X140241306Y-105956508D01*
X139848218Y-106012435D01*
X139481985Y-106097206D01*
X139140838Y-106211369D01*
X138823008Y-106355471D01*
X138526726Y-106530056D01*
X138452578Y-106583859D01*
X138337166Y-106679936D01*
X138212677Y-106794683D01*
X138087419Y-106919720D01*
X137969703Y-107046668D01*
X137867840Y-107167147D01*
X137790139Y-107272778D01*
X137719225Y-107384893D01*
X137569403Y-107658904D01*
X137442504Y-107950577D01*
X137336768Y-108264858D01*
X137250433Y-108606691D01*
X137181738Y-108981024D01*
X137169290Y-109065690D01*
X137158512Y-109151550D01*
X137150267Y-109237567D01*
X137144215Y-109330492D01*
X137140017Y-109437079D01*
X137137333Y-109564078D01*
X137135822Y-109718243D01*
X137135144Y-109906325D01*
X134659942Y-109906325D01*
X134779769Y-109439797D01*
X134923714Y-108946529D01*
X135091896Y-108425482D01*
X135113676Y-108360945D01*
X135140386Y-108282360D01*
X135166883Y-108205272D01*
X135194088Y-108127215D01*
X135222922Y-108045720D01*
X135254308Y-107958319D01*
X135289167Y-107862545D01*
X135328420Y-107755929D01*
X135372989Y-107636004D01*
X135423796Y-107500301D01*
X135481761Y-107346354D01*
X135547806Y-107171693D01*
X135622853Y-106973851D01*
X135707824Y-106750361D01*
X135803639Y-106498754D01*
X135911220Y-106216562D01*
X136031489Y-105901318D01*
X136165367Y-105550553D01*
X136211329Y-105430106D01*
X136292009Y-105218458D01*
X136367629Y-105019812D01*
X136437005Y-104837289D01*
X136498955Y-104674015D01*
X136552294Y-104533113D01*
X136595840Y-104417707D01*
X136628410Y-104330919D01*
X136648819Y-104275874D01*
X136655885Y-104255695D01*
X136649652Y-104257517D01*
X136612271Y-104273918D01*
X136544381Y-104305516D01*
X136449718Y-104350520D01*
X136332016Y-104407139D01*
X136195009Y-104473582D01*
X136042433Y-104548056D01*
X135878023Y-104628772D01*
X135780690Y-104676617D01*
X135622303Y-104754156D01*
X135477717Y-104824542D01*
X135350709Y-104885962D01*
X135245053Y-104936600D01*
X135164525Y-104974641D01*
X135112899Y-104998272D01*
X135093951Y-105005677D01*
X135094260Y-104991545D01*
X135103349Y-104942782D01*
X135120933Y-104864799D01*
X135145612Y-104763198D01*
X135175984Y-104643580D01*
X135210650Y-104511545D01*
X135248209Y-104372694D01*
X135287259Y-104232629D01*
X135367170Y-103962076D01*
X135565789Y-103366425D01*
X135792635Y-102778266D01*
X136044929Y-102203712D01*
X136319895Y-101648877D01*
X136614757Y-101119874D01*
X136926738Y-100622818D01*
X136972551Y-100554559D01*
X137136748Y-100317740D01*
X137290358Y-100110165D01*
X137438447Y-99925735D01*
X137586077Y-99758352D01*
X137738311Y-99601916D01*
X137900214Y-99450329D01*
X138130264Y-99243813D01*
X138188188Y-98880913D01*
X138269310Y-98408314D01*
X138412525Y-97707769D01*
X139851013Y-97707769D01*
X139863137Y-98101934D01*
X139911598Y-98482426D01*
X139924571Y-98543363D01*
X139939164Y-98591201D01*
X139951048Y-98609527D01*
X139958456Y-98603703D01*
X139990474Y-98571533D01*
X140044825Y-98513954D01*
X140118661Y-98434076D01*
X140209136Y-98335002D01*
X140313404Y-98219841D01*
X140428619Y-98091699D01*
X140551934Y-97953683D01*
X140623275Y-97873606D01*
X140744761Y-97737304D01*
X140857630Y-97610742D01*
X140958813Y-97497360D01*
X141045236Y-97400598D01*
X141113829Y-97323896D01*
X141161521Y-97270692D01*
X141185239Y-97244427D01*
X141234337Y-97191017D01*
X141049276Y-96749453D01*
X140864214Y-96307889D01*
X141040626Y-95958908D01*
X141194837Y-95658698D01*
X141368134Y-95333000D01*
X141537134Y-95027657D01*
X141700606Y-94744590D01*
X141857316Y-94485719D01*
X142006032Y-94252968D01*
X142145522Y-94048258D01*
X142274553Y-93873510D01*
X142391893Y-93730646D01*
X142496310Y-93621588D01*
X142586572Y-93548257D01*
X142590058Y-93545960D01*
X142673145Y-93500715D01*
X142735059Y-93488874D01*
X142778019Y-93510619D01*
X142804245Y-93566132D01*
X142905873Y-93900095D01*
X143034429Y-94209469D01*
X143188177Y-94487041D01*
X143367273Y-94732997D01*
X143571875Y-94947527D01*
X143802140Y-95130817D01*
X144058223Y-95283055D01*
X144340282Y-95404428D01*
X144490092Y-95458242D01*
X144476674Y-95368762D01*
X144470104Y-95333302D01*
X144454118Y-95259312D01*
X144431455Y-95161099D01*
X144404089Y-95047169D01*
X144373991Y-94926030D01*
X144350619Y-94835092D01*
X144237795Y-94434697D01*
X144115643Y-94060054D01*
X143985087Y-93713024D01*
X143847050Y-93395464D01*
X143702457Y-93109235D01*
X143552229Y-92856196D01*
X143397292Y-92638205D01*
X143238567Y-92457123D01*
X143076980Y-92314807D01*
X143010275Y-92265898D01*
X142917189Y-92204183D01*
X142846971Y-92168348D01*
X142795847Y-92156635D01*
X142760044Y-92167289D01*
X142757190Y-92169427D01*
X142718751Y-92203795D01*
X142658834Y-92263129D01*
X142582157Y-92342342D01*
X142493438Y-92436345D01*
X142397393Y-92540050D01*
X142298741Y-92648368D01*
X142202198Y-92756211D01*
X142112482Y-92858491D01*
X142034309Y-92950119D01*
X141700879Y-93363645D01*
X141349361Y-93838512D01*
X141032866Y-94311184D01*
X140752125Y-94780352D01*
X140507869Y-95244704D01*
X140300830Y-95702930D01*
X140131737Y-96153719D01*
X140001322Y-96595759D01*
X139934979Y-96895198D01*
X139875027Y-97304125D01*
X139851013Y-97707769D01*
X138412525Y-97707769D01*
X138415896Y-97691278D01*
X138586677Y-97002832D01*
X138782627Y-96339782D01*
X139004717Y-95698937D01*
X139253919Y-95077106D01*
X139531205Y-94471096D01*
X139731638Y-94076109D01*
X140052696Y-93506182D01*
X140396261Y-92968174D01*
X140763764Y-92460026D01*
X141156635Y-91979678D01*
X141576303Y-91525069D01*
X141592340Y-91508746D01*
X141787574Y-91316121D01*
X141987765Y-91129084D01*
X142187780Y-90951939D01*
X142382488Y-90788990D01*
X142566759Y-90644544D01*
X142735460Y-90522905D01*
X142883462Y-90428378D01*
X142979655Y-90372098D01*
X143057546Y-90411836D01*
X143066601Y-90416542D01*
X143177492Y-90485000D01*
X143304584Y-90579817D01*
X143441126Y-90694773D01*
X143580369Y-90823644D01*
X143715561Y-90960208D01*
X143839952Y-91098242D01*
X143946791Y-91231523D01*
X143994173Y-91296572D01*
X144191716Y-91597545D01*
X144381365Y-91934995D01*
X144561828Y-92305921D01*
X144731813Y-92707322D01*
X144890030Y-93136198D01*
X145035187Y-93589548D01*
X145165993Y-94064371D01*
X145186989Y-94147362D01*
X145216503Y-94266009D01*
X145243869Y-94379306D01*
X145269923Y-94491381D01*
X145295500Y-94606362D01*
X145321436Y-94728377D01*
X145348565Y-94861554D01*
X145377723Y-95010021D01*
X145409746Y-95177906D01*
X145445469Y-95369338D01*
X145461804Y-95458242D01*
X145485726Y-95588443D01*
X145531354Y-95839351D01*
X145583187Y-96126190D01*
X145598173Y-96208386D01*
X145617063Y-96309238D01*
X145632838Y-96390271D01*
X145644175Y-96444739D01*
X145649754Y-96465899D01*
X145669891Y-96466684D01*
X145719637Y-96462408D01*
X145787641Y-96453880D01*
X145813673Y-96450256D01*
X145895414Y-96439088D01*
X146001697Y-96424755D01*
X146121659Y-96408718D01*
X146244436Y-96392438D01*
X146284420Y-96387154D01*
X146420296Y-96369125D01*
X146558142Y-96350741D01*
X146683858Y-96333885D01*
X146783347Y-96320442D01*
X146810643Y-96316875D01*
X146917358Y-96305278D01*
X147042069Y-96295192D01*
X147187294Y-96286548D01*
X147355553Y-96279278D01*
X147549362Y-96273314D01*
X147771242Y-96268587D01*
X148023711Y-96265029D01*
X148309286Y-96262572D01*
X148630487Y-96261148D01*
X148989832Y-96260688D01*
X149152546Y-96260774D01*
X149492188Y-96261628D01*
X149794969Y-96263455D01*
X150063524Y-96266329D01*
X150300489Y-96270321D01*
X150508499Y-96275505D01*
X150690191Y-96281954D01*
X150848200Y-96289739D01*
X150985162Y-96298934D01*
X151103711Y-96309612D01*
X151206485Y-96321844D01*
X151281561Y-96331947D01*
X151400744Y-96347746D01*
X151539100Y-96365898D01*
X151684982Y-96384878D01*
X151826742Y-96403158D01*
X151836043Y-96404352D01*
X151961516Y-96420694D01*
X152075648Y-96435966D01*
X152171185Y-96449167D01*
X152240875Y-96459295D01*
X152277463Y-96465350D01*
X152281472Y-96466156D01*
X152323173Y-96465814D01*
X152342256Y-96439860D01*
X152347865Y-96414049D01*
X152359768Y-96352797D01*
X152376699Y-96262482D01*
X152397600Y-96148819D01*
X152421411Y-96017520D01*
X152447074Y-95874299D01*
X152488128Y-95645380D01*
X152528675Y-95423876D01*
X153532354Y-95423876D01*
X153533175Y-95446117D01*
X153544528Y-95446587D01*
X153588338Y-95435211D01*
X153655871Y-95411337D01*
X153739016Y-95378359D01*
X153829665Y-95339670D01*
X153919710Y-95298665D01*
X154001041Y-95258738D01*
X154065550Y-95223283D01*
X154209495Y-95129141D01*
X154434887Y-94948361D01*
X154636249Y-94743609D01*
X154805787Y-94522265D01*
X154811122Y-94514197D01*
X154937345Y-94297080D01*
X155049771Y-94053736D01*
X155142990Y-93797252D01*
X155211591Y-93540712D01*
X155233097Y-93500546D01*
X155278495Y-93484345D01*
X155341776Y-93498467D01*
X155418126Y-93542860D01*
X155494809Y-93605363D01*
X155606344Y-93716124D01*
X155727293Y-93857782D01*
X155858248Y-94031240D01*
X155999800Y-94237404D01*
X156152540Y-94477178D01*
X156317059Y-94751467D01*
X156493950Y-95061176D01*
X156683803Y-95407208D01*
X156887210Y-95790470D01*
X156961209Y-95932804D01*
X157026017Y-96060007D01*
X157074300Y-96158568D01*
X157107712Y-96232143D01*
X157127903Y-96284393D01*
X157136528Y-96318976D01*
X157135239Y-96339549D01*
X157133184Y-96344753D01*
X157116602Y-96385284D01*
X157087590Y-96455277D01*
X157048763Y-96548456D01*
X157002734Y-96658543D01*
X156952116Y-96779263D01*
X156932218Y-96826788D01*
X156880453Y-96952484D01*
X156843242Y-97047314D01*
X156819014Y-97116017D01*
X156806201Y-97163330D01*
X156803234Y-97193992D01*
X156808542Y-97212739D01*
X156817241Y-97224037D01*
X156851205Y-97264430D01*
X156907519Y-97329725D01*
X156983293Y-97416627D01*
X157075638Y-97521837D01*
X157181667Y-97642057D01*
X157298488Y-97773991D01*
X157423215Y-97914340D01*
X157505007Y-98006205D01*
X157624976Y-98140918D01*
X157735273Y-98264735D01*
X157833006Y-98374408D01*
X157915277Y-98466690D01*
X157979193Y-98538333D01*
X158021858Y-98586089D01*
X158040378Y-98606711D01*
X158041839Y-98608287D01*
X158055272Y-98619507D01*
X158066349Y-98617117D01*
X158076897Y-98595819D01*
X158088748Y-98550315D01*
X158103731Y-98475305D01*
X158123674Y-98365492D01*
X158130504Y-98322608D01*
X158145466Y-98182419D01*
X158155137Y-98015873D01*
X158159514Y-97833185D01*
X158158595Y-97644570D01*
X158152376Y-97460244D01*
X158140854Y-97290421D01*
X158124028Y-97145316D01*
X158053899Y-96771151D01*
X157935076Y-96323044D01*
X157777360Y-95867185D01*
X157581131Y-95404391D01*
X157346774Y-94935483D01*
X157074672Y-94461277D01*
X156765206Y-93982593D01*
X156418760Y-93500249D01*
X156288916Y-93331845D01*
X156131342Y-93135454D01*
X155965817Y-92936334D01*
X155798566Y-92741718D01*
X155635814Y-92558836D01*
X155483784Y-92394918D01*
X155348703Y-92257195D01*
X155227174Y-92137930D01*
X155097935Y-92205921D01*
X155012875Y-92259912D01*
X154905728Y-92345721D01*
X154792039Y-92451659D01*
X154679482Y-92570069D01*
X154575733Y-92693298D01*
X154488471Y-92813691D01*
X154341430Y-93055053D01*
X154171502Y-93383429D01*
X154013136Y-93747695D01*
X153865831Y-94149024D01*
X153729084Y-94588590D01*
X153703767Y-94679148D01*
X153670030Y-94806049D01*
X153637060Y-94936256D01*
X153606245Y-95063682D01*
X153578977Y-95182244D01*
X153556645Y-95285853D01*
X153540641Y-95368426D01*
X153532354Y-95423876D01*
X152528675Y-95423876D01*
X152542290Y-95349502D01*
X152592280Y-95085221D01*
X152639230Y-94847472D01*
X152684275Y-94631191D01*
X152728545Y-94431311D01*
X152773175Y-94242769D01*
X152819297Y-94060498D01*
X152868044Y-93879434D01*
X152920549Y-93694511D01*
X152977944Y-93500664D01*
X153044292Y-93287920D01*
X153201867Y-92835951D01*
X153372263Y-92415619D01*
X153554837Y-92027963D01*
X153748946Y-91674020D01*
X153953947Y-91354829D01*
X154169197Y-91071428D01*
X154394053Y-90824854D01*
X154627872Y-90616145D01*
X154870010Y-90446340D01*
X154878555Y-90441112D01*
X154924844Y-90413111D01*
X154962617Y-90394893D01*
X154997870Y-90388363D01*
X155036599Y-90395428D01*
X155084800Y-90417996D01*
X155148468Y-90457973D01*
X155233599Y-90517266D01*
X155346190Y-90597783D01*
X155709962Y-90876344D01*
X156099785Y-91216580D01*
X156479909Y-91591937D01*
X156848157Y-91999716D01*
X157202355Y-92437216D01*
X157540325Y-92901737D01*
X157859892Y-93390578D01*
X158158879Y-93901041D01*
X158435110Y-94430424D01*
X158641003Y-94867982D01*
X158858660Y-95378793D01*
X159055909Y-95899578D01*
X159234242Y-96435179D01*
X159395152Y-96990438D01*
X159540129Y-97570197D01*
X159596490Y-97833185D01*
X159670666Y-98179298D01*
X159788255Y-98822583D01*
G37*
%TD*%
M02*
