M48
; DRILL file {KiCad (6.0.8)} date Mon Nov 21 11:00:15 2022
; FORMAT={-:-/ absolute / inch / decimal}
; #@! TF.CreationDate,2022-11-21T11:00:15-06:00
; #@! TF.GenerationSoftware,Kicad,Pcbnew,(6.0.8)
; #@! TF.FileFunction,MixedPlating,1,2
FMAT,2
INCH
; #@! TA.AperFunction,Plated,PTH,ViaDrill
T1C0.0157
; #@! TA.AperFunction,Plated,PTH,ViaDrill
T2C0.0197
; #@! TA.AperFunction,Plated,PTH,ComponentDrill
T3C0.0315
; #@! TA.AperFunction,Plated,PTH,ComponentDrill
T4C0.0354
; #@! TA.AperFunction,Plated,PTH,ComponentDrill
T5C0.0394
; #@! TA.AperFunction,Plated,PTH,ComponentDrill
T6C0.0400
; #@! TA.AperFunction,NonPlated,NPTH,ComponentDrill
T7C0.0787
%
G90
G05
T1
X5.502Y-3.2283
X5.502Y-3.3268
X5.7283Y-4.124
X5.7874Y-4.872
X5.8268Y-4.5866
X5.8465Y-3.9862
X5.8465Y-4.0551
X5.8563Y-5.0787
X5.9547Y-4.6654
X5.9646Y-5.0787
X6.0236Y-4.1142
X6.0236Y-4.5472
X6.0335Y-3.4055
X6.05Y-4.6772
X6.0531Y-4.4291
X6.0925Y-4.6161
X6.122Y-4.6752
X6.5719Y-4.5335
X6.5748Y-5.128
X6.624Y-4.9311
T2
X5.8465Y-4.1634
X6.0827Y-4.3799
X6.1811Y-4.5669
T3
X5.2756Y-4.3898
X5.3543Y-4.3898
X6.2598Y-4.5669
X6.4567Y-4.5669
T4
X6.3386Y-3.2087
X6.3386Y-3.3087
T5
X5.2854Y-3.5764
X5.2854Y-3.6764
X5.2854Y-3.7764
X5.2854Y-3.8764
X5.2854Y-3.9764
X5.374Y-3.2268
X5.374Y-3.3268
X5.3854Y-3.5764
X5.3854Y-3.6764
X5.3854Y-3.7764
X5.3854Y-3.8764
X5.3854Y-3.9764
X5.4854Y-3.5764
X5.4854Y-3.6764
X5.4854Y-3.7764
X5.4854Y-3.8764
X5.4854Y-3.9764
X5.7161Y-3.2071
X5.7161Y-3.3071
X5.8161Y-3.2071
X5.8161Y-3.3071
X5.9161Y-3.2071
X5.9161Y-3.3071
X6.0161Y-3.2071
X6.0161Y-3.3071
X6.3583Y-3.4961
X6.3583Y-3.5961
X6.3583Y-3.6961
X6.3583Y-3.7961
X6.3583Y-3.8961
X6.3583Y-3.9961
T6
X5.2661Y-4.7787
X5.2661Y-5.3787
X5.3661Y-4.7787
X5.3661Y-5.3787
X5.4661Y-4.7787
X5.4661Y-5.3787
X5.5111Y-5.2637
X5.5661Y-4.7787
X5.5661Y-5.3787
X5.6111Y-5.2637
X5.6661Y-4.7787
X5.6661Y-5.3787
X5.7661Y-4.7787
X5.7661Y-5.3787
X5.8661Y-4.7787
X5.8661Y-5.3787
X5.9211Y-5.2637
X5.9661Y-4.7787
X5.9661Y-5.3787
X6.0211Y-5.2637
X6.0661Y-4.7787
X6.0661Y-5.3787
X6.1661Y-4.7787
X6.1661Y-5.3787
X6.2661Y-4.7787
X6.2661Y-5.3787
X6.3661Y-4.7787
X6.3661Y-5.3787
X6.4661Y-4.8287
X6.4661Y-4.9287
X6.4661Y-5.0287
X6.4661Y-5.1287
X6.4661Y-5.2287
X6.4661Y-5.3287
T7
X5.1772Y-3.2087
X5.1772Y-5.4724
X6.5551Y-3.2087
X6.5551Y-5.4724
T0
M30
