%TF.GenerationSoftware,KiCad,Pcbnew,(6.0.8)*%
%TF.CreationDate,2022-11-21T10:59:59-06:00*%
%TF.ProjectId,Receiver,52656365-6976-4657-922e-6b696361645f,rev?*%
%TF.SameCoordinates,Original*%
%TF.FileFunction,Soldermask,Top*%
%TF.FilePolarity,Negative*%
%FSLAX46Y46*%
G04 Gerber Fmt 4.6, Leading zero omitted, Abs format (unit mm)*
G04 Created by KiCad (PCBNEW (6.0.8)) date 2022-11-21 10:59:59*
%MOMM*%
%LPD*%
G01*
G04 APERTURE LIST*
%ADD10R,1.800000X1.800000*%
%ADD11C,1.800000*%
%ADD12R,1.700000X1.700000*%
%ADD13O,1.700000X1.700000*%
%ADD14R,1.500000X2.000000*%
%ADD15R,3.800000X2.000000*%
%ADD16C,2.000000*%
%ADD17C,1.879600*%
%ADD18R,1.600000X1.600000*%
%ADD19C,1.600000*%
G04 APERTURE END LIST*
D10*
%TO.C,D1*%
X161000000Y-81500000D03*
D11*
X161000000Y-84040000D03*
%TD*%
D12*
%TO.C,J6*%
X161500000Y-88800000D03*
D13*
X161500000Y-91340000D03*
X161500000Y-93880000D03*
X161500000Y-96420000D03*
X161500000Y-98960000D03*
X161500000Y-101500000D03*
%TD*%
D14*
%TO.C,U2*%
X156700000Y-112150000D03*
X159000000Y-112150000D03*
D15*
X159000000Y-105850000D03*
D14*
X161300000Y-112150000D03*
%TD*%
D12*
%TO.C,J4*%
X136500000Y-81960000D03*
D13*
X136500000Y-84500000D03*
%TD*%
D16*
%TO.C,H4*%
X166500000Y-81500000D03*
%TD*%
D12*
%TO.C,J2*%
X136790000Y-90840000D03*
D13*
X136790000Y-93380000D03*
X136790000Y-95920000D03*
X136790000Y-98460000D03*
X136790000Y-101000000D03*
%TD*%
D16*
%TO.C,H2*%
X131500000Y-81500000D03*
%TD*%
D12*
%TO.C,J1*%
X134250000Y-90840000D03*
D13*
X134250000Y-93380000D03*
X134250000Y-95920000D03*
X134250000Y-98460000D03*
X134250000Y-101000000D03*
%TD*%
D17*
%TO.C,U1*%
X164240000Y-135350000D03*
X164240000Y-132810000D03*
X164240000Y-130270000D03*
X164240000Y-127730000D03*
X164240000Y-125190000D03*
X164240000Y-122650000D03*
X150397000Y-133699000D03*
X152937000Y-133699000D03*
X139983000Y-133699000D03*
X142523000Y-133699000D03*
X161700000Y-136620000D03*
X159160000Y-136620000D03*
X156620000Y-136620000D03*
X154080000Y-136620000D03*
X151540000Y-136620000D03*
X149000000Y-136620000D03*
X146460000Y-136620000D03*
X143920000Y-136620000D03*
X141380000Y-136620000D03*
X138840000Y-136620000D03*
X136300000Y-136620000D03*
X133760000Y-136620000D03*
X133760000Y-121380000D03*
X136300000Y-121380000D03*
X138840000Y-121380000D03*
X141380000Y-121380000D03*
X143920000Y-121380000D03*
X146460000Y-121380000D03*
X149000000Y-121380000D03*
X151540000Y-121380000D03*
X154080000Y-121380000D03*
X156620000Y-121380000D03*
X159160000Y-121380000D03*
X161700000Y-121380000D03*
%TD*%
D16*
%TO.C,H1*%
X166500000Y-139000000D03*
%TD*%
D18*
%TO.C,C2*%
X134000000Y-111500000D03*
D19*
X136000000Y-111500000D03*
%TD*%
%TO.C,C1*%
X164000000Y-116000000D03*
X159000000Y-116000000D03*
%TD*%
D12*
%TO.C,J3*%
X139330000Y-90840000D03*
D13*
X139330000Y-93380000D03*
X139330000Y-95920000D03*
X139330000Y-98460000D03*
X139330000Y-101000000D03*
%TD*%
D12*
%TO.C,J5*%
X145190000Y-84000000D03*
D13*
X145190000Y-81460000D03*
X147730000Y-84000000D03*
X147730000Y-81460000D03*
X150270000Y-84000000D03*
X150270000Y-81460000D03*
X152810000Y-84000000D03*
X152810000Y-81460000D03*
%TD*%
D16*
%TO.C,H3*%
X131500000Y-139000000D03*
%TD*%
M02*
