%TF.GenerationSoftware,KiCad,Pcbnew,(6.0.8)*%
%TF.CreationDate,2022-11-21T10:59:58-06:00*%
%TF.ProjectId,Receiver,52656365-6976-4657-922e-6b696361645f,rev?*%
%TF.SameCoordinates,Original*%
%TF.FileFunction,Copper,L1,Top*%
%TF.FilePolarity,Positive*%
%FSLAX46Y46*%
G04 Gerber Fmt 4.6, Leading zero omitted, Abs format (unit mm)*
G04 Created by KiCad (PCBNEW (6.0.8)) date 2022-11-21 10:59:58*
%MOMM*%
%LPD*%
G01*
G04 APERTURE LIST*
%TA.AperFunction,ComponentPad*%
%ADD10R,1.800000X1.800000*%
%TD*%
%TA.AperFunction,ComponentPad*%
%ADD11C,1.800000*%
%TD*%
%TA.AperFunction,ComponentPad*%
%ADD12R,1.700000X1.700000*%
%TD*%
%TA.AperFunction,ComponentPad*%
%ADD13O,1.700000X1.700000*%
%TD*%
%TA.AperFunction,SMDPad,CuDef*%
%ADD14R,1.500000X2.000000*%
%TD*%
%TA.AperFunction,SMDPad,CuDef*%
%ADD15R,3.800000X2.000000*%
%TD*%
%TA.AperFunction,ComponentPad*%
%ADD16C,1.879600*%
%TD*%
%TA.AperFunction,ComponentPad*%
%ADD17R,1.600000X1.600000*%
%TD*%
%TA.AperFunction,ComponentPad*%
%ADD18C,1.600000*%
%TD*%
%TA.AperFunction,ViaPad*%
%ADD19C,1.000000*%
%TD*%
%TA.AperFunction,ViaPad*%
%ADD20C,0.800000*%
%TD*%
%TA.AperFunction,Conductor*%
%ADD21C,1.000000*%
%TD*%
%TA.AperFunction,Conductor*%
%ADD22C,0.500000*%
%TD*%
%TA.AperFunction,Conductor*%
%ADD23C,0.250000*%
%TD*%
G04 APERTURE END LIST*
D10*
%TO.P,D1,1,K*%
%TO.N,GND*%
X161000000Y-81500000D03*
D11*
%TO.P,D1,2,A*%
%TO.N,Net-(U1-PadJP7_3)*%
X161000000Y-84040000D03*
%TD*%
D12*
%TO.P,J6,1,Pin_1*%
%TO.N,DTR*%
X161500000Y-88800000D03*
D13*
%TO.P,J6,2,Pin_2*%
%TO.N,TXO*%
X161500000Y-91340000D03*
%TO.P,J6,3,Pin_3*%
%TO.N,RXI*%
X161500000Y-93880000D03*
%TO.P,J6,4,Pin_4*%
%TO.N,5V*%
X161500000Y-96420000D03*
%TO.P,J6,5,Pin_5*%
%TO.N,unconnected-(J6-Pad5)*%
X161500000Y-98960000D03*
%TO.P,J6,6,Pin_6*%
%TO.N,GND*%
X161500000Y-101500000D03*
%TD*%
D14*
%TO.P,U2,1,GND*%
%TO.N,GND*%
X156700000Y-112150000D03*
%TO.P,U2,2,VO*%
%TO.N,3.3V*%
X159000000Y-112150000D03*
D15*
X159000000Y-105850000D03*
D14*
%TO.P,U2,3,VI*%
%TO.N,5V*%
X161300000Y-112150000D03*
%TD*%
D12*
%TO.P,J4,1,Pin_1*%
%TO.N,SCL*%
X136500000Y-81960000D03*
D13*
%TO.P,J4,2,Pin_2*%
%TO.N,SDA*%
X136500000Y-84500000D03*
%TD*%
D12*
%TO.P,J2,1,Pin_1*%
%TO.N,5V*%
X136790000Y-90840000D03*
D13*
%TO.P,J2,2,Pin_2*%
X136790000Y-93380000D03*
%TO.P,J2,3,Pin_3*%
X136790000Y-95920000D03*
%TO.P,J2,4,Pin_4*%
X136790000Y-98460000D03*
%TO.P,J2,5,Pin_5*%
X136790000Y-101000000D03*
%TD*%
D12*
%TO.P,J1,1,Pin_1*%
%TO.N,PWM0*%
X134250000Y-90840000D03*
D13*
%TO.P,J1,2,Pin_2*%
%TO.N,PWM1*%
X134250000Y-93380000D03*
%TO.P,J1,3,Pin_3*%
%TO.N,PWM2*%
X134250000Y-95920000D03*
%TO.P,J1,4,Pin_4*%
%TO.N,PWM3*%
X134250000Y-98460000D03*
%TO.P,J1,5,Pin_5*%
%TO.N,D*%
X134250000Y-101000000D03*
%TD*%
D16*
%TO.P,U1,JP1_1,GND*%
%TO.N,GND*%
X164240000Y-135350000D03*
%TO.P,U1,JP1_2,GND*%
X164240000Y-132810000D03*
%TO.P,U1,JP1_3,VCC*%
%TO.N,5V*%
X164240000Y-130270000D03*
%TO.P,U1,JP1_4,RXI*%
%TO.N,RXI*%
X164240000Y-127730000D03*
%TO.P,U1,JP1_5,TXO*%
%TO.N,TXO*%
X164240000Y-125190000D03*
%TO.P,U1,JP1_6,DTR*%
%TO.N,DTR*%
X164240000Y-122650000D03*
%TO.P,U1,JP2_1,A4*%
%TO.N,SDA*%
X150397000Y-133699000D03*
%TO.P,U1,JP2_2,A5*%
%TO.N,SCL*%
X152937000Y-133699000D03*
%TO.P,U1,JP3_1,A6*%
%TO.N,unconnected-(U1-PadJP3_1)*%
X139983000Y-133699000D03*
%TO.P,U1,JP3_2,A7*%
%TO.N,unconnected-(U1-PadJP3_2)*%
X142523000Y-133699000D03*
%TO.P,U1,JP6_1,RAW*%
%TO.N,unconnected-(U1-PadJP6_1)*%
X161700000Y-136620000D03*
%TO.P,U1,JP6_2,GND_1*%
%TO.N,GND*%
X159160000Y-136620000D03*
%TO.P,U1,JP6_3,RST_1*%
%TO.N,unconnected-(U1-PadJP6_3)*%
X156620000Y-136620000D03*
%TO.P,U1,JP6_4,VCC_1*%
%TO.N,5V*%
X154080000Y-136620000D03*
%TO.P,U1,JP6_5,A3*%
%TO.N,unconnected-(U1-PadJP6_5)*%
X151540000Y-136620000D03*
%TO.P,U1,JP6_6,A2*%
%TO.N,unconnected-(U1-PadJP6_6)*%
X149000000Y-136620000D03*
%TO.P,U1,JP6_7,A1*%
%TO.N,unconnected-(U1-PadJP6_7)*%
X146460000Y-136620000D03*
%TO.P,U1,JP6_8,A0*%
%TO.N,unconnected-(U1-PadJP6_8)*%
X143920000Y-136620000D03*
%TO.P,U1,JP6_9,SCK*%
%TO.N,SCK*%
X141380000Y-136620000D03*
%TO.P,U1,JP6_10,MISO*%
%TO.N,MISO*%
X138840000Y-136620000D03*
%TO.P,U1,JP6_11,MOSI*%
%TO.N,MOSI*%
X136300000Y-136620000D03*
%TO.P,U1,JP6_12,D10*%
%TO.N,PWM0*%
X133760000Y-136620000D03*
%TO.P,U1,JP7_1,D9*%
%TO.N,PWM3*%
X133760000Y-121380000D03*
%TO.P,U1,JP7_2,D8*%
%TO.N,unconnected-(U1-PadJP7_2)*%
X136300000Y-121380000D03*
%TO.P,U1,JP7_3,D7*%
%TO.N,Net-(U1-PadJP7_3)*%
X138840000Y-121380000D03*
%TO.P,U1,JP7_4,D6*%
%TO.N,PWM2*%
X141380000Y-121380000D03*
%TO.P,U1,JP7_5,D5*%
%TO.N,PWM1*%
X143920000Y-121380000D03*
%TO.P,U1,JP7_6,D4*%
%TO.N,D*%
X146460000Y-121380000D03*
%TO.P,U1,JP7_7,D3*%
%TO.N,CE*%
X149000000Y-121380000D03*
%TO.P,U1,JP7_8,D2*%
%TO.N,CSN*%
X151540000Y-121380000D03*
%TO.P,U1,JP7_9,GND_2*%
%TO.N,GND*%
X154080000Y-121380000D03*
%TO.P,U1,JP7_10,RST_2*%
%TO.N,unconnected-(U1-PadJP7_10)*%
X156620000Y-121380000D03*
%TO.P,U1,JP7_11,RXI_2*%
%TO.N,unconnected-(U1-PadJP7_11)*%
X159160000Y-121380000D03*
%TO.P,U1,JP7_12,TXO_2*%
%TO.N,unconnected-(U1-PadJP7_12)*%
X161700000Y-121380000D03*
%TD*%
D17*
%TO.P,C2,1*%
%TO.N,3.3V*%
X134000000Y-111500000D03*
D18*
%TO.P,C2,2*%
%TO.N,GND*%
X136000000Y-111500000D03*
%TD*%
%TO.P,C1,1*%
%TO.N,5V*%
X164000000Y-116000000D03*
%TO.P,C1,2*%
%TO.N,GND*%
X159000000Y-116000000D03*
%TD*%
D12*
%TO.P,J3,1,Pin_1*%
%TO.N,GND*%
X139330000Y-90840000D03*
D13*
%TO.P,J3,2,Pin_2*%
X139330000Y-93380000D03*
%TO.P,J3,3,Pin_3*%
X139330000Y-95920000D03*
%TO.P,J3,4,Pin_4*%
X139330000Y-98460000D03*
%TO.P,J3,5,Pin_5*%
X139330000Y-101000000D03*
%TD*%
D12*
%TO.P,J5,1,Pin_1*%
%TO.N,GND*%
X145190000Y-84000000D03*
D13*
%TO.P,J5,2,Pin_2*%
%TO.N,3.3V*%
X145190000Y-81460000D03*
%TO.P,J5,3,Pin_3*%
%TO.N,CE*%
X147730000Y-84000000D03*
%TO.P,J5,4,Pin_4*%
%TO.N,CSN*%
X147730000Y-81460000D03*
%TO.P,J5,5,Pin_5*%
%TO.N,SCK*%
X150270000Y-84000000D03*
%TO.P,J5,6,Pin_6*%
%TO.N,MOSI*%
X150270000Y-81460000D03*
%TO.P,J5,7,Pin_7*%
%TO.N,MISO*%
X152810000Y-84000000D03*
%TO.P,J5,8,Pin_8*%
%TO.N,unconnected-(J5-Pad8)*%
X152810000Y-81460000D03*
%TD*%
D19*
%TO.N,GND*%
X154500000Y-111250000D03*
X157000000Y-116000000D03*
%TO.N,3.3V*%
X148500000Y-105750000D03*
D20*
%TO.N,SCL*%
X151500000Y-129000000D03*
X139750000Y-82000000D03*
%TO.N,SDA*%
X139750000Y-84500000D03*
X148750000Y-129000000D03*
%TO.N,CE*%
X147000000Y-123750000D03*
X148500000Y-101250000D03*
%TO.N,SCK*%
X153250000Y-86500000D03*
X155500000Y-118750000D03*
%TO.N,MISO*%
X153670000Y-118800000D03*
%TO.N,MOSI*%
X151250000Y-118500000D03*
%TO.N,CSN*%
X153750000Y-112500000D03*
X145500000Y-104750000D03*
X148500000Y-103000000D03*
X154750000Y-117250000D03*
%TO.N,DTR*%
X166925000Y-115150000D03*
%TO.N,TXO*%
X168250000Y-125250000D03*
%TO.N,RXI*%
X167000000Y-130250000D03*
%TO.N,Net-(U1-PadJP7_3)*%
X153000000Y-104500000D03*
X148000000Y-116500000D03*
X153000000Y-115500000D03*
%TD*%
D21*
%TO.N,5V*%
X161300000Y-112150000D02*
X163822103Y-109627897D01*
X163822103Y-98822103D02*
X161500000Y-96500000D01*
X163822103Y-109627897D02*
X163822103Y-98822103D01*
X136790000Y-101000000D02*
X136790000Y-98460000D01*
X161300000Y-113300000D02*
X164000000Y-116000000D01*
X166576731Y-127933269D02*
X164240000Y-130270000D01*
X136790000Y-98460000D02*
X136790000Y-95920000D01*
X148266726Y-113850000D02*
X160450000Y-113850000D01*
X161300000Y-112150000D02*
X161300000Y-113300000D01*
X160430000Y-130270000D02*
X164240000Y-130270000D01*
X136790000Y-95920000D02*
X136790000Y-93380000D01*
X136790000Y-93380000D02*
X136790000Y-90840000D01*
X160450000Y-113850000D02*
X161300000Y-113000000D01*
X136790000Y-102373274D02*
X148266726Y-113850000D01*
X166576731Y-118576731D02*
X166576731Y-127933269D01*
X161300000Y-113000000D02*
X161300000Y-112150000D01*
X154080000Y-136620000D02*
X160430000Y-130270000D01*
X166576731Y-118576731D02*
X164000000Y-116000000D01*
X136790000Y-101000000D02*
X136790000Y-102373274D01*
D22*
%TO.N,3.3V*%
X148600000Y-105850000D02*
X159000000Y-105850000D01*
X145190000Y-81460000D02*
X143325003Y-83324997D01*
X143325003Y-83324997D02*
X143325003Y-100575003D01*
X148500000Y-105750000D02*
X148600000Y-105850000D01*
X159000000Y-105850000D02*
X159000000Y-112150000D01*
X143325003Y-100575003D02*
X148500000Y-105750000D01*
D23*
%TO.N,PWM0*%
X133760000Y-124532792D02*
X133760000Y-136620000D01*
X131350000Y-93740000D02*
X131350000Y-122122792D01*
X134250000Y-90840000D02*
X131350000Y-93740000D01*
X131350000Y-122122792D02*
X133760000Y-124532792D01*
%TO.N,PWM1*%
X142205200Y-123094800D02*
X143920000Y-121380000D01*
X134250000Y-93380000D02*
X131800000Y-95830000D01*
X131800000Y-121936396D02*
X132958404Y-123094800D01*
X131800000Y-95830000D02*
X131800000Y-121936396D01*
X132958404Y-123094800D02*
X142205200Y-123094800D01*
%TO.N,PWM2*%
X140115200Y-122644800D02*
X133144800Y-122644800D01*
X141380000Y-121380000D02*
X140115200Y-122644800D01*
X132250000Y-121750000D02*
X132250000Y-97920000D01*
X132250000Y-97920000D02*
X134250000Y-95920000D01*
X133144800Y-122644800D02*
X132250000Y-121750000D01*
%TO.N,PWM3*%
X134250000Y-98460000D02*
X133075000Y-99635000D01*
X139750000Y-115390000D02*
X133760000Y-121380000D01*
X139750000Y-108250000D02*
X139750000Y-115390000D01*
X133075000Y-101575000D02*
X139750000Y-108250000D01*
X133075000Y-99635000D02*
X133075000Y-101575000D01*
%TO.N,D*%
X146460000Y-113210000D02*
X146460000Y-121380000D01*
X134250000Y-101000000D02*
X146460000Y-113210000D01*
%TO.N,SCL*%
X152937000Y-133699000D02*
X152937000Y-130437000D01*
X139710000Y-81960000D02*
X136500000Y-81960000D01*
X139750000Y-82000000D02*
X139710000Y-81960000D01*
X152937000Y-130437000D02*
X151500000Y-129000000D01*
%TO.N,SDA*%
X150250000Y-130500000D02*
X148750000Y-129000000D01*
X150397000Y-130647000D02*
X150250000Y-130500000D01*
X136500000Y-84500000D02*
X139750000Y-84500000D01*
X150397000Y-133699000D02*
X150397000Y-130647000D01*
%TO.N,CE*%
X144350003Y-88686396D02*
X144350003Y-90250000D01*
X144350003Y-90250000D02*
X144350003Y-100063604D01*
X147730000Y-84000000D02*
X147730000Y-85306399D01*
X147000000Y-123380000D02*
X147000000Y-123750000D01*
X145268199Y-87768200D02*
X144350003Y-88686396D01*
X149000000Y-121380000D02*
X147000000Y-123380000D01*
X144350003Y-100063604D02*
X145893200Y-101606801D01*
X148143199Y-101606801D02*
X148500000Y-101250000D01*
X145893200Y-101606801D02*
X148143199Y-101606801D01*
X147730000Y-85306399D02*
X145268199Y-87768200D01*
%TO.N,SCK*%
X153250000Y-86500000D02*
X152770000Y-86500000D01*
X154498698Y-122750000D02*
X155344800Y-121903898D01*
X148025000Y-129985698D02*
X148025000Y-128699695D01*
X141380000Y-136620000D02*
X141390698Y-136620000D01*
X155344800Y-121903898D02*
X155344800Y-118905200D01*
X152770000Y-86500000D02*
X150270000Y-84000000D01*
X155344800Y-118905200D02*
X155500000Y-118750000D01*
X148025000Y-128699695D02*
X153974695Y-122750000D01*
X153974695Y-122750000D02*
X154498698Y-122750000D01*
X141390698Y-136620000D02*
X148025000Y-129985698D01*
%TO.N,MISO*%
X138840000Y-136620000D02*
X138331929Y-136111929D01*
X138331929Y-133508071D02*
X149195200Y-122644800D01*
X152063898Y-122644800D02*
X152804800Y-121903898D01*
X152804800Y-119665200D02*
X153670000Y-118800000D01*
X149195200Y-122644800D02*
X152063898Y-122644800D01*
X152804800Y-121903898D02*
X152804800Y-119665200D01*
X138331929Y-136111929D02*
X138331929Y-133508071D01*
%TO.N,MOSI*%
X147735200Y-121894800D02*
X147735200Y-120854800D01*
X150940000Y-118810000D02*
X151250000Y-118500000D01*
X147735200Y-120854800D02*
X149780000Y-118810000D01*
X149780000Y-118810000D02*
X150940000Y-118810000D01*
X136300000Y-136620000D02*
X136300000Y-133330000D01*
X136300000Y-133330000D02*
X147735200Y-121894800D01*
%TO.N,CSN*%
X153750000Y-112525000D02*
X153750000Y-112500000D01*
X143900003Y-88500000D02*
X143900003Y-100250000D01*
X154750000Y-117250000D02*
X154194695Y-117250000D01*
X154194695Y-117250000D02*
X151540000Y-119904695D01*
X145500000Y-107793274D02*
X145853363Y-108146637D01*
X153250000Y-113025000D02*
X153750000Y-112525000D01*
X143900003Y-100250000D02*
X146650003Y-103000000D01*
X146650003Y-103000000D02*
X148500000Y-103000000D01*
X147730000Y-81460000D02*
X146555000Y-82635000D01*
X150731726Y-113025000D02*
X153250000Y-113025000D01*
X151540000Y-119904695D02*
X151540000Y-121380000D01*
X145853363Y-108146637D02*
X150731726Y-113025000D01*
X146555000Y-82635000D02*
X146555000Y-85845003D01*
X146555000Y-85845003D02*
X143900003Y-88500000D01*
X145500000Y-104750000D02*
X145500000Y-107793274D01*
%TO.N,DTR*%
X165547103Y-113772103D02*
X166925000Y-115150000D01*
X165547103Y-96425000D02*
X165547103Y-112125000D01*
X165547103Y-112125000D02*
X165547103Y-113772103D01*
X161500000Y-88800000D02*
X165547103Y-92847103D01*
X165547103Y-92847103D02*
X165547103Y-96425000D01*
%TO.N,TXO*%
X165097103Y-97500000D02*
X165097103Y-114710707D01*
X165097103Y-114710707D02*
X166568198Y-116181802D01*
X165097103Y-94937103D02*
X165097103Y-97500000D01*
X167851731Y-117465335D02*
X167851731Y-124750000D01*
X161500000Y-91340000D02*
X165097103Y-94937103D01*
X167851731Y-124750000D02*
X167851731Y-124851731D01*
X167851731Y-124851731D02*
X168250000Y-125250000D01*
X166568198Y-116181802D02*
X167851731Y-117465335D01*
%TO.N,RXI*%
X167401731Y-129848269D02*
X167000000Y-130250000D01*
X166250000Y-116500000D02*
X167401731Y-117651731D01*
X167401731Y-117651731D02*
X167401731Y-129848269D01*
X164647103Y-100500000D02*
X164647103Y-105250000D01*
X161500000Y-93880000D02*
X164647103Y-97027103D01*
X164647103Y-105250000D02*
X164647103Y-114897103D01*
X164647103Y-97027103D02*
X164647103Y-100500000D01*
X164647103Y-114897103D02*
X166250000Y-116500000D01*
%TO.N,Net-(U1-PadJP7_3)*%
X153000000Y-92040000D02*
X153000000Y-104500000D01*
X152000000Y-116500000D02*
X148000000Y-116500000D01*
X161000000Y-84040000D02*
X153000000Y-92040000D01*
X153000000Y-115500000D02*
X152000000Y-116500000D01*
%TD*%
%TA.AperFunction,Conductor*%
%TO.N,GND*%
G36*
X168433621Y-79528502D02*
G01*
X168480114Y-79582158D01*
X168491500Y-79634500D01*
X168491500Y-116904655D01*
X168471498Y-116972776D01*
X168417842Y-117019269D01*
X168347568Y-117029373D01*
X168285171Y-117001729D01*
X168283113Y-117000026D01*
X168274357Y-116992057D01*
X167394362Y-116112061D01*
X167360338Y-116049751D01*
X167365403Y-115978935D01*
X167409398Y-115921032D01*
X167458072Y-115885668D01*
X167536253Y-115828866D01*
X167556259Y-115806647D01*
X167659621Y-115691852D01*
X167659622Y-115691851D01*
X167664040Y-115686944D01*
X167745445Y-115545947D01*
X167756223Y-115527279D01*
X167756224Y-115527278D01*
X167759527Y-115521556D01*
X167818542Y-115339928D01*
X167824248Y-115285644D01*
X167837814Y-115156565D01*
X167838504Y-115150000D01*
X167822994Y-115002432D01*
X167819232Y-114966635D01*
X167819232Y-114966633D01*
X167818542Y-114960072D01*
X167759527Y-114778444D01*
X167664040Y-114613056D01*
X167655222Y-114603262D01*
X167540675Y-114476045D01*
X167540674Y-114476044D01*
X167536253Y-114471134D01*
X167408620Y-114378403D01*
X167387094Y-114362763D01*
X167387093Y-114362762D01*
X167381752Y-114358882D01*
X167375724Y-114356198D01*
X167375722Y-114356197D01*
X167213319Y-114283891D01*
X167213318Y-114283891D01*
X167207288Y-114281206D01*
X167113887Y-114261353D01*
X167026944Y-114242872D01*
X167026939Y-114242872D01*
X167020487Y-114241500D01*
X166964595Y-114241500D01*
X166896474Y-114221498D01*
X166875499Y-114204595D01*
X166217507Y-113546602D01*
X166183482Y-113484290D01*
X166180603Y-113457507D01*
X166180603Y-92925870D01*
X166181130Y-92914687D01*
X166182805Y-92907194D01*
X166180665Y-92839103D01*
X166180603Y-92835146D01*
X166180603Y-92807247D01*
X166180099Y-92803256D01*
X166179166Y-92791414D01*
X166178026Y-92755139D01*
X166177777Y-92747214D01*
X166175565Y-92739600D01*
X166175564Y-92739595D01*
X166172126Y-92727762D01*
X166168115Y-92708398D01*
X166167249Y-92701538D01*
X166165577Y-92688306D01*
X166162660Y-92680939D01*
X166162659Y-92680934D01*
X166149301Y-92647195D01*
X166145457Y-92635968D01*
X166135333Y-92601125D01*
X166133121Y-92593510D01*
X166122810Y-92576075D01*
X166114115Y-92558327D01*
X166106655Y-92539486D01*
X166080667Y-92503716D01*
X166074151Y-92493796D01*
X166055683Y-92462568D01*
X166055681Y-92462565D01*
X166051645Y-92455741D01*
X166037324Y-92441420D01*
X166024483Y-92426386D01*
X166017234Y-92416409D01*
X166012575Y-92409996D01*
X165978498Y-92381805D01*
X165969719Y-92373815D01*
X162895405Y-89299500D01*
X162861379Y-89237188D01*
X162858500Y-89210405D01*
X162858500Y-87901866D01*
X162851745Y-87839684D01*
X162800615Y-87703295D01*
X162713261Y-87586739D01*
X162596705Y-87499385D01*
X162460316Y-87448255D01*
X162398134Y-87441500D01*
X160601866Y-87441500D01*
X160539684Y-87448255D01*
X160403295Y-87499385D01*
X160286739Y-87586739D01*
X160199385Y-87703295D01*
X160148255Y-87839684D01*
X160141500Y-87901866D01*
X160141500Y-89698134D01*
X160148255Y-89760316D01*
X160199385Y-89896705D01*
X160286739Y-90013261D01*
X160403295Y-90100615D01*
X160411704Y-90103767D01*
X160411705Y-90103768D01*
X160520451Y-90144535D01*
X160577216Y-90187176D01*
X160601916Y-90253738D01*
X160586709Y-90323087D01*
X160567316Y-90349568D01*
X160440629Y-90482138D01*
X160314743Y-90666680D01*
X160220688Y-90869305D01*
X160160989Y-91084570D01*
X160137251Y-91306695D01*
X160137548Y-91311848D01*
X160137548Y-91311851D01*
X160143011Y-91406590D01*
X160150110Y-91529715D01*
X160151247Y-91534761D01*
X160151248Y-91534767D01*
X160165420Y-91597651D01*
X160199222Y-91747639D01*
X160283266Y-91954616D01*
X160318501Y-92012114D01*
X160353897Y-92069875D01*
X160399987Y-92145088D01*
X160546250Y-92313938D01*
X160718126Y-92456632D01*
X160739129Y-92468905D01*
X160791445Y-92499476D01*
X160840169Y-92551114D01*
X160853240Y-92620897D01*
X160826509Y-92686669D01*
X160786055Y-92720027D01*
X160773607Y-92726507D01*
X160769474Y-92729610D01*
X160769471Y-92729612D01*
X160599100Y-92857530D01*
X160594965Y-92860635D01*
X160440629Y-93022138D01*
X160314743Y-93206680D01*
X160282167Y-93276859D01*
X160229131Y-93391117D01*
X160220688Y-93409305D01*
X160160989Y-93624570D01*
X160137251Y-93846695D01*
X160137548Y-93851848D01*
X160137548Y-93851851D01*
X160143011Y-93946590D01*
X160150110Y-94069715D01*
X160151247Y-94074761D01*
X160151248Y-94074767D01*
X160153110Y-94083028D01*
X160199222Y-94287639D01*
X160283266Y-94494616D01*
X160399987Y-94685088D01*
X160546250Y-94853938D01*
X160718126Y-94996632D01*
X160739129Y-95008905D01*
X160791445Y-95039476D01*
X160840169Y-95091114D01*
X160853240Y-95160897D01*
X160826509Y-95226669D01*
X160786055Y-95260027D01*
X160773607Y-95266507D01*
X160769474Y-95269610D01*
X160769471Y-95269612D01*
X160754850Y-95280590D01*
X160594965Y-95400635D01*
X160440629Y-95562138D01*
X160314743Y-95746680D01*
X160282167Y-95816859D01*
X160235848Y-95916646D01*
X160220688Y-95949305D01*
X160160989Y-96164570D01*
X160137251Y-96386695D01*
X160137548Y-96391848D01*
X160137548Y-96391851D01*
X160145780Y-96534616D01*
X160150110Y-96609715D01*
X160151247Y-96614761D01*
X160151248Y-96614767D01*
X160175119Y-96720688D01*
X160199222Y-96827639D01*
X160283266Y-97034616D01*
X160399987Y-97225088D01*
X160546250Y-97393938D01*
X160718126Y-97536632D01*
X160739129Y-97548905D01*
X160791445Y-97579476D01*
X160840169Y-97631114D01*
X160853240Y-97700897D01*
X160826509Y-97766669D01*
X160786055Y-97800027D01*
X160773607Y-97806507D01*
X160769474Y-97809610D01*
X160769471Y-97809612D01*
X160754850Y-97820590D01*
X160594965Y-97940635D01*
X160440629Y-98102138D01*
X160314743Y-98286680D01*
X160312564Y-98291375D01*
X160235848Y-98456646D01*
X160220688Y-98489305D01*
X160160989Y-98704570D01*
X160137251Y-98926695D01*
X160137548Y-98931848D01*
X160137548Y-98931851D01*
X160139543Y-98966453D01*
X160150110Y-99149715D01*
X160151247Y-99154761D01*
X160151248Y-99154767D01*
X160153110Y-99163028D01*
X160199222Y-99367639D01*
X160283266Y-99574616D01*
X160285965Y-99579020D01*
X160377095Y-99727731D01*
X160399987Y-99765088D01*
X160546250Y-99933938D01*
X160718126Y-100076632D01*
X160911000Y-100189338D01*
X161119692Y-100269030D01*
X161124760Y-100270061D01*
X161124763Y-100270062D01*
X161232017Y-100291883D01*
X161338597Y-100313567D01*
X161343772Y-100313757D01*
X161343774Y-100313757D01*
X161556673Y-100321564D01*
X161556677Y-100321564D01*
X161561837Y-100321753D01*
X161566957Y-100321097D01*
X161566959Y-100321097D01*
X161778288Y-100294025D01*
X161778289Y-100294025D01*
X161783416Y-100293368D01*
X161788366Y-100291883D01*
X161992429Y-100230661D01*
X161992434Y-100230659D01*
X161997384Y-100229174D01*
X162197994Y-100130896D01*
X162379860Y-100001173D01*
X162538096Y-99843489D01*
X162541966Y-99838104D01*
X162585280Y-99777825D01*
X162641275Y-99734177D01*
X162711978Y-99727731D01*
X162774942Y-99760534D01*
X162810177Y-99822170D01*
X162813603Y-99851351D01*
X162813603Y-109157972D01*
X162793601Y-109226093D01*
X162776698Y-109247067D01*
X161419171Y-110604595D01*
X161356859Y-110638620D01*
X161330076Y-110641500D01*
X160501866Y-110641500D01*
X160439684Y-110648255D01*
X160303295Y-110699385D01*
X160296110Y-110704770D01*
X160296108Y-110704771D01*
X160225565Y-110757640D01*
X160159058Y-110782488D01*
X160089676Y-110767435D01*
X160074435Y-110757640D01*
X160003892Y-110704771D01*
X160003890Y-110704770D01*
X159996705Y-110699385D01*
X159982022Y-110693880D01*
X159867714Y-110651028D01*
X159867711Y-110651027D01*
X159860316Y-110648255D01*
X159854547Y-110647628D01*
X159793709Y-110612874D01*
X159760887Y-110549919D01*
X159758500Y-110525507D01*
X159758500Y-107484500D01*
X159778502Y-107416379D01*
X159832158Y-107369886D01*
X159884500Y-107358500D01*
X160948134Y-107358500D01*
X161010316Y-107351745D01*
X161146705Y-107300615D01*
X161263261Y-107213261D01*
X161350615Y-107096705D01*
X161401745Y-106960316D01*
X161408500Y-106898134D01*
X161408500Y-104801866D01*
X161401745Y-104739684D01*
X161350615Y-104603295D01*
X161263261Y-104486739D01*
X161146705Y-104399385D01*
X161010316Y-104348255D01*
X160948134Y-104341500D01*
X157051866Y-104341500D01*
X156989684Y-104348255D01*
X156853295Y-104399385D01*
X156736739Y-104486739D01*
X156649385Y-104603295D01*
X156598255Y-104739684D01*
X156591500Y-104801866D01*
X156591500Y-104965500D01*
X156571498Y-105033621D01*
X156517842Y-105080114D01*
X156465500Y-105091500D01*
X153925780Y-105091500D01*
X153857659Y-105071498D01*
X153811166Y-105017842D01*
X153801062Y-104947568D01*
X153816662Y-104902499D01*
X153831222Y-104877281D01*
X153831223Y-104877278D01*
X153834527Y-104871556D01*
X153893542Y-104689928D01*
X153902648Y-104603295D01*
X153912814Y-104506565D01*
X153913504Y-104500000D01*
X153897555Y-104348255D01*
X153894232Y-104316635D01*
X153894232Y-104316633D01*
X153893542Y-104310072D01*
X153834527Y-104128444D01*
X153739040Y-103963056D01*
X153665863Y-103881785D01*
X153635147Y-103817779D01*
X153633500Y-103797476D01*
X153633500Y-92354594D01*
X153653502Y-92286473D01*
X153670405Y-92265499D01*
X160502148Y-85433756D01*
X160564460Y-85399730D01*
X160616363Y-85399380D01*
X160722414Y-85420956D01*
X160832656Y-85443385D01*
X160963324Y-85448176D01*
X161058949Y-85451683D01*
X161058953Y-85451683D01*
X161064113Y-85451872D01*
X161069233Y-85451216D01*
X161069235Y-85451216D01*
X161149918Y-85440880D01*
X161293847Y-85422442D01*
X161298795Y-85420957D01*
X161298802Y-85420956D01*
X161510747Y-85357369D01*
X161515690Y-85355886D01*
X161520424Y-85353567D01*
X161719049Y-85256262D01*
X161719052Y-85256260D01*
X161723684Y-85253991D01*
X161912243Y-85119494D01*
X162076303Y-84956005D01*
X162211458Y-84767917D01*
X162250003Y-84689928D01*
X162311784Y-84564922D01*
X162311785Y-84564920D01*
X162314078Y-84560280D01*
X162381408Y-84338671D01*
X162411640Y-84109041D01*
X162413327Y-84040000D01*
X162398697Y-83862051D01*
X162394773Y-83814318D01*
X162394772Y-83814312D01*
X162394349Y-83809167D01*
X162353468Y-83646411D01*
X162339184Y-83589544D01*
X162339183Y-83589540D01*
X162337925Y-83584533D01*
X162327563Y-83560702D01*
X162247630Y-83376868D01*
X162247628Y-83376865D01*
X162245570Y-83372131D01*
X162119764Y-83177665D01*
X162109224Y-83166081D01*
X162029486Y-83078451D01*
X161998434Y-83014605D01*
X162006829Y-82944106D01*
X162052005Y-82889338D01*
X162078449Y-82875669D01*
X162138054Y-82853324D01*
X162153649Y-82844786D01*
X162255724Y-82768285D01*
X162268285Y-82755724D01*
X162344786Y-82653649D01*
X162353324Y-82638054D01*
X162398478Y-82517606D01*
X162402105Y-82502351D01*
X162407631Y-82451486D01*
X162408000Y-82444672D01*
X162408000Y-81772115D01*
X162403525Y-81756876D01*
X162402135Y-81755671D01*
X162394452Y-81754000D01*
X159610116Y-81754000D01*
X159594877Y-81758475D01*
X159593672Y-81759865D01*
X159592001Y-81767548D01*
X159592001Y-82444669D01*
X159592371Y-82451490D01*
X159597895Y-82502352D01*
X159601521Y-82517604D01*
X159646676Y-82638054D01*
X159655214Y-82653649D01*
X159731715Y-82755724D01*
X159744276Y-82768285D01*
X159846351Y-82844786D01*
X159861946Y-82853324D01*
X159921540Y-82875665D01*
X159978304Y-82918307D01*
X160003004Y-82984868D01*
X159987796Y-83054217D01*
X159968404Y-83080698D01*
X159945719Y-83104437D01*
X159901639Y-83150564D01*
X159898725Y-83154836D01*
X159898724Y-83154837D01*
X159830241Y-83255229D01*
X159771119Y-83341899D01*
X159673602Y-83551981D01*
X159611707Y-83775169D01*
X159587095Y-84005469D01*
X159587392Y-84010622D01*
X159587392Y-84010625D01*
X159593067Y-84109041D01*
X159600427Y-84236697D01*
X159601564Y-84241743D01*
X159601565Y-84241749D01*
X159641623Y-84419498D01*
X159637087Y-84490350D01*
X159607801Y-84536294D01*
X152607747Y-91536348D01*
X152599461Y-91543888D01*
X152592982Y-91548000D01*
X152587557Y-91553777D01*
X152546357Y-91597651D01*
X152543602Y-91600493D01*
X152523865Y-91620230D01*
X152521385Y-91623427D01*
X152513682Y-91632447D01*
X152483414Y-91664679D01*
X152479595Y-91671625D01*
X152479593Y-91671628D01*
X152473652Y-91682434D01*
X152462801Y-91698953D01*
X152450386Y-91714959D01*
X152447241Y-91722228D01*
X152447238Y-91722232D01*
X152432826Y-91755537D01*
X152427609Y-91766187D01*
X152406305Y-91804940D01*
X152404334Y-91812615D01*
X152404334Y-91812616D01*
X152401267Y-91824562D01*
X152394863Y-91843266D01*
X152386819Y-91861855D01*
X152385580Y-91869678D01*
X152385577Y-91869688D01*
X152379901Y-91905524D01*
X152377495Y-91917144D01*
X152366500Y-91959970D01*
X152366500Y-91980224D01*
X152364949Y-91999934D01*
X152361780Y-92019943D01*
X152362526Y-92027835D01*
X152365941Y-92063961D01*
X152366500Y-92075819D01*
X152366500Y-103797476D01*
X152346498Y-103865597D01*
X152334142Y-103881779D01*
X152260960Y-103963056D01*
X152165473Y-104128444D01*
X152106458Y-104310072D01*
X152105768Y-104316633D01*
X152105768Y-104316635D01*
X152102445Y-104348255D01*
X152086496Y-104500000D01*
X152087186Y-104506565D01*
X152097353Y-104603295D01*
X152106458Y-104689928D01*
X152165473Y-104871556D01*
X152168777Y-104877278D01*
X152168778Y-104877281D01*
X152183338Y-104902499D01*
X152200077Y-104971494D01*
X152176857Y-105038586D01*
X152121051Y-105082474D01*
X152074220Y-105091500D01*
X149324209Y-105091500D01*
X149256088Y-105071498D01*
X149226567Y-105045136D01*
X149222960Y-105040713D01*
X149222956Y-105040709D01*
X149219065Y-105035938D01*
X149074658Y-104916474D01*
X149071425Y-104913799D01*
X149071421Y-104913797D01*
X149066675Y-104909870D01*
X148892701Y-104815802D01*
X148703768Y-104757318D01*
X148697646Y-104756675D01*
X148697643Y-104756674D01*
X148652878Y-104751969D01*
X148609836Y-104747446D01*
X148544180Y-104720433D01*
X148533912Y-104711231D01*
X147671276Y-103848595D01*
X147637250Y-103786283D01*
X147642315Y-103715468D01*
X147684862Y-103658632D01*
X147751382Y-103633821D01*
X147760371Y-103633500D01*
X147791800Y-103633500D01*
X147859921Y-103653502D01*
X147879147Y-103669843D01*
X147879420Y-103669540D01*
X147884332Y-103673963D01*
X147888747Y-103678866D01*
X148043248Y-103791118D01*
X148049276Y-103793802D01*
X148049278Y-103793803D01*
X148169507Y-103847332D01*
X148217712Y-103868794D01*
X148311112Y-103888647D01*
X148398056Y-103907128D01*
X148398061Y-103907128D01*
X148404513Y-103908500D01*
X148595487Y-103908500D01*
X148601939Y-103907128D01*
X148601944Y-103907128D01*
X148688887Y-103888647D01*
X148782288Y-103868794D01*
X148830493Y-103847332D01*
X148950722Y-103793803D01*
X148950724Y-103793802D01*
X148956752Y-103791118D01*
X149111253Y-103678866D01*
X149239040Y-103536944D01*
X149334527Y-103371556D01*
X149393542Y-103189928D01*
X149413504Y-103000000D01*
X149393542Y-102810072D01*
X149334527Y-102628444D01*
X149239040Y-102463056D01*
X149111253Y-102321134D01*
X148981601Y-102226936D01*
X148938247Y-102170714D01*
X148932172Y-102099977D01*
X148965304Y-102037186D01*
X148981601Y-102023064D01*
X149105909Y-101932749D01*
X149105911Y-101932747D01*
X149111253Y-101928866D01*
X149239040Y-101786944D01*
X149334527Y-101621556D01*
X149393542Y-101439928D01*
X149413504Y-101250000D01*
X149393542Y-101060072D01*
X149334527Y-100878444D01*
X149239040Y-100713056D01*
X149183962Y-100651885D01*
X149115675Y-100576045D01*
X149115674Y-100576044D01*
X149111253Y-100571134D01*
X148956752Y-100458882D01*
X148950724Y-100456198D01*
X148950722Y-100456197D01*
X148788319Y-100383891D01*
X148788318Y-100383891D01*
X148782288Y-100381206D01*
X148685298Y-100360590D01*
X148601944Y-100342872D01*
X148601939Y-100342872D01*
X148595487Y-100341500D01*
X148404513Y-100341500D01*
X148398061Y-100342872D01*
X148398056Y-100342872D01*
X148314702Y-100360590D01*
X148217712Y-100381206D01*
X148211682Y-100383891D01*
X148211681Y-100383891D01*
X148049278Y-100456197D01*
X148049276Y-100456198D01*
X148043248Y-100458882D01*
X147888747Y-100571134D01*
X147884326Y-100576044D01*
X147884325Y-100576045D01*
X147816039Y-100651885D01*
X147760960Y-100713056D01*
X147665473Y-100878444D01*
X147662941Y-100886238D01*
X147662420Y-100886999D01*
X147660747Y-100890757D01*
X147660060Y-100890451D01*
X147622869Y-100944842D01*
X147557472Y-100972480D01*
X147543108Y-100973301D01*
X146207794Y-100973301D01*
X146139673Y-100953299D01*
X146118699Y-100936396D01*
X145020408Y-99838104D01*
X144986382Y-99775792D01*
X144983503Y-99749009D01*
X144983503Y-89000990D01*
X145003505Y-88932869D01*
X145020408Y-88911895D01*
X148122247Y-85810056D01*
X148130537Y-85802512D01*
X148137018Y-85798399D01*
X148163066Y-85770661D01*
X148183658Y-85748732D01*
X148186413Y-85745890D01*
X148206134Y-85726169D01*
X148208612Y-85722974D01*
X148216318Y-85713952D01*
X148241158Y-85687500D01*
X148246586Y-85681720D01*
X148256346Y-85663967D01*
X148267199Y-85647444D01*
X148274753Y-85637705D01*
X148279613Y-85631440D01*
X148297176Y-85590856D01*
X148302383Y-85580226D01*
X148323695Y-85541459D01*
X148325666Y-85533782D01*
X148325668Y-85533777D01*
X148328732Y-85521841D01*
X148335138Y-85503129D01*
X148340034Y-85491816D01*
X148343181Y-85484544D01*
X148350097Y-85440880D01*
X148352504Y-85429259D01*
X148361528Y-85394110D01*
X148361528Y-85394109D01*
X148363500Y-85386429D01*
X148363500Y-85366168D01*
X148365051Y-85346457D01*
X148366979Y-85334284D01*
X148368219Y-85326456D01*
X148364939Y-85291758D01*
X148378441Y-85222059D01*
X148425397Y-85172168D01*
X148427994Y-85170896D01*
X148609860Y-85041173D01*
X148768096Y-84883489D01*
X148898453Y-84702077D01*
X148899776Y-84703028D01*
X148946645Y-84659857D01*
X149016580Y-84647625D01*
X149082026Y-84675144D01*
X149109875Y-84706994D01*
X149169987Y-84805088D01*
X149316250Y-84973938D01*
X149488126Y-85116632D01*
X149681000Y-85229338D01*
X149889692Y-85309030D01*
X149894760Y-85310061D01*
X149894763Y-85310062D01*
X149975343Y-85326456D01*
X150108597Y-85353567D01*
X150113772Y-85353757D01*
X150113774Y-85353757D01*
X150326673Y-85361564D01*
X150326677Y-85361564D01*
X150331837Y-85361753D01*
X150336957Y-85361097D01*
X150336959Y-85361097D01*
X150548288Y-85334025D01*
X150548289Y-85334025D01*
X150553416Y-85333368D01*
X150558367Y-85331883D01*
X150558370Y-85331882D01*
X150599829Y-85319444D01*
X150670825Y-85319028D01*
X150725131Y-85351035D01*
X152266348Y-86892253D01*
X152273888Y-86900539D01*
X152278000Y-86907018D01*
X152283777Y-86912443D01*
X152327651Y-86953643D01*
X152330493Y-86956398D01*
X152350230Y-86976135D01*
X152353427Y-86978615D01*
X152362447Y-86986318D01*
X152394679Y-87016586D01*
X152401625Y-87020405D01*
X152401628Y-87020407D01*
X152412434Y-87026348D01*
X152428953Y-87037199D01*
X152444959Y-87049614D01*
X152452228Y-87052759D01*
X152452232Y-87052762D01*
X152485537Y-87067174D01*
X152496187Y-87072391D01*
X152534940Y-87093695D01*
X152542625Y-87095668D01*
X152548108Y-87097839D01*
X152595362Y-87130682D01*
X152638747Y-87178866D01*
X152793248Y-87291118D01*
X152799276Y-87293802D01*
X152799278Y-87293803D01*
X152961681Y-87366109D01*
X152967712Y-87368794D01*
X153061112Y-87388647D01*
X153148056Y-87407128D01*
X153148061Y-87407128D01*
X153154513Y-87408500D01*
X153345487Y-87408500D01*
X153351939Y-87407128D01*
X153351944Y-87407128D01*
X153438888Y-87388647D01*
X153532288Y-87368794D01*
X153538319Y-87366109D01*
X153700722Y-87293803D01*
X153700724Y-87293802D01*
X153706752Y-87291118D01*
X153861253Y-87178866D01*
X153961821Y-87067174D01*
X153984621Y-87041852D01*
X153984622Y-87041851D01*
X153989040Y-87036944D01*
X154084527Y-86871556D01*
X154143542Y-86689928D01*
X154163504Y-86500000D01*
X154143542Y-86310072D01*
X154084527Y-86128444D01*
X153989040Y-85963056D01*
X153897827Y-85861753D01*
X153865675Y-85826045D01*
X153865674Y-85826044D01*
X153861253Y-85821134D01*
X153731319Y-85726731D01*
X153712094Y-85712763D01*
X153712093Y-85712762D01*
X153706752Y-85708882D01*
X153700724Y-85706198D01*
X153700722Y-85706197D01*
X153538319Y-85633891D01*
X153538318Y-85633891D01*
X153532288Y-85631206D01*
X153438887Y-85611353D01*
X153351944Y-85592872D01*
X153351939Y-85592872D01*
X153345487Y-85591500D01*
X153154513Y-85591500D01*
X153148061Y-85592872D01*
X153148056Y-85592872D01*
X153061113Y-85611353D01*
X152967712Y-85631206D01*
X152961682Y-85633891D01*
X152961681Y-85633891D01*
X152928777Y-85648541D01*
X152858410Y-85657975D01*
X152794113Y-85627869D01*
X152788433Y-85622529D01*
X152741317Y-85575413D01*
X152707291Y-85513101D01*
X152712356Y-85442286D01*
X152754903Y-85385450D01*
X152821423Y-85360639D01*
X152835024Y-85360403D01*
X152850845Y-85360983D01*
X152866674Y-85361564D01*
X152866678Y-85361564D01*
X152871837Y-85361753D01*
X152876957Y-85361097D01*
X152876959Y-85361097D01*
X153088288Y-85334025D01*
X153088289Y-85334025D01*
X153093416Y-85333368D01*
X153116455Y-85326456D01*
X153302429Y-85270661D01*
X153302434Y-85270659D01*
X153307384Y-85269174D01*
X153507994Y-85170896D01*
X153689860Y-85041173D01*
X153848096Y-84883489D01*
X153978453Y-84702077D01*
X153984458Y-84689928D01*
X154075136Y-84506453D01*
X154075137Y-84506451D01*
X154077430Y-84501811D01*
X154142370Y-84288069D01*
X154171529Y-84066590D01*
X154171611Y-84063240D01*
X154173074Y-84003365D01*
X154173074Y-84003361D01*
X154173156Y-84000000D01*
X154154852Y-83777361D01*
X154100431Y-83560702D01*
X154011354Y-83355840D01*
X153898898Y-83182009D01*
X153892822Y-83172617D01*
X153892820Y-83172614D01*
X153890014Y-83168277D01*
X153739670Y-83003051D01*
X153735619Y-82999852D01*
X153735615Y-82999848D01*
X153568414Y-82867800D01*
X153568410Y-82867798D01*
X153564359Y-82864598D01*
X153523053Y-82841796D01*
X153473084Y-82791364D01*
X153458312Y-82721921D01*
X153483428Y-82655516D01*
X153510780Y-82628909D01*
X153560422Y-82593500D01*
X153689860Y-82501173D01*
X153848096Y-82343489D01*
X153978453Y-82162077D01*
X153982484Y-82153922D01*
X154075136Y-81966453D01*
X154075137Y-81966451D01*
X154077430Y-81961811D01*
X154126950Y-81798823D01*
X154140865Y-81753023D01*
X154140865Y-81753021D01*
X154142370Y-81748069D01*
X154168076Y-81552817D01*
X164987514Y-81552817D01*
X164988095Y-81557837D01*
X164988095Y-81557841D01*
X165011310Y-81758475D01*
X165015415Y-81793956D01*
X165016791Y-81798820D01*
X165016792Y-81798823D01*
X165058914Y-81947680D01*
X165081510Y-82027532D01*
X165083644Y-82032108D01*
X165083646Y-82032114D01*
X165181962Y-82242954D01*
X165184099Y-82247536D01*
X165320544Y-82448307D01*
X165487332Y-82624681D01*
X165491358Y-82627759D01*
X165491359Y-82627760D01*
X165676154Y-82769047D01*
X165676158Y-82769050D01*
X165680174Y-82772120D01*
X165684632Y-82774510D01*
X165684633Y-82774511D01*
X165818905Y-82846507D01*
X165894109Y-82886831D01*
X166123631Y-82965862D01*
X166222978Y-82983022D01*
X166358926Y-83006504D01*
X166358932Y-83006505D01*
X166362836Y-83007179D01*
X166366797Y-83007359D01*
X166366798Y-83007359D01*
X166390506Y-83008436D01*
X166390525Y-83008436D01*
X166391925Y-83008500D01*
X166561001Y-83008500D01*
X166563509Y-83008298D01*
X166563514Y-83008298D01*
X166736924Y-82994346D01*
X166736929Y-82994345D01*
X166741965Y-82993940D01*
X166746873Y-82992734D01*
X166746876Y-82992734D01*
X166972792Y-82937244D01*
X166977706Y-82936037D01*
X166982358Y-82934062D01*
X166982362Y-82934061D01*
X167142446Y-82866109D01*
X167201156Y-82841188D01*
X167307037Y-82774511D01*
X167402288Y-82714528D01*
X167402291Y-82714526D01*
X167406567Y-82711833D01*
X167475139Y-82651379D01*
X167584858Y-82554650D01*
X167584861Y-82554647D01*
X167588655Y-82551302D01*
X167629831Y-82501173D01*
X167739526Y-82367628D01*
X167739528Y-82367625D01*
X167742734Y-82363722D01*
X167864841Y-82153922D01*
X167882613Y-82107625D01*
X167950020Y-81932022D01*
X167950021Y-81932018D01*
X167951833Y-81927298D01*
X167976323Y-81810072D01*
X168000440Y-81694631D01*
X168000440Y-81694627D01*
X168001474Y-81689680D01*
X168012486Y-81447183D01*
X168010712Y-81431851D01*
X167985167Y-81211071D01*
X167985166Y-81211067D01*
X167984585Y-81206044D01*
X167952173Y-81091500D01*
X167919866Y-80977331D01*
X167918490Y-80972468D01*
X167916356Y-80967892D01*
X167916354Y-80967886D01*
X167818038Y-80757046D01*
X167818036Y-80757042D01*
X167815901Y-80752464D01*
X167679456Y-80551693D01*
X167512668Y-80375319D01*
X167495177Y-80361946D01*
X167323846Y-80230953D01*
X167323842Y-80230950D01*
X167319826Y-80227880D01*
X167303521Y-80219137D01*
X167110352Y-80115561D01*
X167105891Y-80113169D01*
X166876369Y-80034138D01*
X166777022Y-80016978D01*
X166641074Y-79993496D01*
X166641068Y-79993495D01*
X166637164Y-79992821D01*
X166633203Y-79992641D01*
X166633202Y-79992641D01*
X166609494Y-79991564D01*
X166609475Y-79991564D01*
X166608075Y-79991500D01*
X166438999Y-79991500D01*
X166436491Y-79991702D01*
X166436486Y-79991702D01*
X166263076Y-80005654D01*
X166263071Y-80005655D01*
X166258035Y-80006060D01*
X166253127Y-80007266D01*
X166253124Y-80007266D01*
X166137007Y-80035787D01*
X166022294Y-80063963D01*
X166017642Y-80065938D01*
X166017638Y-80065939D01*
X165930727Y-80102831D01*
X165798844Y-80158812D01*
X165794560Y-80161510D01*
X165597712Y-80285472D01*
X165597709Y-80285474D01*
X165593433Y-80288167D01*
X165589639Y-80291512D01*
X165415142Y-80445350D01*
X165415139Y-80445353D01*
X165411345Y-80448698D01*
X165408135Y-80452606D01*
X165408134Y-80452607D01*
X165266976Y-80624457D01*
X165257266Y-80636278D01*
X165240683Y-80664771D01*
X165155289Y-80811492D01*
X165135159Y-80846078D01*
X165133346Y-80850801D01*
X165052327Y-81061866D01*
X165048167Y-81072702D01*
X165047133Y-81077652D01*
X165047132Y-81077655D01*
X165010534Y-81252842D01*
X164998526Y-81310320D01*
X164987514Y-81552817D01*
X154168076Y-81552817D01*
X154171529Y-81526590D01*
X154173156Y-81460000D01*
X154154852Y-81237361D01*
X154152472Y-81227885D01*
X159592000Y-81227885D01*
X159596475Y-81243124D01*
X159597865Y-81244329D01*
X159605548Y-81246000D01*
X160727885Y-81246000D01*
X160743124Y-81241525D01*
X160744329Y-81240135D01*
X160746000Y-81232452D01*
X160746000Y-81227885D01*
X161254000Y-81227885D01*
X161258475Y-81243124D01*
X161259865Y-81244329D01*
X161267548Y-81246000D01*
X162389884Y-81246000D01*
X162405123Y-81241525D01*
X162406328Y-81240135D01*
X162407999Y-81232452D01*
X162407999Y-80555331D01*
X162407629Y-80548510D01*
X162402105Y-80497648D01*
X162398479Y-80482396D01*
X162353324Y-80361946D01*
X162344786Y-80346351D01*
X162268285Y-80244276D01*
X162255724Y-80231715D01*
X162153649Y-80155214D01*
X162138054Y-80146676D01*
X162017606Y-80101522D01*
X162002351Y-80097895D01*
X161951486Y-80092369D01*
X161944672Y-80092000D01*
X161272115Y-80092000D01*
X161256876Y-80096475D01*
X161255671Y-80097865D01*
X161254000Y-80105548D01*
X161254000Y-81227885D01*
X160746000Y-81227885D01*
X160746000Y-80110116D01*
X160741525Y-80094877D01*
X160740135Y-80093672D01*
X160732452Y-80092001D01*
X160055331Y-80092001D01*
X160048510Y-80092371D01*
X159997648Y-80097895D01*
X159982396Y-80101521D01*
X159861946Y-80146676D01*
X159846351Y-80155214D01*
X159744276Y-80231715D01*
X159731715Y-80244276D01*
X159655214Y-80346351D01*
X159646676Y-80361946D01*
X159601522Y-80482394D01*
X159597895Y-80497649D01*
X159592369Y-80548514D01*
X159592000Y-80555328D01*
X159592000Y-81227885D01*
X154152472Y-81227885D01*
X154100431Y-81020702D01*
X154011354Y-80815840D01*
X153890014Y-80628277D01*
X153739670Y-80463051D01*
X153735619Y-80459852D01*
X153735615Y-80459848D01*
X153568414Y-80327800D01*
X153568410Y-80327798D01*
X153564359Y-80324598D01*
X153368789Y-80216638D01*
X153363920Y-80214914D01*
X153363916Y-80214912D01*
X153163087Y-80143795D01*
X153163083Y-80143794D01*
X153158212Y-80142069D01*
X153153119Y-80141162D01*
X153153116Y-80141161D01*
X152943373Y-80103800D01*
X152943367Y-80103799D01*
X152938284Y-80102894D01*
X152864452Y-80101992D01*
X152720081Y-80100228D01*
X152720079Y-80100228D01*
X152714911Y-80100165D01*
X152494091Y-80133955D01*
X152281756Y-80203357D01*
X152083607Y-80306507D01*
X152079474Y-80309610D01*
X152079471Y-80309612D01*
X151909100Y-80437530D01*
X151904965Y-80440635D01*
X151750629Y-80602138D01*
X151643201Y-80759621D01*
X151588293Y-80804621D01*
X151517768Y-80812792D01*
X151454021Y-80781538D01*
X151433324Y-80757054D01*
X151352822Y-80632617D01*
X151352820Y-80632614D01*
X151350014Y-80628277D01*
X151199670Y-80463051D01*
X151195619Y-80459852D01*
X151195615Y-80459848D01*
X151028414Y-80327800D01*
X151028410Y-80327798D01*
X151024359Y-80324598D01*
X150828789Y-80216638D01*
X150823920Y-80214914D01*
X150823916Y-80214912D01*
X150623087Y-80143795D01*
X150623083Y-80143794D01*
X150618212Y-80142069D01*
X150613119Y-80141162D01*
X150613116Y-80141161D01*
X150403373Y-80103800D01*
X150403367Y-80103799D01*
X150398284Y-80102894D01*
X150324452Y-80101992D01*
X150180081Y-80100228D01*
X150180079Y-80100228D01*
X150174911Y-80100165D01*
X149954091Y-80133955D01*
X149741756Y-80203357D01*
X149543607Y-80306507D01*
X149539474Y-80309610D01*
X149539471Y-80309612D01*
X149369100Y-80437530D01*
X149364965Y-80440635D01*
X149210629Y-80602138D01*
X149103201Y-80759621D01*
X149048293Y-80804621D01*
X148977768Y-80812792D01*
X148914021Y-80781538D01*
X148893324Y-80757054D01*
X148812822Y-80632617D01*
X148812820Y-80632614D01*
X148810014Y-80628277D01*
X148659670Y-80463051D01*
X148655619Y-80459852D01*
X148655615Y-80459848D01*
X148488414Y-80327800D01*
X148488410Y-80327798D01*
X148484359Y-80324598D01*
X148288789Y-80216638D01*
X148283920Y-80214914D01*
X148283916Y-80214912D01*
X148083087Y-80143795D01*
X148083083Y-80143794D01*
X148078212Y-80142069D01*
X148073119Y-80141162D01*
X148073116Y-80141161D01*
X147863373Y-80103800D01*
X147863367Y-80103799D01*
X147858284Y-80102894D01*
X147784452Y-80101992D01*
X147640081Y-80100228D01*
X147640079Y-80100228D01*
X147634911Y-80100165D01*
X147414091Y-80133955D01*
X147201756Y-80203357D01*
X147003607Y-80306507D01*
X146999474Y-80309610D01*
X146999471Y-80309612D01*
X146829100Y-80437530D01*
X146824965Y-80440635D01*
X146670629Y-80602138D01*
X146563201Y-80759621D01*
X146508293Y-80804621D01*
X146437768Y-80812792D01*
X146374021Y-80781538D01*
X146353324Y-80757054D01*
X146272822Y-80632617D01*
X146272820Y-80632614D01*
X146270014Y-80628277D01*
X146119670Y-80463051D01*
X146115619Y-80459852D01*
X146115615Y-80459848D01*
X145948414Y-80327800D01*
X145948410Y-80327798D01*
X145944359Y-80324598D01*
X145748789Y-80216638D01*
X145743920Y-80214914D01*
X145743916Y-80214912D01*
X145543087Y-80143795D01*
X145543083Y-80143794D01*
X145538212Y-80142069D01*
X145533119Y-80141162D01*
X145533116Y-80141161D01*
X145323373Y-80103800D01*
X145323367Y-80103799D01*
X145318284Y-80102894D01*
X145244452Y-80101992D01*
X145100081Y-80100228D01*
X145100079Y-80100228D01*
X145094911Y-80100165D01*
X144874091Y-80133955D01*
X144661756Y-80203357D01*
X144463607Y-80306507D01*
X144459474Y-80309610D01*
X144459471Y-80309612D01*
X144289100Y-80437530D01*
X144284965Y-80440635D01*
X144130629Y-80602138D01*
X144004743Y-80786680D01*
X143910688Y-80989305D01*
X143850989Y-81204570D01*
X143827251Y-81426695D01*
X143827548Y-81431848D01*
X143827548Y-81431851D01*
X143829365Y-81463365D01*
X143840110Y-81649715D01*
X143841247Y-81654760D01*
X143841966Y-81659877D01*
X143840518Y-81660081D01*
X143836398Y-81724274D01*
X143807119Y-81770200D01*
X142836092Y-82741227D01*
X142821680Y-82753613D01*
X142810085Y-82762146D01*
X142810080Y-82762151D01*
X142804185Y-82766489D01*
X142799446Y-82772067D01*
X142799443Y-82772070D01*
X142769968Y-82806765D01*
X142763038Y-82814281D01*
X142757343Y-82819976D01*
X142755063Y-82822858D01*
X142739722Y-82842248D01*
X142736931Y-82845652D01*
X142716105Y-82870166D01*
X142689670Y-82901282D01*
X142686342Y-82907798D01*
X142682975Y-82912847D01*
X142679808Y-82917976D01*
X142675269Y-82923713D01*
X142644348Y-82989872D01*
X142642445Y-82993766D01*
X142609234Y-83058805D01*
X142607495Y-83065913D01*
X142605396Y-83071556D01*
X142603479Y-83077319D01*
X142600381Y-83083947D01*
X142598891Y-83091109D01*
X142598891Y-83091110D01*
X142585517Y-83155409D01*
X142584547Y-83159693D01*
X142567195Y-83230607D01*
X142566503Y-83241761D01*
X142566467Y-83241759D01*
X142566228Y-83245752D01*
X142565854Y-83249944D01*
X142564363Y-83257112D01*
X142564561Y-83264429D01*
X142566457Y-83334518D01*
X142566503Y-83337925D01*
X142566503Y-100507933D01*
X142565070Y-100526883D01*
X142561804Y-100548352D01*
X142562397Y-100555644D01*
X142562397Y-100555647D01*
X142566088Y-100601021D01*
X142566503Y-100611236D01*
X142566503Y-100619296D01*
X142566928Y-100622940D01*
X142569792Y-100647510D01*
X142570225Y-100651885D01*
X142575201Y-100713056D01*
X142576143Y-100724640D01*
X142578399Y-100731604D01*
X142579590Y-100737563D01*
X142580974Y-100743418D01*
X142581821Y-100750684D01*
X142606738Y-100819330D01*
X142608155Y-100823458D01*
X142630652Y-100892902D01*
X142634448Y-100899157D01*
X142636954Y-100904631D01*
X142639673Y-100910061D01*
X142642170Y-100916940D01*
X142646183Y-100923060D01*
X142646183Y-100923061D01*
X142682189Y-100977979D01*
X142684526Y-100981683D01*
X142722408Y-101044110D01*
X142726124Y-101048318D01*
X142726125Y-101048319D01*
X142729806Y-101052487D01*
X142729779Y-101052511D01*
X142732432Y-101055503D01*
X142735135Y-101058736D01*
X142739147Y-101064855D01*
X142744459Y-101069887D01*
X142795386Y-101118131D01*
X142797828Y-101120509D01*
X145334688Y-103657369D01*
X145368714Y-103719681D01*
X145363649Y-103790496D01*
X145321102Y-103847332D01*
X145271791Y-103869710D01*
X145224176Y-103879831D01*
X145224167Y-103879834D01*
X145217712Y-103881206D01*
X145211682Y-103883891D01*
X145211681Y-103883891D01*
X145049278Y-103956197D01*
X145049276Y-103956198D01*
X145043248Y-103958882D01*
X144888747Y-104071134D01*
X144760960Y-104213056D01*
X144665473Y-104378444D01*
X144606458Y-104560072D01*
X144605768Y-104566633D01*
X144605768Y-104566635D01*
X144592810Y-104689928D01*
X144586496Y-104750000D01*
X144587186Y-104756565D01*
X144599874Y-104877281D01*
X144606458Y-104939928D01*
X144665473Y-105121556D01*
X144760960Y-105286944D01*
X144834137Y-105368215D01*
X144864853Y-105432221D01*
X144866500Y-105452524D01*
X144866500Y-107714507D01*
X144865973Y-107725690D01*
X144864298Y-107733183D01*
X144864547Y-107741109D01*
X144864547Y-107741110D01*
X144866438Y-107801260D01*
X144866500Y-107805219D01*
X144866500Y-107833130D01*
X144866997Y-107837064D01*
X144866997Y-107837065D01*
X144867005Y-107837130D01*
X144867938Y-107848967D01*
X144869327Y-107893163D01*
X144874978Y-107912613D01*
X144878987Y-107931974D01*
X144881526Y-107952071D01*
X144884445Y-107959442D01*
X144884445Y-107959444D01*
X144897804Y-107993186D01*
X144901649Y-108004416D01*
X144913982Y-108046867D01*
X144918015Y-108053686D01*
X144918017Y-108053691D01*
X144924293Y-108064302D01*
X144932988Y-108082050D01*
X144940448Y-108100891D01*
X144945110Y-108107307D01*
X144945110Y-108107308D01*
X144966436Y-108136661D01*
X144972952Y-108146581D01*
X144995458Y-108184636D01*
X145001064Y-108190243D01*
X145009780Y-108198959D01*
X145022620Y-108213992D01*
X145034528Y-108230381D01*
X145051594Y-108244499D01*
X145068593Y-108258562D01*
X145077374Y-108266552D01*
X145433592Y-108622771D01*
X145433607Y-108622785D01*
X149437226Y-112626405D01*
X149471252Y-112688717D01*
X149466187Y-112759533D01*
X149423640Y-112816368D01*
X149357120Y-112841179D01*
X149348131Y-112841500D01*
X148736650Y-112841500D01*
X148668529Y-112821498D01*
X148647555Y-112804595D01*
X137861288Y-102018328D01*
X137827262Y-101956016D01*
X137832327Y-101885201D01*
X137848060Y-101855707D01*
X137955435Y-101706277D01*
X137958453Y-101702077D01*
X138057430Y-101501811D01*
X138122370Y-101288069D01*
X138151529Y-101066590D01*
X138151874Y-101052487D01*
X138153074Y-101003365D01*
X138153074Y-101003361D01*
X138153156Y-101000000D01*
X138134852Y-100777361D01*
X138080431Y-100560702D01*
X137991354Y-100355840D01*
X137870014Y-100168277D01*
X137850117Y-100146410D01*
X137831306Y-100125737D01*
X137800254Y-100061891D01*
X137798500Y-100040938D01*
X137798500Y-99423970D01*
X137818502Y-99355849D01*
X137826460Y-99345120D01*
X137828096Y-99343489D01*
X137958453Y-99162077D01*
X137979320Y-99119857D01*
X138055136Y-98966453D01*
X138055137Y-98966451D01*
X138057430Y-98961811D01*
X138122370Y-98748069D01*
X138151529Y-98526590D01*
X138153156Y-98460000D01*
X138134852Y-98237361D01*
X138080431Y-98020702D01*
X137991354Y-97815840D01*
X137870014Y-97628277D01*
X137850117Y-97606410D01*
X137831306Y-97585737D01*
X137800254Y-97521891D01*
X137798500Y-97500938D01*
X137798500Y-96883970D01*
X137818502Y-96815849D01*
X137826460Y-96805120D01*
X137828096Y-96803489D01*
X137958453Y-96622077D01*
X137979320Y-96579857D01*
X138055136Y-96426453D01*
X138055137Y-96426451D01*
X138057430Y-96421811D01*
X138122370Y-96208069D01*
X138151529Y-95986590D01*
X138153156Y-95920000D01*
X138134852Y-95697361D01*
X138080431Y-95480702D01*
X137991354Y-95275840D01*
X137870014Y-95088277D01*
X137850117Y-95066410D01*
X137831306Y-95045737D01*
X137800254Y-94981891D01*
X137798500Y-94960938D01*
X137798500Y-94343970D01*
X137818502Y-94275849D01*
X137826460Y-94265120D01*
X137828096Y-94263489D01*
X137958453Y-94082077D01*
X137979320Y-94039857D01*
X138055136Y-93886453D01*
X138055137Y-93886451D01*
X138057430Y-93881811D01*
X138122370Y-93668069D01*
X138151529Y-93446590D01*
X138152845Y-93392727D01*
X138153074Y-93383365D01*
X138153074Y-93383361D01*
X138153156Y-93380000D01*
X138134852Y-93157361D01*
X138080431Y-92940702D01*
X137991354Y-92735840D01*
X137870014Y-92548277D01*
X137850117Y-92526410D01*
X137831306Y-92505737D01*
X137800254Y-92441891D01*
X137798500Y-92420938D01*
X137798500Y-92261009D01*
X137818502Y-92192888D01*
X137872158Y-92146395D01*
X137877694Y-92144097D01*
X137878297Y-92143767D01*
X137886705Y-92140615D01*
X138003261Y-92053261D01*
X138090615Y-91936705D01*
X138141745Y-91800316D01*
X138148500Y-91738134D01*
X138148500Y-89941866D01*
X138141745Y-89879684D01*
X138090615Y-89743295D01*
X138003261Y-89626739D01*
X137886705Y-89539385D01*
X137750316Y-89488255D01*
X137688134Y-89481500D01*
X135891866Y-89481500D01*
X135829684Y-89488255D01*
X135693295Y-89539385D01*
X135595565Y-89612630D01*
X135529059Y-89637478D01*
X135459676Y-89622425D01*
X135444435Y-89612630D01*
X135346705Y-89539385D01*
X135210316Y-89488255D01*
X135148134Y-89481500D01*
X133351866Y-89481500D01*
X133289684Y-89488255D01*
X133153295Y-89539385D01*
X133036739Y-89626739D01*
X132949385Y-89743295D01*
X132898255Y-89879684D01*
X132891500Y-89941866D01*
X132891500Y-91250405D01*
X132871498Y-91318526D01*
X132854595Y-91339500D01*
X130957747Y-93236348D01*
X130949461Y-93243888D01*
X130942982Y-93248000D01*
X130937557Y-93253777D01*
X130896357Y-93297651D01*
X130893602Y-93300493D01*
X130873865Y-93320230D01*
X130871385Y-93323427D01*
X130863682Y-93332447D01*
X130833414Y-93364679D01*
X130829595Y-93371625D01*
X130829593Y-93371628D01*
X130823652Y-93382434D01*
X130812801Y-93398953D01*
X130800386Y-93414959D01*
X130797241Y-93422228D01*
X130797238Y-93422232D01*
X130782826Y-93455537D01*
X130777609Y-93466187D01*
X130756305Y-93504940D01*
X130754334Y-93512615D01*
X130754334Y-93512616D01*
X130751267Y-93524562D01*
X130744863Y-93543266D01*
X130740431Y-93553509D01*
X130736819Y-93561855D01*
X130735580Y-93569678D01*
X130735577Y-93569688D01*
X130729901Y-93605524D01*
X130727495Y-93617144D01*
X130719385Y-93648733D01*
X130716500Y-93659970D01*
X130716500Y-93680224D01*
X130714949Y-93699934D01*
X130711780Y-93719943D01*
X130712526Y-93727835D01*
X130715941Y-93763961D01*
X130716500Y-93775819D01*
X130716500Y-122044025D01*
X130715973Y-122055208D01*
X130714298Y-122062701D01*
X130714547Y-122070627D01*
X130714547Y-122070628D01*
X130716438Y-122130778D01*
X130716500Y-122134737D01*
X130716500Y-122162648D01*
X130716997Y-122166582D01*
X130716997Y-122166583D01*
X130717005Y-122166648D01*
X130717938Y-122178485D01*
X130719327Y-122222681D01*
X130724978Y-122242131D01*
X130728987Y-122261492D01*
X130731526Y-122281589D01*
X130734445Y-122288960D01*
X130734445Y-122288962D01*
X130747804Y-122322704D01*
X130751649Y-122333934D01*
X130763982Y-122376385D01*
X130768015Y-122383204D01*
X130768017Y-122383209D01*
X130774293Y-122393820D01*
X130782988Y-122411568D01*
X130790448Y-122430409D01*
X130795110Y-122436825D01*
X130795110Y-122436826D01*
X130816436Y-122466179D01*
X130822952Y-122476099D01*
X130838271Y-122502001D01*
X130845458Y-122514154D01*
X130859779Y-122528475D01*
X130872619Y-122543508D01*
X130884528Y-122559899D01*
X130890634Y-122564950D01*
X130918605Y-122588090D01*
X130927384Y-122596080D01*
X133089595Y-124758291D01*
X133123621Y-124820603D01*
X133126500Y-124847386D01*
X133126500Y-135240447D01*
X133106498Y-135308568D01*
X133058683Y-135352208D01*
X132985590Y-135390258D01*
X132981457Y-135393361D01*
X132981454Y-135393363D01*
X132955637Y-135412747D01*
X132795140Y-135533252D01*
X132630602Y-135705431D01*
X132627691Y-135709699D01*
X132627687Y-135709704D01*
X132596497Y-135755427D01*
X132496394Y-135902172D01*
X132396122Y-136118191D01*
X132332477Y-136347685D01*
X132331928Y-136352819D01*
X132331928Y-136352821D01*
X132326449Y-136404089D01*
X132307170Y-136584494D01*
X132307467Y-136589646D01*
X132307467Y-136589650D01*
X132313502Y-136694313D01*
X132320879Y-136822255D01*
X132322016Y-136827301D01*
X132322017Y-136827307D01*
X132355111Y-136974156D01*
X132373237Y-137054585D01*
X132375179Y-137059367D01*
X132375180Y-137059371D01*
X132460893Y-137270457D01*
X132462837Y-137275244D01*
X132587274Y-137478306D01*
X132743204Y-137658317D01*
X132926442Y-137810444D01*
X132930894Y-137813046D01*
X132930899Y-137813049D01*
X133043759Y-137878999D01*
X133132065Y-137930601D01*
X133354552Y-138015560D01*
X133359618Y-138016591D01*
X133359619Y-138016591D01*
X133413956Y-138027646D01*
X133587928Y-138063041D01*
X133722121Y-138067962D01*
X133820760Y-138071579D01*
X133820764Y-138071579D01*
X133825924Y-138071768D01*
X133831044Y-138071112D01*
X133831046Y-138071112D01*
X134057023Y-138042164D01*
X134057024Y-138042164D01*
X134062151Y-138041507D01*
X134145200Y-138016591D01*
X134285316Y-137974554D01*
X134285317Y-137974553D01*
X134290262Y-137973070D01*
X134504133Y-137868295D01*
X134508336Y-137865297D01*
X134508341Y-137865294D01*
X134693816Y-137732996D01*
X134693818Y-137732994D01*
X134698020Y-137729997D01*
X134866716Y-137561889D01*
X134924979Y-137480807D01*
X134980972Y-137437160D01*
X135051676Y-137430714D01*
X135114640Y-137463516D01*
X135126582Y-137477176D01*
X135127274Y-137478306D01*
X135283204Y-137658317D01*
X135466442Y-137810444D01*
X135470894Y-137813046D01*
X135470899Y-137813049D01*
X135583759Y-137878999D01*
X135672065Y-137930601D01*
X135894552Y-138015560D01*
X135899618Y-138016591D01*
X135899619Y-138016591D01*
X135953956Y-138027646D01*
X136127928Y-138063041D01*
X136262121Y-138067962D01*
X136360760Y-138071579D01*
X136360764Y-138071579D01*
X136365924Y-138071768D01*
X136371044Y-138071112D01*
X136371046Y-138071112D01*
X136597023Y-138042164D01*
X136597024Y-138042164D01*
X136602151Y-138041507D01*
X136685200Y-138016591D01*
X136825316Y-137974554D01*
X136825317Y-137974553D01*
X136830262Y-137973070D01*
X137044133Y-137868295D01*
X137048336Y-137865297D01*
X137048341Y-137865294D01*
X137233816Y-137732996D01*
X137233818Y-137732994D01*
X137238020Y-137729997D01*
X137406716Y-137561889D01*
X137464979Y-137480807D01*
X137520972Y-137437160D01*
X137591676Y-137430714D01*
X137654640Y-137463516D01*
X137666582Y-137477176D01*
X137667274Y-137478306D01*
X137823204Y-137658317D01*
X138006442Y-137810444D01*
X138010894Y-137813046D01*
X138010899Y-137813049D01*
X138123759Y-137878999D01*
X138212065Y-137930601D01*
X138434552Y-138015560D01*
X138439618Y-138016591D01*
X138439619Y-138016591D01*
X138493956Y-138027646D01*
X138667928Y-138063041D01*
X138802121Y-138067962D01*
X138900760Y-138071579D01*
X138900764Y-138071579D01*
X138905924Y-138071768D01*
X138911044Y-138071112D01*
X138911046Y-138071112D01*
X139137023Y-138042164D01*
X139137024Y-138042164D01*
X139142151Y-138041507D01*
X139225200Y-138016591D01*
X139365316Y-137974554D01*
X139365317Y-137974553D01*
X139370262Y-137973070D01*
X139584133Y-137868295D01*
X139588336Y-137865297D01*
X139588341Y-137865294D01*
X139773816Y-137732996D01*
X139773818Y-137732994D01*
X139778020Y-137729997D01*
X139946716Y-137561889D01*
X140004979Y-137480807D01*
X140060972Y-137437160D01*
X140131676Y-137430714D01*
X140194640Y-137463516D01*
X140206582Y-137477176D01*
X140207274Y-137478306D01*
X140363204Y-137658317D01*
X140546442Y-137810444D01*
X140550894Y-137813046D01*
X140550899Y-137813049D01*
X140663759Y-137878999D01*
X140752065Y-137930601D01*
X140974552Y-138015560D01*
X140979618Y-138016591D01*
X140979619Y-138016591D01*
X141033956Y-138027646D01*
X141207928Y-138063041D01*
X141342121Y-138067962D01*
X141440760Y-138071579D01*
X141440764Y-138071579D01*
X141445924Y-138071768D01*
X141451044Y-138071112D01*
X141451046Y-138071112D01*
X141677023Y-138042164D01*
X141677024Y-138042164D01*
X141682151Y-138041507D01*
X141765200Y-138016591D01*
X141905316Y-137974554D01*
X141905317Y-137974553D01*
X141910262Y-137973070D01*
X142124133Y-137868295D01*
X142128336Y-137865297D01*
X142128341Y-137865294D01*
X142313816Y-137732996D01*
X142313818Y-137732994D01*
X142318020Y-137729997D01*
X142486716Y-137561889D01*
X142544979Y-137480807D01*
X142600972Y-137437160D01*
X142671676Y-137430714D01*
X142734640Y-137463516D01*
X142746582Y-137477176D01*
X142747274Y-137478306D01*
X142903204Y-137658317D01*
X143086442Y-137810444D01*
X143090894Y-137813046D01*
X143090899Y-137813049D01*
X143203759Y-137878999D01*
X143292065Y-137930601D01*
X143514552Y-138015560D01*
X143519618Y-138016591D01*
X143519619Y-138016591D01*
X143573956Y-138027646D01*
X143747928Y-138063041D01*
X143882121Y-138067962D01*
X143980760Y-138071579D01*
X143980764Y-138071579D01*
X143985924Y-138071768D01*
X143991044Y-138071112D01*
X143991046Y-138071112D01*
X144217023Y-138042164D01*
X144217024Y-138042164D01*
X144222151Y-138041507D01*
X144305200Y-138016591D01*
X144445316Y-137974554D01*
X144445317Y-137974553D01*
X144450262Y-137973070D01*
X144664133Y-137868295D01*
X144668336Y-137865297D01*
X144668341Y-137865294D01*
X144853816Y-137732996D01*
X144853818Y-137732994D01*
X144858020Y-137729997D01*
X145026716Y-137561889D01*
X145084979Y-137480807D01*
X145140972Y-137437160D01*
X145211676Y-137430714D01*
X145274640Y-137463516D01*
X145286582Y-137477176D01*
X145287274Y-137478306D01*
X145443204Y-137658317D01*
X145626442Y-137810444D01*
X145630894Y-137813046D01*
X145630899Y-137813049D01*
X145743759Y-137878999D01*
X145832065Y-137930601D01*
X146054552Y-138015560D01*
X146059618Y-138016591D01*
X146059619Y-138016591D01*
X146113956Y-138027646D01*
X146287928Y-138063041D01*
X146422121Y-138067962D01*
X146520760Y-138071579D01*
X146520764Y-138071579D01*
X146525924Y-138071768D01*
X146531044Y-138071112D01*
X146531046Y-138071112D01*
X146757023Y-138042164D01*
X146757024Y-138042164D01*
X146762151Y-138041507D01*
X146845200Y-138016591D01*
X146985316Y-137974554D01*
X146985317Y-137974553D01*
X146990262Y-137973070D01*
X147204133Y-137868295D01*
X147208336Y-137865297D01*
X147208341Y-137865294D01*
X147393816Y-137732996D01*
X147393818Y-137732994D01*
X147398020Y-137729997D01*
X147566716Y-137561889D01*
X147624979Y-137480807D01*
X147680972Y-137437160D01*
X147751676Y-137430714D01*
X147814640Y-137463516D01*
X147826582Y-137477176D01*
X147827274Y-137478306D01*
X147983204Y-137658317D01*
X148166442Y-137810444D01*
X148170894Y-137813046D01*
X148170899Y-137813049D01*
X148283759Y-137878999D01*
X148372065Y-137930601D01*
X148594552Y-138015560D01*
X148599618Y-138016591D01*
X148599619Y-138016591D01*
X148653956Y-138027646D01*
X148827928Y-138063041D01*
X148962121Y-138067962D01*
X149060760Y-138071579D01*
X149060764Y-138071579D01*
X149065924Y-138071768D01*
X149071044Y-138071112D01*
X149071046Y-138071112D01*
X149297023Y-138042164D01*
X149297024Y-138042164D01*
X149302151Y-138041507D01*
X149385200Y-138016591D01*
X149525316Y-137974554D01*
X149525317Y-137974553D01*
X149530262Y-137973070D01*
X149744133Y-137868295D01*
X149748336Y-137865297D01*
X149748341Y-137865294D01*
X149933816Y-137732996D01*
X149933818Y-137732994D01*
X149938020Y-137729997D01*
X150106716Y-137561889D01*
X150164979Y-137480807D01*
X150220972Y-137437160D01*
X150291676Y-137430714D01*
X150354640Y-137463516D01*
X150366582Y-137477176D01*
X150367274Y-137478306D01*
X150523204Y-137658317D01*
X150706442Y-137810444D01*
X150710894Y-137813046D01*
X150710899Y-137813049D01*
X150823759Y-137878999D01*
X150912065Y-137930601D01*
X151134552Y-138015560D01*
X151139618Y-138016591D01*
X151139619Y-138016591D01*
X151193956Y-138027646D01*
X151367928Y-138063041D01*
X151502121Y-138067962D01*
X151600760Y-138071579D01*
X151600764Y-138071579D01*
X151605924Y-138071768D01*
X151611044Y-138071112D01*
X151611046Y-138071112D01*
X151837023Y-138042164D01*
X151837024Y-138042164D01*
X151842151Y-138041507D01*
X151925200Y-138016591D01*
X152065316Y-137974554D01*
X152065317Y-137974553D01*
X152070262Y-137973070D01*
X152284133Y-137868295D01*
X152288336Y-137865297D01*
X152288341Y-137865294D01*
X152473816Y-137732996D01*
X152473818Y-137732994D01*
X152478020Y-137729997D01*
X152646716Y-137561889D01*
X152704979Y-137480807D01*
X152760972Y-137437160D01*
X152831676Y-137430714D01*
X152894640Y-137463516D01*
X152906582Y-137477176D01*
X152907274Y-137478306D01*
X153063204Y-137658317D01*
X153246442Y-137810444D01*
X153250894Y-137813046D01*
X153250899Y-137813049D01*
X153363759Y-137878999D01*
X153452065Y-137930601D01*
X153674552Y-138015560D01*
X153679618Y-138016591D01*
X153679619Y-138016591D01*
X153733956Y-138027646D01*
X153907928Y-138063041D01*
X154042121Y-138067962D01*
X154140760Y-138071579D01*
X154140764Y-138071579D01*
X154145924Y-138071768D01*
X154151044Y-138071112D01*
X154151046Y-138071112D01*
X154377023Y-138042164D01*
X154377024Y-138042164D01*
X154382151Y-138041507D01*
X154465200Y-138016591D01*
X154605316Y-137974554D01*
X154605317Y-137974553D01*
X154610262Y-137973070D01*
X154824133Y-137868295D01*
X154828336Y-137865297D01*
X154828341Y-137865294D01*
X155013816Y-137732996D01*
X155013818Y-137732994D01*
X155018020Y-137729997D01*
X155186716Y-137561889D01*
X155244979Y-137480807D01*
X155300972Y-137437160D01*
X155371676Y-137430714D01*
X155434640Y-137463516D01*
X155446582Y-137477176D01*
X155447274Y-137478306D01*
X155603204Y-137658317D01*
X155786442Y-137810444D01*
X155790894Y-137813046D01*
X155790899Y-137813049D01*
X155903759Y-137878999D01*
X155992065Y-137930601D01*
X156214552Y-138015560D01*
X156219618Y-138016591D01*
X156219619Y-138016591D01*
X156273956Y-138027646D01*
X156447928Y-138063041D01*
X156582121Y-138067962D01*
X156680760Y-138071579D01*
X156680764Y-138071579D01*
X156685924Y-138071768D01*
X156691044Y-138071112D01*
X156691046Y-138071112D01*
X156917023Y-138042164D01*
X156917024Y-138042164D01*
X156922151Y-138041507D01*
X157005200Y-138016591D01*
X157145316Y-137974554D01*
X157145317Y-137974553D01*
X157150262Y-137973070D01*
X157364133Y-137868295D01*
X157368336Y-137865297D01*
X157368341Y-137865294D01*
X157553816Y-137732996D01*
X157553818Y-137732994D01*
X157558020Y-137729997D01*
X157726716Y-137561889D01*
X157865690Y-137368486D01*
X157911774Y-137275244D01*
X157968917Y-137159624D01*
X157968918Y-137159622D01*
X157971211Y-137154982D01*
X158040443Y-136927111D01*
X158071529Y-136690992D01*
X158073264Y-136620000D01*
X158070345Y-136584494D01*
X160247170Y-136584494D01*
X160247467Y-136589646D01*
X160247467Y-136589650D01*
X160253502Y-136694313D01*
X160260879Y-136822255D01*
X160262016Y-136827301D01*
X160262017Y-136827307D01*
X160295111Y-136974156D01*
X160313237Y-137054585D01*
X160315179Y-137059367D01*
X160315180Y-137059371D01*
X160400893Y-137270457D01*
X160402837Y-137275244D01*
X160527274Y-137478306D01*
X160683204Y-137658317D01*
X160866442Y-137810444D01*
X160870894Y-137813046D01*
X160870899Y-137813049D01*
X160983759Y-137878999D01*
X161072065Y-137930601D01*
X161294552Y-138015560D01*
X161299618Y-138016591D01*
X161299619Y-138016591D01*
X161353956Y-138027646D01*
X161527928Y-138063041D01*
X161662121Y-138067962D01*
X161760760Y-138071579D01*
X161760764Y-138071579D01*
X161765924Y-138071768D01*
X161771044Y-138071112D01*
X161771046Y-138071112D01*
X161997023Y-138042164D01*
X161997024Y-138042164D01*
X162002151Y-138041507D01*
X162085200Y-138016591D01*
X162225316Y-137974554D01*
X162225317Y-137974553D01*
X162230262Y-137973070D01*
X162444133Y-137868295D01*
X162448336Y-137865297D01*
X162448341Y-137865294D01*
X162633816Y-137732996D01*
X162633818Y-137732994D01*
X162638020Y-137729997D01*
X162806716Y-137561889D01*
X162945690Y-137368486D01*
X162991774Y-137275244D01*
X163048917Y-137159624D01*
X163048918Y-137159622D01*
X163051211Y-137154982D01*
X163120443Y-136927111D01*
X163151529Y-136690992D01*
X163153264Y-136620000D01*
X163133750Y-136382644D01*
X163075731Y-136151663D01*
X162980767Y-135933259D01*
X162963694Y-135906867D01*
X162896088Y-135802365D01*
X162851406Y-135733298D01*
X162691124Y-135557150D01*
X162687073Y-135553951D01*
X162687069Y-135553947D01*
X162508278Y-135412747D01*
X162508273Y-135412744D01*
X162504224Y-135409546D01*
X162499708Y-135407053D01*
X162499705Y-135407051D01*
X162300250Y-135296946D01*
X162300246Y-135296944D01*
X162295726Y-135294449D01*
X162290857Y-135292725D01*
X162290853Y-135292723D01*
X162076105Y-135216676D01*
X162076101Y-135216675D01*
X162071230Y-135214950D01*
X162066140Y-135214043D01*
X162066135Y-135214042D01*
X161929340Y-135189676D01*
X161836764Y-135173186D01*
X161747637Y-135172097D01*
X161603795Y-135170339D01*
X161603793Y-135170339D01*
X161598625Y-135170276D01*
X161363209Y-135206300D01*
X161136838Y-135280289D01*
X160925590Y-135390258D01*
X160921457Y-135393361D01*
X160921454Y-135393363D01*
X160895637Y-135412747D01*
X160735140Y-135533252D01*
X160570602Y-135705431D01*
X160567691Y-135709699D01*
X160567687Y-135709704D01*
X160536497Y-135755427D01*
X160436394Y-135902172D01*
X160336122Y-136118191D01*
X160272477Y-136347685D01*
X160271928Y-136352819D01*
X160271928Y-136352821D01*
X160266449Y-136404089D01*
X160247170Y-136584494D01*
X158070345Y-136584494D01*
X158053750Y-136382644D01*
X157995731Y-136151663D01*
X157900767Y-135933259D01*
X157883694Y-135906867D01*
X157816088Y-135802365D01*
X157771406Y-135733298D01*
X157611124Y-135557150D01*
X157607073Y-135553951D01*
X157607069Y-135553947D01*
X157428278Y-135412747D01*
X157428273Y-135412744D01*
X157424224Y-135409546D01*
X157419708Y-135407053D01*
X157419705Y-135407051D01*
X157220250Y-135296946D01*
X157220246Y-135296944D01*
X157215726Y-135294449D01*
X157210857Y-135292725D01*
X157210853Y-135292723D01*
X157120434Y-135260704D01*
X157062897Y-135219110D01*
X157036982Y-135153012D01*
X157050916Y-135083396D01*
X157073399Y-135052836D01*
X160810829Y-131315405D01*
X160873141Y-131281379D01*
X160899924Y-131278500D01*
X163141942Y-131278500D01*
X163210063Y-131298502D01*
X163222873Y-131308716D01*
X163223204Y-131308317D01*
X163406442Y-131460444D01*
X163410894Y-131463046D01*
X163410899Y-131463049D01*
X163509333Y-131520569D01*
X163612065Y-131580601D01*
X163834552Y-131665560D01*
X163839618Y-131666591D01*
X163839619Y-131666591D01*
X163893956Y-131677646D01*
X164067928Y-131713041D01*
X164202121Y-131717962D01*
X164300760Y-131721579D01*
X164300764Y-131721579D01*
X164305924Y-131721768D01*
X164311044Y-131721112D01*
X164311046Y-131721112D01*
X164537023Y-131692164D01*
X164537024Y-131692164D01*
X164542151Y-131691507D01*
X164625200Y-131666591D01*
X164765316Y-131624554D01*
X164765317Y-131624553D01*
X164770262Y-131623070D01*
X164984133Y-131518295D01*
X164988336Y-131515297D01*
X164988341Y-131515294D01*
X165173816Y-131382996D01*
X165173818Y-131382994D01*
X165178020Y-131379997D01*
X165346716Y-131211889D01*
X165485690Y-131018486D01*
X165529984Y-130928866D01*
X165588917Y-130809624D01*
X165588918Y-130809622D01*
X165591211Y-130804982D01*
X165660443Y-130577111D01*
X165668519Y-130515767D01*
X165691092Y-130344313D01*
X165691092Y-130344309D01*
X165691529Y-130340992D01*
X165692560Y-130298813D01*
X165692710Y-130292674D01*
X165714370Y-130225062D01*
X165729577Y-130206658D01*
X165881909Y-130054326D01*
X165944221Y-130020300D01*
X166015036Y-130025365D01*
X166071872Y-130067912D01*
X166096683Y-130134432D01*
X166096314Y-130156586D01*
X166086496Y-130250000D01*
X166087186Y-130256565D01*
X166105310Y-130429001D01*
X166106458Y-130439928D01*
X166165473Y-130621556D01*
X166260960Y-130786944D01*
X166265378Y-130791851D01*
X166265379Y-130791852D01*
X166277201Y-130804982D01*
X166388747Y-130928866D01*
X166543248Y-131041118D01*
X166549276Y-131043802D01*
X166549278Y-131043803D01*
X166711681Y-131116109D01*
X166717712Y-131118794D01*
X166811113Y-131138647D01*
X166898056Y-131157128D01*
X166898061Y-131157128D01*
X166904513Y-131158500D01*
X167095487Y-131158500D01*
X167101939Y-131157128D01*
X167101944Y-131157128D01*
X167188887Y-131138647D01*
X167282288Y-131118794D01*
X167288319Y-131116109D01*
X167450722Y-131043803D01*
X167450724Y-131043802D01*
X167456752Y-131041118D01*
X167611253Y-130928866D01*
X167722799Y-130804982D01*
X167734621Y-130791852D01*
X167734622Y-130791851D01*
X167739040Y-130786944D01*
X167834527Y-130621556D01*
X167893542Y-130439928D01*
X167894691Y-130429001D01*
X167913143Y-130253437D01*
X167928084Y-130205825D01*
X167928122Y-130205756D01*
X167938930Y-130189314D01*
X167944268Y-130182432D01*
X167951344Y-130173310D01*
X167968907Y-130132726D01*
X167974114Y-130122096D01*
X167995426Y-130083329D01*
X167997397Y-130075652D01*
X167997399Y-130075647D01*
X168000463Y-130063711D01*
X168006869Y-130044999D01*
X168011765Y-130033686D01*
X168014912Y-130026414D01*
X168017394Y-130010748D01*
X168021828Y-129982750D01*
X168024235Y-129971129D01*
X168033259Y-129935980D01*
X168033259Y-129935979D01*
X168035231Y-129928299D01*
X168035231Y-129908038D01*
X168036782Y-129888327D01*
X168038710Y-129876154D01*
X168039950Y-129868326D01*
X168035790Y-129824315D01*
X168035231Y-129812458D01*
X168035231Y-126284500D01*
X168055233Y-126216379D01*
X168108889Y-126169886D01*
X168161231Y-126158500D01*
X168345487Y-126158500D01*
X168351942Y-126157128D01*
X168352332Y-126157087D01*
X168422170Y-126169860D01*
X168474016Y-126218363D01*
X168491500Y-126282397D01*
X168491500Y-140865500D01*
X168471498Y-140933621D01*
X168417842Y-140980114D01*
X168365500Y-140991500D01*
X129634500Y-140991500D01*
X129566379Y-140971498D01*
X129519886Y-140917842D01*
X129508500Y-140865500D01*
X129508500Y-139052817D01*
X129987514Y-139052817D01*
X129988095Y-139057837D01*
X129988095Y-139057841D01*
X130003923Y-139194631D01*
X130015415Y-139293956D01*
X130016791Y-139298820D01*
X130016792Y-139298823D01*
X130062476Y-139460266D01*
X130081510Y-139527532D01*
X130083644Y-139532108D01*
X130083646Y-139532114D01*
X130140446Y-139653922D01*
X130184099Y-139747536D01*
X130320544Y-139948307D01*
X130487332Y-140124681D01*
X130491358Y-140127759D01*
X130491359Y-140127760D01*
X130676154Y-140269047D01*
X130676158Y-140269050D01*
X130680174Y-140272120D01*
X130894109Y-140386831D01*
X131123631Y-140465862D01*
X131222978Y-140483022D01*
X131358926Y-140506504D01*
X131358932Y-140506505D01*
X131362836Y-140507179D01*
X131366797Y-140507359D01*
X131366798Y-140507359D01*
X131390506Y-140508436D01*
X131390525Y-140508436D01*
X131391925Y-140508500D01*
X131561001Y-140508500D01*
X131563509Y-140508298D01*
X131563514Y-140508298D01*
X131736924Y-140494346D01*
X131736929Y-140494345D01*
X131741965Y-140493940D01*
X131746873Y-140492734D01*
X131746876Y-140492734D01*
X131972792Y-140437244D01*
X131977706Y-140436037D01*
X131982358Y-140434062D01*
X131982362Y-140434061D01*
X132196498Y-140343165D01*
X132201156Y-140341188D01*
X132307037Y-140274511D01*
X132402288Y-140214528D01*
X132402291Y-140214526D01*
X132406567Y-140211833D01*
X132505422Y-140124681D01*
X132584858Y-140054650D01*
X132584861Y-140054647D01*
X132588655Y-140051302D01*
X132742734Y-139863722D01*
X132864841Y-139653922D01*
X132951833Y-139427298D01*
X133001474Y-139189680D01*
X133007689Y-139052817D01*
X164987514Y-139052817D01*
X164988095Y-139057837D01*
X164988095Y-139057841D01*
X165003923Y-139194631D01*
X165015415Y-139293956D01*
X165016791Y-139298820D01*
X165016792Y-139298823D01*
X165062476Y-139460266D01*
X165081510Y-139527532D01*
X165083644Y-139532108D01*
X165083646Y-139532114D01*
X165140446Y-139653922D01*
X165184099Y-139747536D01*
X165320544Y-139948307D01*
X165487332Y-140124681D01*
X165491358Y-140127759D01*
X165491359Y-140127760D01*
X165676154Y-140269047D01*
X165676158Y-140269050D01*
X165680174Y-140272120D01*
X165894109Y-140386831D01*
X166123631Y-140465862D01*
X166222978Y-140483022D01*
X166358926Y-140506504D01*
X166358932Y-140506505D01*
X166362836Y-140507179D01*
X166366797Y-140507359D01*
X166366798Y-140507359D01*
X166390506Y-140508436D01*
X166390525Y-140508436D01*
X166391925Y-140508500D01*
X166561001Y-140508500D01*
X166563509Y-140508298D01*
X166563514Y-140508298D01*
X166736924Y-140494346D01*
X166736929Y-140494345D01*
X166741965Y-140493940D01*
X166746873Y-140492734D01*
X166746876Y-140492734D01*
X166972792Y-140437244D01*
X166977706Y-140436037D01*
X166982358Y-140434062D01*
X166982362Y-140434061D01*
X167196498Y-140343165D01*
X167201156Y-140341188D01*
X167307037Y-140274511D01*
X167402288Y-140214528D01*
X167402291Y-140214526D01*
X167406567Y-140211833D01*
X167505422Y-140124681D01*
X167584858Y-140054650D01*
X167584861Y-140054647D01*
X167588655Y-140051302D01*
X167742734Y-139863722D01*
X167864841Y-139653922D01*
X167951833Y-139427298D01*
X168001474Y-139189680D01*
X168012486Y-138947183D01*
X167997235Y-138815373D01*
X167985167Y-138711071D01*
X167985166Y-138711067D01*
X167984585Y-138706044D01*
X167945517Y-138567978D01*
X167919866Y-138477331D01*
X167918490Y-138472468D01*
X167916356Y-138467892D01*
X167916354Y-138467886D01*
X167818038Y-138257046D01*
X167818036Y-138257042D01*
X167815901Y-138252464D01*
X167679456Y-138051693D01*
X167512668Y-137875319D01*
X167499556Y-137865294D01*
X167323846Y-137730953D01*
X167323842Y-137730950D01*
X167319826Y-137727880D01*
X167105891Y-137613169D01*
X166876369Y-137534138D01*
X166777022Y-137516978D01*
X166641074Y-137493496D01*
X166641068Y-137493495D01*
X166637164Y-137492821D01*
X166633203Y-137492641D01*
X166633202Y-137492641D01*
X166609494Y-137491564D01*
X166609475Y-137491564D01*
X166608075Y-137491500D01*
X166438999Y-137491500D01*
X166436491Y-137491702D01*
X166436486Y-137491702D01*
X166263076Y-137505654D01*
X166263071Y-137505655D01*
X166258035Y-137506060D01*
X166253127Y-137507266D01*
X166253124Y-137507266D01*
X166137007Y-137535787D01*
X166022294Y-137563963D01*
X166017642Y-137565938D01*
X166017638Y-137565939D01*
X165910252Y-137611522D01*
X165798844Y-137658812D01*
X165794560Y-137661510D01*
X165597712Y-137785472D01*
X165597709Y-137785474D01*
X165593433Y-137788167D01*
X165589639Y-137791512D01*
X165415142Y-137945350D01*
X165415139Y-137945353D01*
X165411345Y-137948698D01*
X165408135Y-137952606D01*
X165408134Y-137952607D01*
X165310255Y-138071768D01*
X165257266Y-138136278D01*
X165135159Y-138346078D01*
X165048167Y-138572702D01*
X164998526Y-138810320D01*
X164987514Y-139052817D01*
X133007689Y-139052817D01*
X133012486Y-138947183D01*
X132997235Y-138815373D01*
X132985167Y-138711071D01*
X132985166Y-138711067D01*
X132984585Y-138706044D01*
X132945517Y-138567978D01*
X132919866Y-138477331D01*
X132918490Y-138472468D01*
X132916356Y-138467892D01*
X132916354Y-138467886D01*
X132818038Y-138257046D01*
X132818036Y-138257042D01*
X132815901Y-138252464D01*
X132679456Y-138051693D01*
X132512668Y-137875319D01*
X132499556Y-137865294D01*
X132323846Y-137730953D01*
X132323842Y-137730950D01*
X132319826Y-137727880D01*
X132105891Y-137613169D01*
X131876369Y-137534138D01*
X131777022Y-137516978D01*
X131641074Y-137493496D01*
X131641068Y-137493495D01*
X131637164Y-137492821D01*
X131633203Y-137492641D01*
X131633202Y-137492641D01*
X131609494Y-137491564D01*
X131609475Y-137491564D01*
X131608075Y-137491500D01*
X131438999Y-137491500D01*
X131436491Y-137491702D01*
X131436486Y-137491702D01*
X131263076Y-137505654D01*
X131263071Y-137505655D01*
X131258035Y-137506060D01*
X131253127Y-137507266D01*
X131253124Y-137507266D01*
X131137007Y-137535787D01*
X131022294Y-137563963D01*
X131017642Y-137565938D01*
X131017638Y-137565939D01*
X130910252Y-137611522D01*
X130798844Y-137658812D01*
X130794560Y-137661510D01*
X130597712Y-137785472D01*
X130597709Y-137785474D01*
X130593433Y-137788167D01*
X130589639Y-137791512D01*
X130415142Y-137945350D01*
X130415139Y-137945353D01*
X130411345Y-137948698D01*
X130408135Y-137952606D01*
X130408134Y-137952607D01*
X130310255Y-138071768D01*
X130257266Y-138136278D01*
X130135159Y-138346078D01*
X130048167Y-138572702D01*
X129998526Y-138810320D01*
X129987514Y-139052817D01*
X129508500Y-139052817D01*
X129508500Y-84466695D01*
X135137251Y-84466695D01*
X135137548Y-84471848D01*
X135137548Y-84471851D01*
X135145780Y-84614616D01*
X135150110Y-84689715D01*
X135151247Y-84694761D01*
X135151248Y-84694767D01*
X135153110Y-84703028D01*
X135199222Y-84907639D01*
X135283266Y-85114616D01*
X135316923Y-85169540D01*
X135393072Y-85293803D01*
X135399987Y-85305088D01*
X135546250Y-85473938D01*
X135718126Y-85616632D01*
X135911000Y-85729338D01*
X136119692Y-85809030D01*
X136124760Y-85810061D01*
X136124763Y-85810062D01*
X136203323Y-85826045D01*
X136338597Y-85853567D01*
X136343772Y-85853757D01*
X136343774Y-85853757D01*
X136556673Y-85861564D01*
X136556677Y-85861564D01*
X136561837Y-85861753D01*
X136566957Y-85861097D01*
X136566959Y-85861097D01*
X136778288Y-85834025D01*
X136778289Y-85834025D01*
X136783416Y-85833368D01*
X136824194Y-85821134D01*
X136992429Y-85770661D01*
X136992434Y-85770659D01*
X136997384Y-85769174D01*
X137197994Y-85670896D01*
X137379860Y-85541173D01*
X137538096Y-85383489D01*
X137547670Y-85370166D01*
X137665435Y-85206277D01*
X137668453Y-85202077D01*
X137670746Y-85197437D01*
X137672446Y-85194608D01*
X137724674Y-85146518D01*
X137780451Y-85133500D01*
X139041800Y-85133500D01*
X139109921Y-85153502D01*
X139129147Y-85169843D01*
X139129420Y-85169540D01*
X139134332Y-85173963D01*
X139138747Y-85178866D01*
X139293248Y-85291118D01*
X139299276Y-85293802D01*
X139299278Y-85293803D01*
X139461681Y-85366109D01*
X139467712Y-85368794D01*
X139546072Y-85385450D01*
X139648056Y-85407128D01*
X139648061Y-85407128D01*
X139654513Y-85408500D01*
X139845487Y-85408500D01*
X139851939Y-85407128D01*
X139851944Y-85407128D01*
X139953928Y-85385450D01*
X140032288Y-85368794D01*
X140038319Y-85366109D01*
X140200722Y-85293803D01*
X140200724Y-85293802D01*
X140206752Y-85291118D01*
X140361253Y-85178866D01*
X140366379Y-85173173D01*
X140484621Y-85041852D01*
X140484622Y-85041851D01*
X140489040Y-85036944D01*
X140560931Y-84912425D01*
X140581223Y-84877279D01*
X140581224Y-84877278D01*
X140584527Y-84871556D01*
X140643542Y-84689928D01*
X140663504Y-84500000D01*
X140643542Y-84310072D01*
X140584527Y-84128444D01*
X140489040Y-83963056D01*
X140392503Y-83855840D01*
X140365675Y-83826045D01*
X140365674Y-83826044D01*
X140361253Y-83821134D01*
X140206752Y-83708882D01*
X140200724Y-83706198D01*
X140200722Y-83706197D01*
X140038319Y-83633891D01*
X140038318Y-83633891D01*
X140032288Y-83631206D01*
X139938887Y-83611353D01*
X139851944Y-83592872D01*
X139851939Y-83592872D01*
X139845487Y-83591500D01*
X139654513Y-83591500D01*
X139648061Y-83592872D01*
X139648056Y-83592872D01*
X139561113Y-83611353D01*
X139467712Y-83631206D01*
X139461682Y-83633891D01*
X139461681Y-83633891D01*
X139299278Y-83706197D01*
X139299276Y-83706198D01*
X139293248Y-83708882D01*
X139287907Y-83712762D01*
X139287906Y-83712763D01*
X139191892Y-83782522D01*
X139138747Y-83821134D01*
X139134332Y-83826037D01*
X139129420Y-83830460D01*
X139128295Y-83829211D01*
X139074986Y-83862051D01*
X139041800Y-83866500D01*
X137776805Y-83866500D01*
X137708684Y-83846498D01*
X137671013Y-83808940D01*
X137582822Y-83672617D01*
X137582820Y-83672614D01*
X137580014Y-83668277D01*
X137576532Y-83664450D01*
X137432798Y-83506488D01*
X137401746Y-83442642D01*
X137410141Y-83372143D01*
X137455317Y-83317375D01*
X137481761Y-83303706D01*
X137588297Y-83263767D01*
X137596705Y-83260615D01*
X137713261Y-83173261D01*
X137800615Y-83056705D01*
X137851745Y-82920316D01*
X137858500Y-82858134D01*
X137858500Y-82719500D01*
X137878502Y-82651379D01*
X137932158Y-82604886D01*
X137984500Y-82593500D01*
X139005784Y-82593500D01*
X139073905Y-82613502D01*
X139099420Y-82635189D01*
X139117723Y-82655516D01*
X139138747Y-82678866D01*
X139153160Y-82689338D01*
X139270391Y-82774511D01*
X139293248Y-82791118D01*
X139299276Y-82793802D01*
X139299278Y-82793803D01*
X139461681Y-82866109D01*
X139467712Y-82868794D01*
X139541316Y-82884439D01*
X139648056Y-82907128D01*
X139648061Y-82907128D01*
X139654513Y-82908500D01*
X139845487Y-82908500D01*
X139851939Y-82907128D01*
X139851944Y-82907128D01*
X139958684Y-82884439D01*
X140032288Y-82868794D01*
X140038319Y-82866109D01*
X140200722Y-82793803D01*
X140200724Y-82793802D01*
X140206752Y-82791118D01*
X140229610Y-82774511D01*
X140262157Y-82750864D01*
X140361253Y-82678866D01*
X140373851Y-82664875D01*
X140484621Y-82541852D01*
X140484622Y-82541851D01*
X140489040Y-82536944D01*
X140584527Y-82371556D01*
X140643542Y-82189928D01*
X140645953Y-82166994D01*
X140662814Y-82006565D01*
X140663504Y-82000000D01*
X140643542Y-81810072D01*
X140584527Y-81628444D01*
X140489040Y-81463056D01*
X140483269Y-81456646D01*
X140365675Y-81326045D01*
X140365674Y-81326044D01*
X140361253Y-81321134D01*
X140206752Y-81208882D01*
X140200724Y-81206198D01*
X140200722Y-81206197D01*
X140038319Y-81133891D01*
X140038318Y-81133891D01*
X140032288Y-81131206D01*
X139938888Y-81111353D01*
X139851944Y-81092872D01*
X139851939Y-81092872D01*
X139845487Y-81091500D01*
X139654513Y-81091500D01*
X139648061Y-81092872D01*
X139648056Y-81092872D01*
X139561112Y-81111353D01*
X139467712Y-81131206D01*
X139461682Y-81133891D01*
X139461681Y-81133891D01*
X139299278Y-81206197D01*
X139299276Y-81206198D01*
X139293248Y-81208882D01*
X139287907Y-81212762D01*
X139287906Y-81212763D01*
X139164482Y-81302436D01*
X139097614Y-81326295D01*
X139090421Y-81326500D01*
X137984500Y-81326500D01*
X137916379Y-81306498D01*
X137869886Y-81252842D01*
X137858500Y-81200500D01*
X137858500Y-81061866D01*
X137851745Y-80999684D01*
X137800615Y-80863295D01*
X137713261Y-80746739D01*
X137596705Y-80659385D01*
X137460316Y-80608255D01*
X137398134Y-80601500D01*
X135601866Y-80601500D01*
X135539684Y-80608255D01*
X135403295Y-80659385D01*
X135286739Y-80746739D01*
X135199385Y-80863295D01*
X135148255Y-80999684D01*
X135141500Y-81061866D01*
X135141500Y-82858134D01*
X135148255Y-82920316D01*
X135199385Y-83056705D01*
X135286739Y-83173261D01*
X135403295Y-83260615D01*
X135411704Y-83263767D01*
X135411705Y-83263768D01*
X135520451Y-83304535D01*
X135577216Y-83347176D01*
X135601916Y-83413738D01*
X135586709Y-83483087D01*
X135567316Y-83509568D01*
X135500204Y-83579797D01*
X135440629Y-83642138D01*
X135437715Y-83646410D01*
X135437714Y-83646411D01*
X135396931Y-83706197D01*
X135314743Y-83826680D01*
X135296259Y-83866500D01*
X135235848Y-83996646D01*
X135220688Y-84029305D01*
X135160989Y-84244570D01*
X135137251Y-84466695D01*
X129508500Y-84466695D01*
X129508500Y-81552817D01*
X129987514Y-81552817D01*
X129988095Y-81557837D01*
X129988095Y-81557841D01*
X130011310Y-81758475D01*
X130015415Y-81793956D01*
X130016791Y-81798820D01*
X130016792Y-81798823D01*
X130058914Y-81947680D01*
X130081510Y-82027532D01*
X130083644Y-82032108D01*
X130083646Y-82032114D01*
X130181962Y-82242954D01*
X130184099Y-82247536D01*
X130320544Y-82448307D01*
X130487332Y-82624681D01*
X130491358Y-82627759D01*
X130491359Y-82627760D01*
X130676154Y-82769047D01*
X130676158Y-82769050D01*
X130680174Y-82772120D01*
X130684632Y-82774510D01*
X130684633Y-82774511D01*
X130818905Y-82846507D01*
X130894109Y-82886831D01*
X131123631Y-82965862D01*
X131222978Y-82983022D01*
X131358926Y-83006504D01*
X131358932Y-83006505D01*
X131362836Y-83007179D01*
X131366797Y-83007359D01*
X131366798Y-83007359D01*
X131390506Y-83008436D01*
X131390525Y-83008436D01*
X131391925Y-83008500D01*
X131561001Y-83008500D01*
X131563509Y-83008298D01*
X131563514Y-83008298D01*
X131736924Y-82994346D01*
X131736929Y-82994345D01*
X131741965Y-82993940D01*
X131746873Y-82992734D01*
X131746876Y-82992734D01*
X131972792Y-82937244D01*
X131977706Y-82936037D01*
X131982358Y-82934062D01*
X131982362Y-82934061D01*
X132142446Y-82866109D01*
X132201156Y-82841188D01*
X132307037Y-82774511D01*
X132402288Y-82714528D01*
X132402291Y-82714526D01*
X132406567Y-82711833D01*
X132475139Y-82651379D01*
X132584858Y-82554650D01*
X132584861Y-82554647D01*
X132588655Y-82551302D01*
X132629831Y-82501173D01*
X132739526Y-82367628D01*
X132739528Y-82367625D01*
X132742734Y-82363722D01*
X132864841Y-82153922D01*
X132882613Y-82107625D01*
X132950020Y-81932022D01*
X132950021Y-81932018D01*
X132951833Y-81927298D01*
X132976323Y-81810072D01*
X133000440Y-81694631D01*
X133000440Y-81694627D01*
X133001474Y-81689680D01*
X133012486Y-81447183D01*
X133010712Y-81431851D01*
X132985167Y-81211071D01*
X132985166Y-81211067D01*
X132984585Y-81206044D01*
X132952173Y-81091500D01*
X132919866Y-80977331D01*
X132918490Y-80972468D01*
X132916356Y-80967892D01*
X132916354Y-80967886D01*
X132818038Y-80757046D01*
X132818036Y-80757042D01*
X132815901Y-80752464D01*
X132679456Y-80551693D01*
X132512668Y-80375319D01*
X132495177Y-80361946D01*
X132323846Y-80230953D01*
X132323842Y-80230950D01*
X132319826Y-80227880D01*
X132303521Y-80219137D01*
X132110352Y-80115561D01*
X132105891Y-80113169D01*
X131876369Y-80034138D01*
X131777022Y-80016978D01*
X131641074Y-79993496D01*
X131641068Y-79993495D01*
X131637164Y-79992821D01*
X131633203Y-79992641D01*
X131633202Y-79992641D01*
X131609494Y-79991564D01*
X131609475Y-79991564D01*
X131608075Y-79991500D01*
X131438999Y-79991500D01*
X131436491Y-79991702D01*
X131436486Y-79991702D01*
X131263076Y-80005654D01*
X131263071Y-80005655D01*
X131258035Y-80006060D01*
X131253127Y-80007266D01*
X131253124Y-80007266D01*
X131137007Y-80035787D01*
X131022294Y-80063963D01*
X131017642Y-80065938D01*
X131017638Y-80065939D01*
X130930727Y-80102831D01*
X130798844Y-80158812D01*
X130794560Y-80161510D01*
X130597712Y-80285472D01*
X130597709Y-80285474D01*
X130593433Y-80288167D01*
X130589639Y-80291512D01*
X130415142Y-80445350D01*
X130415139Y-80445353D01*
X130411345Y-80448698D01*
X130408135Y-80452606D01*
X130408134Y-80452607D01*
X130266976Y-80624457D01*
X130257266Y-80636278D01*
X130240683Y-80664771D01*
X130155289Y-80811492D01*
X130135159Y-80846078D01*
X130133346Y-80850801D01*
X130052327Y-81061866D01*
X130048167Y-81072702D01*
X130047133Y-81077652D01*
X130047132Y-81077655D01*
X130010534Y-81252842D01*
X129998526Y-81310320D01*
X129987514Y-81552817D01*
X129508500Y-81552817D01*
X129508500Y-79634500D01*
X129528502Y-79566379D01*
X129582158Y-79519886D01*
X129634500Y-79508500D01*
X168365500Y-79508500D01*
X168433621Y-79528502D01*
G37*
%TD.AperFunction*%
%TA.AperFunction,Conductor*%
G36*
X154663188Y-119184610D02*
G01*
X154704370Y-119242443D01*
X154711300Y-119283653D01*
X154711300Y-121589303D01*
X154691298Y-121657424D01*
X154674395Y-121678399D01*
X154273197Y-122079596D01*
X154210885Y-122113621D01*
X154184102Y-122116500D01*
X154053458Y-122116500D01*
X154042274Y-122115973D01*
X154034786Y-122114299D01*
X154026863Y-122114548D01*
X153966728Y-122116438D01*
X153962770Y-122116500D01*
X153934839Y-122116500D01*
X153930924Y-122116995D01*
X153930920Y-122116995D01*
X153930862Y-122117003D01*
X153930833Y-122117006D01*
X153918991Y-122117939D01*
X153874805Y-122119327D01*
X153857439Y-122124372D01*
X153855353Y-122124978D01*
X153836001Y-122128986D01*
X153828930Y-122129880D01*
X153815898Y-122131526D01*
X153808529Y-122134443D01*
X153808527Y-122134444D01*
X153774792Y-122147800D01*
X153763564Y-122151645D01*
X153721102Y-122163982D01*
X153714280Y-122168016D01*
X153714274Y-122168019D01*
X153703663Y-122174294D01*
X153685913Y-122182990D01*
X153674451Y-122187528D01*
X153674446Y-122187531D01*
X153667078Y-122190448D01*
X153660663Y-122195109D01*
X153631320Y-122216427D01*
X153621403Y-122222942D01*
X153599027Y-122236176D01*
X153530212Y-122253637D01*
X153462880Y-122231122D01*
X153418409Y-122175779D01*
X153410918Y-122105179D01*
X153413888Y-122092570D01*
X153414833Y-122089318D01*
X153417981Y-122082043D01*
X153419221Y-122074215D01*
X153419223Y-122074208D01*
X153424899Y-122038374D01*
X153427305Y-122026754D01*
X153436328Y-121991609D01*
X153436328Y-121991608D01*
X153438300Y-121983928D01*
X153438300Y-121963674D01*
X153439851Y-121943963D01*
X153441780Y-121931784D01*
X153443020Y-121923955D01*
X153438859Y-121879936D01*
X153438300Y-121868079D01*
X153438300Y-119979794D01*
X153458302Y-119911673D01*
X153475205Y-119890699D01*
X153620499Y-119745405D01*
X153682811Y-119711379D01*
X153709594Y-119708500D01*
X153765487Y-119708500D01*
X153771939Y-119707128D01*
X153771944Y-119707128D01*
X153858888Y-119688647D01*
X153952288Y-119668794D01*
X153965989Y-119662694D01*
X154120722Y-119593803D01*
X154120724Y-119593802D01*
X154126752Y-119591118D01*
X154281253Y-119478866D01*
X154295087Y-119463502D01*
X154404621Y-119341852D01*
X154404622Y-119341851D01*
X154409040Y-119336944D01*
X154476181Y-119220653D01*
X154527564Y-119171660D01*
X154597277Y-119158224D01*
X154663188Y-119184610D01*
G37*
%TD.AperFunction*%
%TA.AperFunction,Conductor*%
G36*
X161199514Y-114635201D02*
G01*
X161232872Y-114659107D01*
X162664882Y-116091116D01*
X162698907Y-116153428D01*
X162701308Y-116169227D01*
X162706457Y-116228087D01*
X162765716Y-116449243D01*
X162768039Y-116454224D01*
X162768039Y-116454225D01*
X162860151Y-116651762D01*
X162860154Y-116651767D01*
X162862477Y-116656749D01*
X162906714Y-116719926D01*
X162979009Y-116823173D01*
X162993802Y-116844300D01*
X163155700Y-117006198D01*
X163160208Y-117009355D01*
X163160211Y-117009357D01*
X163222023Y-117052638D01*
X163343251Y-117137523D01*
X163348233Y-117139846D01*
X163348238Y-117139849D01*
X163502415Y-117211742D01*
X163550757Y-117234284D01*
X163556065Y-117235706D01*
X163556067Y-117235707D01*
X163609409Y-117250000D01*
X163771913Y-117293543D01*
X163830769Y-117298692D01*
X163896887Y-117324555D01*
X163908883Y-117335118D01*
X165531326Y-118957560D01*
X165565351Y-119019872D01*
X165568231Y-119046655D01*
X165568231Y-121631936D01*
X165548229Y-121700057D01*
X165494573Y-121746550D01*
X165424299Y-121756654D01*
X165359719Y-121727160D01*
X165349037Y-121716735D01*
X165271876Y-121631936D01*
X165231124Y-121587150D01*
X165227073Y-121583951D01*
X165227069Y-121583947D01*
X165048278Y-121442747D01*
X165048273Y-121442744D01*
X165044224Y-121439546D01*
X165039708Y-121437053D01*
X165039705Y-121437051D01*
X164840250Y-121326946D01*
X164840246Y-121326944D01*
X164835726Y-121324449D01*
X164830857Y-121322725D01*
X164830853Y-121322723D01*
X164616105Y-121246676D01*
X164616101Y-121246675D01*
X164611230Y-121244950D01*
X164606140Y-121244043D01*
X164606135Y-121244042D01*
X164478814Y-121221364D01*
X164376764Y-121203186D01*
X164287637Y-121202097D01*
X164143795Y-121200339D01*
X164143793Y-121200339D01*
X164138625Y-121200276D01*
X163903209Y-121236300D01*
X163676838Y-121310289D01*
X163465590Y-121420258D01*
X163461457Y-121423361D01*
X163461454Y-121423363D01*
X163354392Y-121503748D01*
X163287907Y-121528654D01*
X163218512Y-121513662D01*
X163168238Y-121463531D01*
X163152777Y-121399907D01*
X163153182Y-121383362D01*
X163153182Y-121383359D01*
X163153264Y-121380000D01*
X163133750Y-121142644D01*
X163075731Y-120911663D01*
X162980767Y-120693259D01*
X162851406Y-120493298D01*
X162691124Y-120317150D01*
X162687073Y-120313951D01*
X162687069Y-120313947D01*
X162508278Y-120172747D01*
X162508273Y-120172744D01*
X162504224Y-120169546D01*
X162499708Y-120167053D01*
X162499705Y-120167051D01*
X162300250Y-120056946D01*
X162300246Y-120056944D01*
X162295726Y-120054449D01*
X162290857Y-120052725D01*
X162290853Y-120052723D01*
X162076105Y-119976676D01*
X162076101Y-119976675D01*
X162071230Y-119974950D01*
X162066140Y-119974043D01*
X162066135Y-119974042D01*
X161938814Y-119951364D01*
X161836764Y-119933186D01*
X161747637Y-119932097D01*
X161603795Y-119930339D01*
X161603793Y-119930339D01*
X161598625Y-119930276D01*
X161363209Y-119966300D01*
X161136838Y-120040289D01*
X160925590Y-120150258D01*
X160921457Y-120153361D01*
X160921454Y-120153363D01*
X160739275Y-120290147D01*
X160735140Y-120293252D01*
X160570602Y-120465431D01*
X160548629Y-120497642D01*
X160535186Y-120517349D01*
X160480274Y-120562351D01*
X160409749Y-120570522D01*
X160346002Y-120539267D01*
X160325306Y-120514784D01*
X160314217Y-120497642D01*
X160314212Y-120497636D01*
X160311406Y-120493298D01*
X160151124Y-120317150D01*
X160147073Y-120313951D01*
X160147069Y-120313947D01*
X159968278Y-120172747D01*
X159968273Y-120172744D01*
X159964224Y-120169546D01*
X159959708Y-120167053D01*
X159959705Y-120167051D01*
X159760250Y-120056946D01*
X159760246Y-120056944D01*
X159755726Y-120054449D01*
X159750857Y-120052725D01*
X159750853Y-120052723D01*
X159536105Y-119976676D01*
X159536101Y-119976675D01*
X159531230Y-119974950D01*
X159526140Y-119974043D01*
X159526135Y-119974042D01*
X159398814Y-119951364D01*
X159296764Y-119933186D01*
X159207637Y-119932097D01*
X159063795Y-119930339D01*
X159063793Y-119930339D01*
X159058625Y-119930276D01*
X158823209Y-119966300D01*
X158596838Y-120040289D01*
X158385590Y-120150258D01*
X158381457Y-120153361D01*
X158381454Y-120153363D01*
X158199275Y-120290147D01*
X158195140Y-120293252D01*
X158030602Y-120465431D01*
X158008629Y-120497642D01*
X157995186Y-120517349D01*
X157940274Y-120562351D01*
X157869749Y-120570522D01*
X157806002Y-120539267D01*
X157785306Y-120514784D01*
X157774217Y-120497642D01*
X157774212Y-120497636D01*
X157771406Y-120493298D01*
X157611124Y-120317150D01*
X157607073Y-120313951D01*
X157607069Y-120313947D01*
X157428278Y-120172747D01*
X157428273Y-120172744D01*
X157424224Y-120169546D01*
X157419708Y-120167053D01*
X157419705Y-120167051D01*
X157220250Y-120056946D01*
X157220246Y-120056944D01*
X157215726Y-120054449D01*
X157210857Y-120052725D01*
X157210853Y-120052723D01*
X156996105Y-119976676D01*
X156996101Y-119976675D01*
X156991230Y-119974950D01*
X156986140Y-119974043D01*
X156986135Y-119974042D01*
X156858814Y-119951364D01*
X156756764Y-119933186D01*
X156667637Y-119932097D01*
X156523795Y-119930339D01*
X156523793Y-119930339D01*
X156518625Y-119930276D01*
X156283209Y-119966300D01*
X156143444Y-120011982D01*
X156072481Y-120014133D01*
X156011620Y-119977577D01*
X155980183Y-119913920D01*
X155978300Y-119892217D01*
X155978300Y-119589662D01*
X155998302Y-119521541D01*
X156030239Y-119487726D01*
X156105909Y-119432749D01*
X156105911Y-119432747D01*
X156111253Y-119428866D01*
X156194020Y-119336944D01*
X156234621Y-119291852D01*
X156234622Y-119291851D01*
X156239040Y-119286944D01*
X156334527Y-119121556D01*
X156393542Y-118939928D01*
X156413504Y-118750000D01*
X156393542Y-118560072D01*
X156334527Y-118378444D01*
X156308071Y-118332620D01*
X156290057Y-118301420D01*
X156239040Y-118213056D01*
X156208670Y-118179326D01*
X156115675Y-118076045D01*
X156115674Y-118076044D01*
X156111253Y-118071134D01*
X155956752Y-117958882D01*
X155950724Y-117956198D01*
X155950722Y-117956197D01*
X155788319Y-117883891D01*
X155788318Y-117883891D01*
X155782288Y-117881206D01*
X155642255Y-117851441D01*
X155579782Y-117817712D01*
X155545460Y-117755563D01*
X155550188Y-117684724D01*
X155559332Y-117665195D01*
X155577405Y-117633891D01*
X155584527Y-117621556D01*
X155643542Y-117439928D01*
X155646990Y-117407128D01*
X155662814Y-117256565D01*
X155663504Y-117250000D01*
X155659483Y-117211742D01*
X155646274Y-117086062D01*
X158278493Y-117086062D01*
X158287789Y-117098077D01*
X158338994Y-117133931D01*
X158348489Y-117139414D01*
X158545947Y-117231490D01*
X158556239Y-117235236D01*
X158766688Y-117291625D01*
X158777481Y-117293528D01*
X158994525Y-117312517D01*
X159005475Y-117312517D01*
X159222519Y-117293528D01*
X159233312Y-117291625D01*
X159443761Y-117235236D01*
X159454053Y-117231490D01*
X159651511Y-117139414D01*
X159661006Y-117133931D01*
X159713048Y-117097491D01*
X159721424Y-117087012D01*
X159714356Y-117073566D01*
X159012812Y-116372022D01*
X158998868Y-116364408D01*
X158997035Y-116364539D01*
X158990420Y-116368790D01*
X158284923Y-117074287D01*
X158278493Y-117086062D01*
X155646274Y-117086062D01*
X155644232Y-117066635D01*
X155644232Y-117066633D01*
X155643542Y-117060072D01*
X155584527Y-116878444D01*
X155562210Y-116839789D01*
X155530304Y-116784528D01*
X155489040Y-116713056D01*
X155472881Y-116695109D01*
X155365675Y-116576045D01*
X155365674Y-116576044D01*
X155361253Y-116571134D01*
X155206752Y-116458882D01*
X155200724Y-116456198D01*
X155200722Y-116456197D01*
X155038319Y-116383891D01*
X155038318Y-116383891D01*
X155032288Y-116381206D01*
X154938888Y-116361353D01*
X154851944Y-116342872D01*
X154851939Y-116342872D01*
X154845487Y-116341500D01*
X154654513Y-116341500D01*
X154648061Y-116342872D01*
X154648056Y-116342872D01*
X154561112Y-116361353D01*
X154467712Y-116381206D01*
X154461682Y-116383891D01*
X154461681Y-116383891D01*
X154299278Y-116456197D01*
X154299276Y-116456198D01*
X154293248Y-116458882D01*
X154138747Y-116571134D01*
X154121944Y-116589795D01*
X154061502Y-116627034D01*
X154044105Y-116630489D01*
X154035898Y-116631526D01*
X154028532Y-116634442D01*
X154028526Y-116634444D01*
X153994793Y-116647800D01*
X153983563Y-116651645D01*
X153965995Y-116656749D01*
X153941102Y-116663981D01*
X153934279Y-116668016D01*
X153923661Y-116674295D01*
X153905908Y-116682992D01*
X153898263Y-116686019D01*
X153887078Y-116690448D01*
X153880663Y-116695109D01*
X153851307Y-116716437D01*
X153841390Y-116722951D01*
X153803333Y-116745458D01*
X153789012Y-116759779D01*
X153773979Y-116772619D01*
X153757588Y-116784528D01*
X153752537Y-116790634D01*
X153729397Y-116818605D01*
X153721407Y-116827384D01*
X152312273Y-118236517D01*
X152249961Y-118270543D01*
X152179145Y-118265478D01*
X152122310Y-118222931D01*
X152103345Y-118186359D01*
X152086568Y-118134727D01*
X152084527Y-118128444D01*
X151989040Y-117963056D01*
X151861253Y-117821134D01*
X151706752Y-117708882D01*
X151700724Y-117706198D01*
X151700722Y-117706197D01*
X151538319Y-117633891D01*
X151538318Y-117633891D01*
X151532288Y-117631206D01*
X151438887Y-117611353D01*
X151351944Y-117592872D01*
X151351939Y-117592872D01*
X151345487Y-117591500D01*
X151154513Y-117591500D01*
X151148061Y-117592872D01*
X151148056Y-117592872D01*
X151061113Y-117611353D01*
X150967712Y-117631206D01*
X150961682Y-117633891D01*
X150961681Y-117633891D01*
X150799278Y-117706197D01*
X150799276Y-117706198D01*
X150793248Y-117708882D01*
X150638747Y-117821134D01*
X150510960Y-117963056D01*
X150507659Y-117968774D01*
X150424101Y-118113500D01*
X150372718Y-118162493D01*
X150314982Y-118176500D01*
X149858767Y-118176500D01*
X149847584Y-118175973D01*
X149840091Y-118174298D01*
X149832165Y-118174547D01*
X149832164Y-118174547D01*
X149772001Y-118176438D01*
X149768043Y-118176500D01*
X149740144Y-118176500D01*
X149736154Y-118177004D01*
X149724320Y-118177936D01*
X149680111Y-118179326D01*
X149672497Y-118181538D01*
X149672492Y-118181539D01*
X149660659Y-118184977D01*
X149641296Y-118188988D01*
X149621203Y-118191526D01*
X149613836Y-118194443D01*
X149613831Y-118194444D01*
X149580092Y-118207802D01*
X149568865Y-118211646D01*
X149526407Y-118223982D01*
X149519581Y-118228019D01*
X149508972Y-118234293D01*
X149491224Y-118242988D01*
X149472383Y-118250448D01*
X149465967Y-118255110D01*
X149465966Y-118255110D01*
X149436613Y-118276436D01*
X149426693Y-118282952D01*
X149395465Y-118301420D01*
X149395462Y-118301422D01*
X149388638Y-118305458D01*
X149374317Y-118319779D01*
X149359284Y-118332619D01*
X149342893Y-118344528D01*
X149337842Y-118350634D01*
X149314702Y-118378605D01*
X149306712Y-118387384D01*
X147488919Y-120205176D01*
X147426607Y-120239202D01*
X147355791Y-120234137D01*
X147321732Y-120214963D01*
X147268282Y-120172751D01*
X147264224Y-120169546D01*
X147158605Y-120111241D01*
X147108636Y-120060810D01*
X147093500Y-120000934D01*
X147093500Y-117179201D01*
X147113502Y-117111080D01*
X147167158Y-117064587D01*
X147237432Y-117054483D01*
X147302012Y-117083977D01*
X147313133Y-117094888D01*
X147388747Y-117178866D01*
X147543248Y-117291118D01*
X147549276Y-117293802D01*
X147549278Y-117293803D01*
X147710192Y-117365446D01*
X147717712Y-117368794D01*
X147811112Y-117388647D01*
X147898056Y-117407128D01*
X147898061Y-117407128D01*
X147904513Y-117408500D01*
X148095487Y-117408500D01*
X148101939Y-117407128D01*
X148101944Y-117407128D01*
X148188888Y-117388647D01*
X148282288Y-117368794D01*
X148289808Y-117365446D01*
X148450722Y-117293803D01*
X148450724Y-117293802D01*
X148456752Y-117291118D01*
X148533019Y-117235707D01*
X148601748Y-117185772D01*
X148611253Y-117178866D01*
X148615668Y-117173963D01*
X148620580Y-117169540D01*
X148621705Y-117170789D01*
X148675014Y-117137949D01*
X148708200Y-117133500D01*
X151921233Y-117133500D01*
X151932416Y-117134027D01*
X151939909Y-117135702D01*
X151947835Y-117135453D01*
X151947836Y-117135453D01*
X152007986Y-117133562D01*
X152011945Y-117133500D01*
X152039856Y-117133500D01*
X152043791Y-117133003D01*
X152043856Y-117132995D01*
X152055693Y-117132062D01*
X152087951Y-117131048D01*
X152091970Y-117130922D01*
X152099889Y-117130673D01*
X152119343Y-117125021D01*
X152138700Y-117121013D01*
X152150930Y-117119468D01*
X152150931Y-117119468D01*
X152158797Y-117118474D01*
X152166168Y-117115555D01*
X152166170Y-117115555D01*
X152199912Y-117102196D01*
X152211142Y-117098351D01*
X152245983Y-117088229D01*
X152245984Y-117088229D01*
X152253593Y-117086018D01*
X152260412Y-117081985D01*
X152260417Y-117081983D01*
X152271028Y-117075707D01*
X152288776Y-117067012D01*
X152307617Y-117059552D01*
X152315543Y-117053794D01*
X152343387Y-117033564D01*
X152353307Y-117027048D01*
X152384535Y-117008580D01*
X152384538Y-117008578D01*
X152391362Y-117004542D01*
X152405683Y-116990221D01*
X152420717Y-116977380D01*
X152430694Y-116970131D01*
X152437107Y-116965472D01*
X152465298Y-116931395D01*
X152473288Y-116922616D01*
X152950499Y-116445405D01*
X153012811Y-116411379D01*
X153039594Y-116408500D01*
X153095487Y-116408500D01*
X153101939Y-116407128D01*
X153101944Y-116407128D01*
X153188887Y-116388647D01*
X153282288Y-116368794D01*
X153291845Y-116364539D01*
X153450722Y-116293803D01*
X153450724Y-116293802D01*
X153456752Y-116291118D01*
X153611253Y-116178866D01*
X153619929Y-116169230D01*
X153734621Y-116041852D01*
X153734622Y-116041851D01*
X153739040Y-116036944D01*
X153757209Y-116005475D01*
X157687483Y-116005475D01*
X157706472Y-116222519D01*
X157708375Y-116233312D01*
X157764764Y-116443761D01*
X157768510Y-116454053D01*
X157860586Y-116651511D01*
X157866069Y-116661006D01*
X157902509Y-116713048D01*
X157912988Y-116721424D01*
X157926434Y-116714356D01*
X158627978Y-116012812D01*
X158634356Y-116001132D01*
X159364408Y-116001132D01*
X159364539Y-116002965D01*
X159368790Y-116009580D01*
X160074287Y-116715077D01*
X160086062Y-116721507D01*
X160098077Y-116712211D01*
X160133931Y-116661006D01*
X160139414Y-116651511D01*
X160231490Y-116454053D01*
X160235236Y-116443761D01*
X160291625Y-116233312D01*
X160293528Y-116222519D01*
X160312517Y-116005475D01*
X160312517Y-115994525D01*
X160293528Y-115777481D01*
X160291625Y-115766688D01*
X160235236Y-115556239D01*
X160231490Y-115545947D01*
X160139414Y-115348489D01*
X160133931Y-115338994D01*
X160097491Y-115286952D01*
X160087012Y-115278576D01*
X160073566Y-115285644D01*
X159372022Y-115987188D01*
X159364408Y-116001132D01*
X158634356Y-116001132D01*
X158635592Y-115998868D01*
X158635461Y-115997035D01*
X158631210Y-115990420D01*
X157925713Y-115284923D01*
X157913938Y-115278493D01*
X157901923Y-115287789D01*
X157866069Y-115338994D01*
X157860586Y-115348489D01*
X157768510Y-115545947D01*
X157764764Y-115556239D01*
X157708375Y-115766688D01*
X157706472Y-115777481D01*
X157687483Y-115994525D01*
X157687483Y-116005475D01*
X153757209Y-116005475D01*
X153825374Y-115887409D01*
X153831223Y-115877279D01*
X153831224Y-115877278D01*
X153834527Y-115871556D01*
X153893542Y-115689928D01*
X153895167Y-115674473D01*
X153912814Y-115506565D01*
X153913504Y-115500000D01*
X153893542Y-115310072D01*
X153834527Y-115128444D01*
X153787794Y-115047500D01*
X153771056Y-114978505D01*
X153794276Y-114911413D01*
X153850084Y-114867526D01*
X153896913Y-114858500D01*
X158173820Y-114858500D01*
X158241941Y-114878502D01*
X158285352Y-114925878D01*
X158285644Y-114926434D01*
X158987188Y-115627978D01*
X159001132Y-115635592D01*
X159002965Y-115635461D01*
X159009580Y-115631210D01*
X159715079Y-114925711D01*
X159715952Y-114924112D01*
X159766155Y-114873911D01*
X159826538Y-114858500D01*
X160388157Y-114858500D01*
X160401764Y-114859237D01*
X160433262Y-114862659D01*
X160433267Y-114862659D01*
X160439388Y-114863324D01*
X160465638Y-114861027D01*
X160489388Y-114858950D01*
X160494214Y-114858621D01*
X160496686Y-114858500D01*
X160499769Y-114858500D01*
X160511738Y-114857326D01*
X160542506Y-114854310D01*
X160543819Y-114854188D01*
X160588084Y-114850315D01*
X160636413Y-114846087D01*
X160641532Y-114844600D01*
X160646833Y-114844080D01*
X160735834Y-114817209D01*
X160736967Y-114816874D01*
X160820414Y-114792630D01*
X160820418Y-114792628D01*
X160826336Y-114790909D01*
X160831068Y-114788456D01*
X160836169Y-114786916D01*
X160848360Y-114780434D01*
X160918260Y-114743269D01*
X160919426Y-114742657D01*
X160996453Y-114702729D01*
X161001926Y-114699892D01*
X161006089Y-114696569D01*
X161010796Y-114694066D01*
X161015572Y-114690171D01*
X161064141Y-114650559D01*
X161129573Y-114623005D01*
X161199514Y-114635201D01*
G37*
%TD.AperFunction*%
%TA.AperFunction,Conductor*%
G36*
X133092012Y-102488370D02*
G01*
X133098595Y-102494499D01*
X139079595Y-108475499D01*
X139113621Y-108537811D01*
X139116500Y-108564594D01*
X139116500Y-115075405D01*
X139096498Y-115143526D01*
X139079595Y-115164500D01*
X134289294Y-119954801D01*
X134226982Y-119988827D01*
X134158139Y-119984479D01*
X134136105Y-119976676D01*
X134136101Y-119976675D01*
X134131230Y-119974950D01*
X134126140Y-119974043D01*
X134126135Y-119974042D01*
X133998814Y-119951364D01*
X133896764Y-119933186D01*
X133807637Y-119932097D01*
X133663795Y-119930339D01*
X133663793Y-119930339D01*
X133658625Y-119930276D01*
X133423209Y-119966300D01*
X133196838Y-120040289D01*
X133067678Y-120107526D01*
X132998021Y-120121238D01*
X132932006Y-120095113D01*
X132890594Y-120037445D01*
X132883500Y-119995762D01*
X132883500Y-112906248D01*
X132903502Y-112838127D01*
X132957158Y-112791634D01*
X133027432Y-112781530D01*
X133053724Y-112788264D01*
X133089684Y-112801745D01*
X133151866Y-112808500D01*
X134848134Y-112808500D01*
X134910316Y-112801745D01*
X135046705Y-112750615D01*
X135163261Y-112663261D01*
X135250615Y-112546705D01*
X135301745Y-112410316D01*
X135308500Y-112348134D01*
X135308500Y-110651866D01*
X135301745Y-110589684D01*
X135250615Y-110453295D01*
X135163261Y-110336739D01*
X135046705Y-110249385D01*
X134910316Y-110198255D01*
X134848134Y-110191500D01*
X133151866Y-110191500D01*
X133089684Y-110198255D01*
X133053728Y-110211734D01*
X132982924Y-110216917D01*
X132920554Y-110182997D01*
X132886425Y-110120742D01*
X132883500Y-110093752D01*
X132883500Y-102583594D01*
X132903502Y-102515473D01*
X132957158Y-102468980D01*
X133027432Y-102458876D01*
X133092012Y-102488370D01*
G37*
%TD.AperFunction*%
%TA.AperFunction,Conductor*%
G36*
X146560292Y-104892497D02*
G01*
X146593793Y-104916474D01*
X147460856Y-105783537D01*
X147494882Y-105845849D01*
X147497319Y-105862089D01*
X147503268Y-105932934D01*
X147557783Y-106123050D01*
X147648187Y-106298956D01*
X147771035Y-106453953D01*
X147921650Y-106582136D01*
X148094294Y-106678624D01*
X148282392Y-106739740D01*
X148478777Y-106763158D01*
X148484912Y-106762686D01*
X148484914Y-106762686D01*
X148669830Y-106748457D01*
X148669834Y-106748456D01*
X148675972Y-106747984D01*
X148866463Y-106694798D01*
X149010511Y-106622034D01*
X149067322Y-106608500D01*
X156465500Y-106608500D01*
X156533621Y-106628502D01*
X156580114Y-106682158D01*
X156591500Y-106734500D01*
X156591500Y-106898134D01*
X156598255Y-106960316D01*
X156649385Y-107096705D01*
X156736739Y-107213261D01*
X156853295Y-107300615D01*
X156989684Y-107351745D01*
X157051866Y-107358500D01*
X158115500Y-107358500D01*
X158183621Y-107378502D01*
X158230114Y-107432158D01*
X158241500Y-107484500D01*
X158241500Y-110525507D01*
X158221498Y-110593628D01*
X158167842Y-110640121D01*
X158146237Y-110647543D01*
X158139684Y-110648255D01*
X158132289Y-110651027D01*
X158132286Y-110651028D01*
X158017978Y-110693880D01*
X158003295Y-110699385D01*
X157886739Y-110786739D01*
X157799385Y-110903295D01*
X157748255Y-111039684D01*
X157741500Y-111101866D01*
X157741500Y-112715500D01*
X157721498Y-112783621D01*
X157667842Y-112830114D01*
X157615500Y-112841500D01*
X154766216Y-112841500D01*
X154698095Y-112821498D01*
X154651602Y-112767842D01*
X154641498Y-112697568D01*
X154642029Y-112694584D01*
X154643542Y-112689928D01*
X154663504Y-112500000D01*
X154648222Y-112354595D01*
X154644232Y-112316635D01*
X154644232Y-112316633D01*
X154643542Y-112310072D01*
X154584527Y-112128444D01*
X154489040Y-111963056D01*
X154361253Y-111821134D01*
X154206752Y-111708882D01*
X154200724Y-111706198D01*
X154200722Y-111706197D01*
X154038319Y-111633891D01*
X154038318Y-111633891D01*
X154032288Y-111631206D01*
X153938887Y-111611353D01*
X153851944Y-111592872D01*
X153851939Y-111592872D01*
X153845487Y-111591500D01*
X153654513Y-111591500D01*
X153648061Y-111592872D01*
X153648056Y-111592872D01*
X153561112Y-111611353D01*
X153467712Y-111631206D01*
X153461682Y-111633891D01*
X153461681Y-111633891D01*
X153299278Y-111706197D01*
X153299276Y-111706198D01*
X153293248Y-111708882D01*
X153138747Y-111821134D01*
X153010960Y-111963056D01*
X152915473Y-112128444D01*
X152858498Y-112303794D01*
X152858289Y-112304437D01*
X152818215Y-112363042D01*
X152752818Y-112390679D01*
X152738456Y-112391500D01*
X151046320Y-112391500D01*
X150978199Y-112371498D01*
X150957225Y-112354595D01*
X146273133Y-107670502D01*
X146273130Y-107670499D01*
X146170405Y-107567773D01*
X146136379Y-107505461D01*
X146133500Y-107478678D01*
X146133500Y-105452524D01*
X146153502Y-105384403D01*
X146165858Y-105368221D01*
X146239040Y-105286944D01*
X146334527Y-105121556D01*
X146384865Y-104966633D01*
X146424939Y-104908027D01*
X146490335Y-104880390D01*
X146560292Y-104892497D01*
G37*
%TD.AperFunction*%
%TA.AperFunction,Conductor*%
G36*
X145875398Y-82719087D02*
G01*
X145915388Y-82777749D01*
X145921500Y-82816515D01*
X145921500Y-85530409D01*
X145901498Y-85598530D01*
X145884595Y-85619504D01*
X144298598Y-87205500D01*
X144236286Y-87239526D01*
X144165470Y-87234461D01*
X144108635Y-87191914D01*
X144083824Y-87125394D01*
X144083503Y-87116405D01*
X144083503Y-83691368D01*
X144103505Y-83623247D01*
X144120408Y-83602273D01*
X144881441Y-82841240D01*
X144943753Y-82807214D01*
X144995657Y-82806865D01*
X145028597Y-82813567D01*
X145033772Y-82813757D01*
X145033774Y-82813757D01*
X145246673Y-82821564D01*
X145246677Y-82821564D01*
X145251837Y-82821753D01*
X145256957Y-82821097D01*
X145256959Y-82821097D01*
X145468288Y-82794025D01*
X145468289Y-82794025D01*
X145473416Y-82793368D01*
X145493852Y-82787237D01*
X145682429Y-82730661D01*
X145682434Y-82730659D01*
X145687384Y-82729174D01*
X145740070Y-82703364D01*
X145810041Y-82691357D01*
X145875398Y-82719087D01*
G37*
%TD.AperFunction*%
%TD*%
M02*
